SplineFontDB: 3.2
FontName: Adventure
FullName: Adventure
FamilyName: Adventure
Weight: Book
Copyright: (c) Copyright Adventure (c) (Neale Davidson). 2011. All Rights Reserved, FFDec v.11.2.0.
Version: 1.0
ItalicAngle: 10
UnderlinePosition: -30
UnderlineWidth: 60
Ascent: 819
Descent: 205
InvalidEm: 0
sfntRevision: 0x00010000
LayerCount: 2
Layer: 0 1 "Back" 1
Layer: 1 1 "Fore" 0
XUID: [1021 473 -2083269771 11219]
StyleMap: 0x0040
FSType: 0
OS2Version: 2
OS2_WeightWidthSlopeOnly: 0
OS2_UseTypoMetrics: 0
CreationTime: 1570245179
ModificationTime: 1572317805
PfmFamily: 81
TTFWeight: 400
TTFWidth: 5
LineGap: 170
VLineGap: 0
Panose: 0 0 0 0 0 0 0 0 0 0
OS2TypoAscent: 1024
OS2TypoAOffset: 0
OS2TypoDescent: -171
OS2TypoDOffset: 0
OS2TypoLinegap: 170
OS2WinAscent: 1084
OS2WinAOffset: 0
OS2WinDescent: 205
OS2WinDOffset: 0
HheadAscent: 1084
HheadAOffset: 0
HheadDescent: -205
HheadDOffset: 0
OS2SubXSize: 128
OS2SubYSize: 128
OS2SubXOff: 0
OS2SubYOff: -64
OS2SupXSize: 128
OS2SupYSize: 128
OS2SupXOff: 0
OS2SupYOff: 64
OS2StrikeYSize: 51
OS2StrikeYPos: 512
OS2CapHeight: 1024
OS2XHeight: 424
OS2FamilyClass: 2048
OS2Vendor: 'dtyp'
OS2CodePages: 00000001.00000000
OS2UnicodeRanges: 800000a7.0000004a.00000000.00000000
DEI: 91125
ShortTable: maxp 16
  1
  0
  237
  105
  4
  0
  0
  2
  128
  64
  128
  128
  128
  128
  128
  0
EndShort
LangName: 1033 "+AKkA Copyright Adventure +AKkA (Neale Davidson). 2011. All Rights Reserved, FFDec v.11.2.0." "" "Regular" "dtype: FFDec v.11.2.0: Adventure Regular: Version 1.0: Adventure +AKkA (Neale Davidson). 2011. All Rights Reserved" "" "Version 1.0" "" "n/a" "FFDec v.11.2.0"
Encoding: UnicodeBmp
UnicodeInterp: none
NameList: AGL For New Fonts
DisplaySize: -128
AntiAlias: 1
FitToEm: 0
WinInfo: 40 8 2
BeginChars: 65539 237

StartChar: .notdef
Encoding: 65536 -1 0
Width: 512
Flags: W
LayerCount: 2
Fore
SplineSet
0 683 m 1,0,-1
 438 683 l 1,1,-1
 438 0 l 1,2,-1
 0 0 l 1,3,-1
 0 683 l 1,0,-1
365 610 m 1,4,-1
 73 610 l 1,5,-1
 73 73 l 1,6,-1
 365 73 l 1,7,-1
 365 610 l 1,4,-1
EndSplineSet
Validated: 1
EndChar

StartChar: exclam
Encoding: 33 33 4
Width: 250
Flags: W
LayerCount: 2
Fore
SplineSet
398 795 m 1,0,1
 383 693 383 693 310 441 c 1,2,-1
 261 288 l 1,3,-1
 85 272 l 1,4,-1
 181 585 l 1,5,6
 202 672 202 672 231 774 c 1,7,8
 293 784 293 784 398 795 c 1,0,1
57 180 m 1,9,10
 238 203 l 1,11,12
 225 159 225 159 199 54 c 1,13,-1
 193 53 l 2,14,15
 113 37 113 37 9 9 c 1,16,17
 32 100 32 100 57 180 c 1,9,10
EndSplineSet
Validated: 1
EndChar

StartChar: quotedbl
Encoding: 34 34 5
Width: 475
Flags: W
LayerCount: 2
Fore
SplineSet
415 706 m 1,0,1
 523 775 523 775 588 775 c 0,2,3
 600 775 600 775 610 770 c 1,4,5
 578 663 578 663 557 593 c 1,6,7
 453 533 453 533 357 470 c 1,8,9
 388 602 388 602 415 706 c 1,0,1
195 706 m 1,10,11
 303 775 303 775 368 775 c 0,12,13
 380 775 380 775 390 770 c 1,14,15
 358 663 358 663 337 593 c 1,16,17
 233 533 233 533 137 470 c 1,18,19
 168 602 168 602 195 706 c 1,10,11
EndSplineSet
Validated: 1
EndChar

StartChar: numbersign
Encoding: 35 35 6
Width: 457
Flags: W
LayerCount: 2
Fore
SplineSet
335 498 m 1,0,1
 283 497 l 1,2,-1
 264 445 l 1,3,-1
 316 447 l 1,4,5
 324 469 324 469 335 498 c 1,0,1
316 585 m 1,6,-1
 366 586 l 1,7,8
 386 641 386 641 417 713 c 1,9,-1
 527 719 l 1,10,-1
 478 590 l 1,11,-1
 535 592 l 1,12,-1
 503 504 l 1,13,-1
 445 502 l 1,14,-1
 426 450 l 1,15,-1
 495 452 l 1,16,-1
 463 365 l 1,17,-1
 393 363 l 1,18,-1
 342 228 l 1,19,-1
 220 209 l 1,20,21
 223 218 223 218 240 259 c 2,22,-1
 280 359 l 1,23,-1
 231 357 l 1,24,-1
 182 228 l 1,25,-1
 60 209 l 1,26,27
 63 218 63 218 80 259 c 2,28,-1
 118 354 l 1,29,-1
 71 352 l 1,30,-1
 107 440 l 1,31,-1
 154 442 l 1,32,33
 162 464 162 464 173 493 c 1,34,-1
 111 491 l 1,35,-1
 147 580 l 1,36,-1
 205 581 l 1,37,38
 224 637 224 637 257 713 c 1,39,-1
 367 719 l 1,40,-1
 316 585 l 1,6,-1
EndSplineSet
Validated: 1
EndChar

StartChar: dollar
Encoding: 36 36 7
Width: 391
Flags: W
VStem: 102 139<534.116 617.787> 242 143<342.429 418.685>
LayerCount: 2
Fore
SplineSet
247 202 m 1,0,1
 225 124 225 124 216 90 c 1,2,-1
 212 90 l 1,3,4
 148 77 148 77 65 55 c 1,5,6
 76 100 76 100 90 151 c 1,7,8
 74 148 74 148 56 144 c 1,9,-1
 22 273 l 1,10,11
 75 279 75 279 141 291 c 1,12,13
 242 339 242 339 242 387 c 2,14,-1
 242 392 l 2,15,16
 242 416 242 416 147 492 c 1,17,18
 102 551 102 551 102 595 c 0,19,20
 102 688 102 688 186 729 c 0,21,22
 217 744 217 744 267 758 c 1,23,24
 278 803 278 803 289 852 c 1,25,26
 339 860 339 860 423 869 c 1,27,28
 423 847 423 847 405 771 c 1,29,-1
 461 662 l 1,30,31
 421 661 421 661 392 656 c 0,32,33
 281 642 281 642 251 608 c 0,34,35
 241 596 241 596 241 583 c 0,36,37
 241 561 241 561 268 528 c 0,38,39
 385 408 385 408 385 372 c 2,40,-1
 385 362 l 1,41,42
 375 271 375 271 259 208 c 0,43,44
 253 205 253 205 247 202 c 1,0,1
EndSplineSet
Validated: 1
EndChar

StartChar: percent
Encoding: 37 37 8
Width: 462
Flags: W
HStem: 163 118<326.565 386.009> 649 118<256.379 320.825>
VStem: 137 111<568.566 640.812> 395 113<288.073 365.199>
LayerCount: 2
Fore
SplineSet
221 449 m 1,0,1
 189 458 189 458 168 484 c 0,2,3
 137 522 137 522 137 582 c 0,4,5
 137 595 137 595 138 609 c 0,6,7
 146 673 146 673 194 720 c 0,8,9
 244 767 244 767 308 767 c 0,10,11
 405 767 405 767 445 701 c 1,12,-1
 426 689 l 1,13,14
 429 682 429 682 431 676 c 1,15,16
 470 717 470 717 517 765 c 1,17,-1
 534 766 l 2,18,19
 579 772 579 772 638 775 c 1,20,21
 613 745 613 745 571 698 c 2,22,-1
 387 485 l 1,23,24
 479 483 479 483 517 420 c 1,25,-1
 499 408 l 1,26,27
 508 383 508 383 508 364 c 0,28,29
 508 351 508 351 504 328 c 0,30,31
 491 254 491 254 449 211 c 0,32,33
 403 163 403 163 331 163 c 0,34,35
 273 163 273 163 240 203 c 0,36,37
 215 234 215 234 211 281 c 1,38,-1
 137 197 l 1,39,-1
 -14 160 l 1,40,41
 104 318 104 318 221 449 c 1,0,1
394 324 m 1,42,43
 395 328 395 328 395 331 c 0,44,45
 395 342 395 342 388 348 c 1,46,-1
 394 351 l 1,47,48
 386 367 386 367 368 367 c 0,49,50
 349 367 349 367 336 355 c 0,51,52
 324 344 324 344 321 324 c 0,53,54
 321 320 321 320 321 317 c 0,55,56
 321 302 321 302 329 292 c 0,57,58
 338 281 338 281 352 281 c 0,59,60
 369 281 369 281 381 295 c 0,61,62
 391 307 391 307 394 324 c 1,42,43
322 606 m 1,63,64
 322 610 322 610 322 612 c 0,65,66
 322 623 322 623 316 629 c 1,67,-1
 322 633 l 1,68,69
 314 649 314 649 295 649 c 256,70,71
 276 649 276 649 264 636 c 0,72,73
 252 625 252 625 249 606 c 0,74,75
 248 601 248 601 248 598 c 0,76,77
 248 584 248 584 257 573 c 256,78,79
 266 562 266 562 280 562 c 0,80,81
 297 562 297 562 308 576 c 0,82,83
 319 588 319 588 322 606 c 1,63,64
EndSplineSet
Validated: 1
EndChar

StartChar: ampersand
Encoding: 38 38 9
Width: 525
Flags: W
HStem: 181 130<226.619 370.933> 444 98<343.656 400>
VStem: 70 146<261.5 363.774> 195 141<520.5 601.784>
LayerCount: 2
Fore
SplineSet
449 542 m 1,0,1
 454 565 454 565 459 592 c 1,2,-1
 589 602 l 1,3,4
 583 570 583 570 576 541 c 1,5,-1
 611 541 l 1,6,-1
 575 444 l 1,7,-1
 553 444 l 1,8,9
 518 321 518 321 478 274 c 0,10,11
 395 181 395 181 258 181 c 2,12,-1
 252 181 l 2,13,14
 188 181 188 181 139 202 c 0,15,16
 70 232 70 232 70 291 c 0,17,18
 70 347 70 347 127 410 c 0,19,20
 156 442 156 442 213 481 c 1,21,22
 195 505 195 505 195 536 c 0,23,24
 195 582 195 582 247 641 c 0,25,26
 322 727 322 727 435 760 c 0,27,28
 471 771 471 771 515 775 c 0,29,30
 521 774 521 774 535 773 c 2,31,-1
 550 771 l 2,32,33
 567 769 567 769 583 760 c 0,34,35
 608 750 608 750 625 735 c 1,36,-1
 521 652 l 1,37,38
 504 665 504 665 472 676 c 1,39,40
 402 672 402 672 356 621 c 0,41,42
 336 600 336 600 336 583 c 0,43,44
 336 559 336 559 376 546 c 0,45,46
 388 542 388 542 400 542 c 2,47,-1
 449 542 l 1,0,1
426 444 m 1,48,49
 357 444 l 2,50,51
 339 444 339 444 330 441 c 0,52,53
 271 428 271 428 237 390 c 0,54,55
 216 367 216 367 216 352 c 0,56,57
 216 339 216 339 230 330 c 0,58,59
 241 319 241 319 294 311 c 1,60,61
 363 314 363 314 383 347 c 1,62,63
 405 370 405 370 426 444 c 1,48,49
EndSplineSet
Validated: 1
EndChar

StartChar: quotesingle
Encoding: 39 39 10
Width: 250
Flags: W
LayerCount: 2
Fore
SplineSet
195 706 m 1,0,1
 303 775 303 775 368 775 c 0,2,3
 380 775 380 775 390 770 c 1,4,5
 358 663 358 663 337 593 c 1,6,7
 233 533 233 533 137 470 c 1,8,9
 168 602 168 602 195 706 c 1,0,1
EndSplineSet
Validated: 1
EndChar

StartChar: parenleft
Encoding: 40 40 11
Width: 500
Flags: W
VStem: 114 146<234.947 472.994>
LayerCount: 2
Fore
SplineSet
573 770 m 1,0,1
 283 597 283 597 262 403 c 0,2,3
 260 382 260 382 260 361 c 0,4,5
 260 185 260 185 421 30 c 1,6,-1
 285 0 l 1,7,8
 114 174 114 174 114 358 c 0,9,10
 114 384 114 384 117 411 c 0,11,12
 159 608 159 608 375 740 c 1,13,-1
 573 770 l 1,0,1
EndSplineSet
Validated: 1
EndChar

StartChar: parenright
Encoding: 41 41 12
Width: 500
Flags: W
VStem: 313 146<297.006 535.053>
LayerCount: 2
Fore
SplineSet
0 0 m 1,0,1
 290 173 290 173 311 367 c 0,2,3
 313 388 313 388 313 409 c 0,4,5
 313 585 313 585 152 740 c 1,6,-1
 288 770 l 1,7,8
 459 596 459 596 459 412 c 0,9,10
 459 386 459 386 456 359 c 0,11,12
 414 162 414 162 198 30 c 1,13,-1
 0 0 l 1,0,1
EndSplineSet
Validated: 1
EndChar

StartChar: asterisk
Encoding: 42 42 13
Width: 471
Flags: W
HStem: 553 109<419.509 494.965>
LayerCount: 2
Fore
SplineSet
233 526 m 1,0,1
 212 538 212 538 185 553 c 0,2,3
 154 570 154 570 131 588 c 1,4,5
 135 648 135 648 150 708 c 1,6,7
 175 690 175 690 253 642 c 1,8,-1
 257 639 l 1,9,10
 262 663 262 663 268 693 c 0,11,12
 275 728 275 728 284 756 c 1,13,14
 343 770 343 770 404 775 c 1,15,16
 395 745 395 745 373 656 c 2,17,-1
 372 652 l 1,18,19
 396 655 396 655 426 658 c 0,20,21
 461 662 461 662 491 662 c 1,22,23
 523 611 523 611 546 553 c 1,24,25
 515 553 515 553 423 547 c 1,26,-1
 419 546 l 1,27,28
 429 524 429 524 442 496 c 0,29,30
 457 464 457 464 465 436 c 1,31,32
 427 390 427 390 379 350 c 1,33,34
 369 380 369 380 335 465 c 1,35,-1
 333 468 l 1,36,37
 315 452 315 452 293 432 c 0,38,39
 267 407 267 407 243 390 c 1,40,41
 187 413 187 413 135 446 c 1,42,43
 160 464 160 464 230 523 c 1,44,-1
 233 526 l 1,0,1
EndSplineSet
Validated: 1
EndChar

StartChar: plus
Encoding: 43 43 14
Width: 538
Flags: W
LayerCount: 2
Fore
SplineSet
246 447 m 1,0,-1
 272 539 l 1,1,-1
 439 548 l 1,2,-1
 412 454 l 1,3,-1
 527 459 l 1,4,-1
 488 349 l 1,5,-1
 373 344 l 1,6,-1
 340 261 l 1,7,-1
 175 251 l 1,8,-1
 209 338 l 1,9,-1
 98 334 l 1,10,-1
 144 444 l 1,11,-1
 246 447 l 1,0,-1
EndSplineSet
Validated: 1
EndChar

StartChar: comma
Encoding: 44 44 15
Width: 250
Flags: W
LayerCount: 2
Fore
SplineSet
57 180 m 1,0,1
 238 203 l 1,2,3
 225 159 225 159 145 -50 c 1,4,-1
 135 -70 l 1,5,6
 90 -120 90 -120 -25 -150 c 1,7,8
 32 100 32 100 57 180 c 1,0,1
EndSplineSet
Validated: 1
EndChar

StartChar: hyphen
Encoding: 45 45 16
Width: 450
Flags: W
HStem: 363 110<129 270.368> 378 110<329.499 474>
LayerCount: 2
Fore
SplineSet
129 473 m 1,0,-1
 513 488 l 1,1,-1
 474 378 l 1,2,-1
 84 363 l 1,3,-1
 129 473 l 1,0,-1
EndSplineSet
Validated: 1
EndChar

StartChar: period
Encoding: 46 46 17
Width: 250
Flags: W
LayerCount: 2
Fore
SplineSet
57 180 m 1,0,1
 238 203 l 1,2,3
 225 159 225 159 199 54 c 1,4,-1
 187 30 l 1,5,6
 128 30 128 30 9 9 c 1,7,8
 32 100 32 100 57 180 c 1,0,1
EndSplineSet
Validated: 1
EndChar

StartChar: slash
Encoding: 47 47 18
Width: 625
Flags: W
LayerCount: 2
Fore
SplineSet
452 557 m 1,0,1
 530 641 530 641 650 762 c 1,2,-1
 671 764 l 2,3,4
 727 771 727 771 801 775 c 1,5,6
 770 738 770 738 718 679 c 2,7,8
 484 409 l 1,9,-1
 329 228 l 1,10,-1
 175 53 l 1,11,-1
 -14 6 l 1,12,13
 147 220 147 220 304 395 c 2,14,-1
 452 557 l 1,0,1
EndSplineSet
Validated: 1
EndChar

StartChar: zero
Encoding: 48 48 19
Width: 554
Flags: W
HStem: 162 120<256.704 408.269> 640 135<299.699 468.008>
VStem: 79 118<347.616 430 461 527.748> 506 139<413.293 578.849>
LayerCount: 2
Fore
SplineSet
503 461 m 1,0,1
 506 478 506 478 506 489 c 0,2,3
 506 535 506 535 478 560 c 1,4,-1
 503 574 l 1,5,6
 471 640 471 640 393 640 c 0,7,8
 314 640 314 640 261 590 c 0,9,10
 212 541 212 541 200 461 c 0,11,12
 197 443 197 443 197 430 c 0,13,14
 197 370 197 370 232 327 c 0,15,16
 269 282 269 282 328 282 c 0,17,18
 399 282 399 282 447 338 c 0,19,20
 490 387 490 387 503 461 c 1,0,1
663 651 m 1,21,22
 628 628 l 1,23,24
 645 580 645 580 645 545 c 0,25,26
 645 520 645 520 637 476 c 0,27,28
 613 336 613 336 533 253 c 0,29,30
 446 162 446 162 310 162 c 0,31,32
 199 162 199 162 136 239 c 0,33,34
 79 310 79 310 79 424 c 0,35,36
 79 448 79 448 81 476 c 0,37,38
 96 598 96 598 188 686 c 0,39,40
 282 775 282 775 403 775 c 0,41,42
 587 775 587 775 663 651 c 1,21,22
EndSplineSet
Validated: 1
EndChar

StartChar: one
Encoding: 49 49 20
Width: 225
Flags: W
LayerCount: 2
Fore
SplineSet
403 775 m 1,0,-1
 173 161 l 1,1,-1
 20 137 l 1,2,3
 24 148 24 148 45 200 c 2,4,-1
 118 380 l 2,5,6
 138 429 138 429 188 563 c 1,7,8
 213 645 213 645 267 768 c 1,9,-1
 403 775 l 1,0,-1
EndSplineSet
Validated: 1
EndChar

StartChar: two
Encoding: 50 50 21
Width: 500
Flags: W
HStem: 638 137<326 410.424> 661 114<326 497.797>
VStem: 511 128<557.396 645.464>
LayerCount: 2
Fore
SplineSet
236 280 m 1,0,1
 524 316 l 1,2,3
 500 257 500 257 476 190 c 1,4,-1
 45 156 l 1,5,6
 83 254 83 254 117 300 c 0,7,8
 185 392 185 392 241 438 c 0,9,10
 332 511 332 511 465 546 c 0,11,12
 511 558 511 558 511 607 c 0,13,14
 511 643 511 643 463 659 c 0,15,16
 457 661 457 661 436 661 c 0,17,18
 354 661 354 661 274 638 c 1,19,20
 292 677 292 677 318 745 c 0,21,22
 326 763 326 763 326 775 c 1,23,-1
 402 775 l 2,24,25
 451 775 451 775 476 767 c 1,26,27
 509 764 509 764 554 745 c 0,28,29
 639 710 639 710 639 627 c 0,30,31
 639 563 639 563 585 513 c 0,32,33
 500 433 500 433 369 402 c 1,34,35
 323 386 323 386 274 335 c 0,36,37
 254 314 254 314 236 280 c 1,0,1
EndSplineSet
Validated: 1
EndChar

StartChar: three
Encoding: 51 51 22
Width: 500
Flags: W
HStem: 430 97<337 390.355> 666 109<326 475.25>
VStem: 407 128<331.966 414.941> 494 128<560.211 645.464>
LayerCount: 2
Fore
SplineSet
304 430 m 1,0,1
 337 527 l 1,2,3
 494 530 494 530 494 607 c 0,4,5
 494 643 494 643 446 659 c 0,6,7
 427 666 427 666 326 666 c 1,8,9
 326 684 326 684 317 720 c 256,10,11
 308 756 308 756 308 775 c 1,12,-1
 384 775 l 2,13,14
 433 775 433 775 459 767 c 1,15,16
 491 764 491 764 537 745 c 0,17,18
 622 710 622 710 622 627 c 0,19,20
 622 534 622 534 514 466 c 1,21,22
 535 433 535 433 535 395 c 0,23,24
 535 327 535 327 482 272 c 0,25,26
 439 227 439 227 369 198 c 0,27,28
 305 173 305 173 199 166 c 2,29,-1
 50 156 l 1,30,31
 53 164 53 164 91 235 c 0,32,33
 101 254 101 254 119 295 c 1,34,35
 145 293 145 293 193 293 c 0,36,37
 407 293 407 293 407 375 c 0,38,39
 407 411 407 411 360 427 c 0,40,41
 349 430 349 430 304 430 c 1,0,1
EndSplineSet
Validated: 1
EndChar

StartChar: four
Encoding: 52 52 23
Width: 500
Flags: W
LayerCount: 2
Fore
SplineSet
290 459 m 1,0,1
 421 478 l 1,2,-1
 424 458 l 1,3,4
 477 621 477 621 547 775 c 1,5,-1
 668 774 l 1,6,7
 589 594 589 594 452 184 c 1,8,-1
 301 166 l 1,9,10
 357 314 357 314 381 353 c 1,11,-1
 90 323 l 1,12,13
 200 550 200 550 319 757 c 1,14,-1
 444 757 l 1,15,16
 360 600 360 600 290 459 c 1,0,1
EndSplineSet
Validated: 1
EndChar

StartChar: five
Encoding: 53 53 24
Width: 525
Flags: W
HStem: 635 140<357.52 622>
VStem: 417 128<318.614 391.139>
LayerCount: 2
Fore
SplineSet
296 761 m 1,0,1
 340 761 l 2,2,3
 351 761 351 761 414 764 c 0,4,5
 517 769 517 769 668 775 c 1,6,-1
 622 635 l 1,7,-1
 589 635 l 2,8,9
 427 635 427 635 336 622 c 1,10,-1
 367 604 l 1,11,12
 357 583 357 583 348 556 c 0,13,14
 346 548 346 548 339 530 c 1,15,16
 430 510 430 510 486 491 c 1,17,18
 543 453 543 453 545 379 c 0,19,20
 545 364 545 364 541 346 c 0,21,22
 519 239 519 239 359 177 c 0,23,24
 295 152 295 152 189 145 c 2,25,-1
 40 135 l 1,26,27
 51 157 51 157 80 216 c 0,28,29
 87 232 87 232 103 272 c 1,30,31
 313 278 313 278 351 294 c 0,32,33
 417 318 417 318 417 359 c 0,34,35
 417 395 417 395 350 405 c 1,36,37
 334 413 334 413 298 422 c 1,38,-1
 145 431 l 1,39,40
 208 601 208 601 296 761 c 1,0,1
EndSplineSet
Validated: 1
EndChar

StartChar: six
Encoding: 54 54 25
Width: 500
Flags: W
HStem: 156 122<212.985 359.144> 449 112<284.904 341 350 418.825>
VStem: 85 109<293.602 397.995> 441 102<333.691 426.825>
LayerCount: 2
Fore
SplineSet
205 616 m 1,0,1
 283 725 283 725 427 765 c 1,2,3
 464 771 464 771 508 775 c 1,4,5
 557 768 557 768 596 753 c 0,6,7
 618 744 618 744 627 733 c 1,8,-1
 578 626 l 1,9,10
 578 649 578 649 499 671 c 1,11,12
 420 666 420 666 344 622 c 0,13,14
 281 583 281 583 263 529 c 1,15,16
 299 547 299 547 341 556 c 0,17,18
 369 561 369 561 393 561 c 0,19,20
 447 561 447 561 483 540 c 0,21,22
 502 528 502 528 532 501 c 1,23,24
 543 452 543 452 543 415 c 0,25,26
 538 289 538 289 440 219 c 0,27,28
 349 156 349 156 215 156 c 1,29,30
 85 176 85 176 85 306 c 0,31,32
 85 401 85 401 138 513 c 0,33,34
 166 569 166 569 205 616 c 1,0,1
350 449 m 1,35,36
 303 449 303 449 294 446 c 0,37,38
 243 433 243 433 209 395 c 1,39,40
 194 362 194 362 194 339 c 0,41,42
 194 306 194 306 221 290 c 0,43,44
 235 281 235 281 262 278 c 0,45,46
 326 278 326 278 375 298 c 0,47,48
 397 308 397 308 420 334 c 0,49,50
 441 357 441 357 441 394 c 0,51,52
 441 413 441 413 414 430 c 0,53,54
 391 444 391 444 368 446 c 0,55,56
 365 446 365 446 359 448 c 0,57,58
 353 449 353 449 350 449 c 1,35,36
EndSplineSet
Validated: 1
EndChar

StartChar: seven
Encoding: 55 55 26
Width: 475
Flags: W
LayerCount: 2
Fore
SplineSet
307 525 m 1,0,1
 328 546 328 546 363 578 c 0,2,3
 418 629 418 629 447 661 c 1,4,5
 429 660 429 660 352 652 c 2,6,-1
 252 642 l 2,7,8
 226 640 226 640 172 633 c 1,9,-1
 208 753 l 1,10,11
 291 760 291 760 406 766 c 0,12,13
 475 770 475 770 629 775 c 1,14,15
 592 669 l 1,16,17
 558 608 558 608 485 532 c 1,18,-1
 514 533 l 1,19,-1
 482 445 l 1,20,-1
 381 437 l 1,21,22
 288 357 288 357 215 191 c 1,23,-1
 75 160 l 1,24,25
 163 356 163 356 220 435 c 1,26,-1
 170 433 l 1,27,-1
 206 521 l 1,28,-1
 307 525 l 1,0,1
EndSplineSet
Validated: 1
EndChar

StartChar: eight
Encoding: 56 56 27
Width: 550
Flags: W
HStem: 181 128<238.527 412.992> 444 97<354.231 454>
VStem: 80 146<261.5 363.774> 205 141<520.5 601.784> 463 127<346.172 433.137> 549 128<575.215 654.653>
LayerCount: 2
Fore
SplineSet
525 775 m 1,0,1
 531 774 531 774 545 773 c 2,2,-1
 560 771 l 2,3,4
 577 769 577 769 593 760 c 0,5,6
 677 725 677 725 677 641 c 0,7,8
 677 549 677 549 570 481 c 1,9,10
 590 447 590 447 590 410 c 0,11,12
 590 314 590 314 493 244 c 0,13,14
 405 181 405 181 268 181 c 2,15,-1
 262 181 l 2,16,17
 198 181 198 181 149 202 c 0,18,19
 80 232 80 232 80 291 c 0,20,21
 80 347 80 347 137 410 c 0,22,23
 166 442 166 442 223 481 c 1,24,25
 205 505 205 505 205 536 c 0,26,27
 205 582 205 582 257 641 c 0,28,29
 332 727 332 727 445 760 c 0,30,31
 481 771 481 771 525 775 c 1,0,1
482 676 m 1,32,33
 412 672 412 672 366 621 c 0,34,35
 346 600 346 600 346 583 c 0,36,37
 346 559 346 559 386 546 c 0,38,39
 401 541 401 541 430 541 c 0,40,41
 465 541 465 541 484 551 c 0,42,43
 490 554 490 554 504 561 c 0,44,45
 549 582 549 582 549 621 c 0,46,47
 549 654 549 654 482 676 c 1,32,33
397 444 m 1,48,49
 350 444 350 444 340 441 c 0,50,51
 281 428 281 428 247 390 c 0,52,53
 226 367 226 367 226 352 c 0,54,55
 226 339 226 339 240 330 c 0,56,57
 251 319 251 319 304 311 c 0,58,59
 320 309 320 309 327 309 c 0,60,61
 373 309 373 309 413 327 c 0,62,63
 463 351 463 351 463 390 c 0,64,65
 463 435 463 435 416 441 c 0,66,67
 413 441 413 441 407 443 c 0,68,69
 400 444 400 444 397 444 c 1,48,49
EndSplineSet
Validated: 1
EndChar

StartChar: nine
Encoding: 57 57 28
Width: 525
Flags: W
HStem: 394 107<286.735 412.871> 656 119<353.363 494.355>
VStem: 150 127<512.058 593.662> 510 120<550.533 629.828>
LayerCount: 2
Fore
SplineSet
226 163 m 1,0,1
 350 305 350 305 414 416 c 1,2,3
 380 394 380 394 305 394 c 0,4,5
 252 394 252 394 216 416 c 0,6,7
 195 428 195 428 166 454 c 1,8,9
 150 505 150 505 150 536 c 0,10,11
 150 602 150 602 198 657 c 0,12,13
 244 714 244 714 312 742 c 0,14,15
 388 774 388 774 478 775 c 2,16,-1
 479 775 l 2,17,18
 551 775 551 775 590 734 c 0,19,20
 630 692 630 692 630 620 c 0,21,22
 630 540 630 540 583 463 c 0,23,24
 511 351 511 351 369 149 c 1,25,-1
 226 163 l 1,0,1
344 501 m 1,26,27
 386 501 386 501 400 503 c 0,28,29
 460 520 460 520 494 556 c 0,30,31
 510 574 510 574 510 596 c 0,32,33
 510 607 510 607 507 616 c 0,34,35
 489 650 489 650 451 656 c 1,36,37
 377 656 377 656 323 615 c 0,38,39
 277 579 277 579 277 556 c 0,40,41
 277 510 277 510 325 503 c 0,42,43
 328 503 328 503 334 502 c 256,44,45
 340 501 340 501 344 501 c 1,26,27
EndSplineSet
Validated: 1
EndChar

StartChar: colon
Encoding: 58 58 29
Width: 325
Flags: W
LayerCount: 2
Fore
SplineSet
57 180 m 1,0,1
 238 203 l 1,2,3
 225 159 225 159 199 54 c 1,4,-1
 187 30 l 1,5,6
 128 30 128 30 9 9 c 1,7,8
 32 100 32 100 57 180 c 1,0,1
130 490 m 1,9,-1
 312 513 l 1,10,11
 300 473 300 473 272 364 c 1,12,-1
 261 340 l 1,13,14
 201 340 201 340 83 319 c 1,15,16
 106 409 106 409 130 490 c 1,9,-1
EndSplineSet
Validated: 1
EndChar

StartChar: semicolon
Encoding: 59 59 30
Width: 250
Flags: W
LayerCount: 2
Fore
SplineSet
57 180 m 1,0,1
 238 203 l 1,2,3
 225 159 225 159 145 -50 c 1,4,-1
 135 -70 l 1,5,6
 90 -120 90 -120 -25 -150 c 1,7,8
 32 100 32 100 57 180 c 1,0,1
130 490 m 1,9,-1
 312 513 l 1,10,11
 300 473 300 473 272 364 c 1,12,-1
 261 340 l 1,13,14
 201 340 201 340 83 319 c 1,15,16
 106 409 106 409 130 490 c 1,9,-1
EndSplineSet
Validated: 1
EndChar

StartChar: less
Encoding: 60 60 31
Width: 600
Flags: W
LayerCount: 2
Fore
SplineSet
146 321 m 1,0,-1
 144 320 l 1,1,-1
 189 431 l 1,2,-1
 588 596 l 1,3,-1
 549 486 l 1,4,-1
 281 376 l 1,5,-1
 473 272 l 1,6,-1
 434 162 l 1,7,-1
 144 317 l 1,8,-1
 146 321 l 1,0,-1
EndSplineSet
Validated: 1
EndChar

StartChar: equal
Encoding: 61 61 32
Width: 475
Flags: W
HStem: 247 110<119 260.368> 262 110<319.499 464> 420 111<169 298.72> 436 110<369.499 514>
LayerCount: 2
Fore
SplineSet
119 357 m 1,0,-1
 503 372 l 1,1,-1
 464 262 l 1,2,-1
 74 247 l 1,3,-1
 119 357 l 1,0,-1
169 531 m 1,4,-1
 553 546 l 1,5,-1
 514 436 l 1,6,-1
 124 420 l 1,7,-1
 169 531 l 1,4,-1
EndSplineSet
Validated: 1
EndChar

StartChar: greater
Encoding: 62 62 33
Width: 600
Flags: W
LayerCount: 2
Fore
SplineSet
587 437 m 1,0,-1
 588 438 l 1,1,-1
 544 327 l 1,2,-1
 144 162 l 1,3,-1
 184 272 l 1,4,-1
 451 382 l 1,5,-1
 259 486 l 1,6,-1
 299 596 l 1,7,-1
 588 441 l 1,8,-1
 587 437 l 1,0,-1
EndSplineSet
Validated: 1
EndChar

StartChar: question
Encoding: 63 63 34
Width: 550
Flags: W
HStem: 632 143<249.428 449.742>
VStem: 472 157<513.644 608.698>
LayerCount: 2
Fore
SplineSet
57 180 m 1,0,1
 238 203 l 1,2,3
 225 159 225 159 199 54 c 1,4,-1
 193 53 l 2,5,6
 113 37 113 37 9 9 c 1,7,8
 32 100 32 100 57 180 c 1,0,1
85 272 m 1,9,10
 128 393 128 393 152 436 c 1,11,12
 355 458 355 458 418 492 c 1,13,14
 472 515 472 515 472 567 c 0,15,16
 472 607 472 607 419 626 c 0,17,18
 403 632 403 632 368 632 c 0,19,20
 284 631 284 631 188 585 c 1,21,22
 152 756 l 1,23,24
 280 775 280 775 304 775 c 0,25,26
 451 774 451 774 524 738 c 0,27,28
 629 685 629 685 629 579 c 1,29,30
 610 433 610 433 429 368 c 1,31,32
 337 340 337 340 278 340 c 1,33,-1
 261 288 l 1,34,-1
 85 272 l 1,9,10
EndSplineSet
Validated: 1
EndChar

StartChar: at
Encoding: 64 64 35
Width: 775
Flags: W
HStem: 49 132<296.167 462.706> 259 255<375.996 501.604> 267 96<503.254 560.615> 577 149<346.171 522.241>
VStem: 96 131<254.489 345 379 448.911> 308 207<364.588 435.371> 575 146<376.498 523.18>
LayerCount: 2
Fore
SplineSet
601 152 m 1,0,1
 503 49 503 49 351 49 c 0,2,3
 228 49 228 49 159 134 c 0,4,5
 96 213 96 213 96 338 c 0,6,7
 96 365 96 365 99 396 c 0,8,9
 115 530 115 530 216 627 c 0,10,11
 321 726 321 726 454 726 c 0,12,13
 572 726 572 726 638 653 c 0,14,15
 667 620 667 620 703 563 c 1,16,17
 721 510 721 510 721 468 c 0,18,19
 721 367 721 367 655 308 c 0,20,21
 611 267 611 267 525 267 c 2,22,-1
 518 267 l 2,23,24
 500 267 500 267 468 264 c 0,25,26
 430 259 430 259 411 259 c 0,27,28
 308 259 308 259 308 343 c 0,29,30
 308 359 308 359 314 386 c 0,31,32
 324 438 324 438 356 474 c 0,33,34
 392 514 392 514 443 514 c 0,35,36
 471 511 471 511 477 509 c 0,37,38
 515 497 515 497 515 442 c 0,39,40
 515 414 515 414 503 363 c 1,41,42
 568 363 568 363 568 410 c 0,43,44
 568 420 568 420 572 442 c 0,45,46
 575 464 575 464 575 475 c 0,47,48
 575 494 575 494 564 504 c 1,49,50
 529 577 529 577 443 577 c 0,51,52
 356 577 356 577 298 521 c 0,53,54
 243 468 243 468 230 379 c 0,55,56
 227 359 227 359 227 345 c 0,57,58
 227 279 227 279 265 231 c 0,59,60
 306 181 306 181 371 181 c 0,61,62
 411 181 411 181 430 186 c 0,63,64
 455 192 455 192 479 217 c 1,65,-1
 601 152 l 1,0,1
EndSplineSet
Validated: 1
EndChar

StartChar: A
Encoding: 65 65 36
Width: 600
Flags: W
VStem: 480 130<366.215 663.717>
LayerCount: 2
Fore
SplineSet
428 254 m 1,0,1
 276 247 l 1,2,3
 229 172 229 172 190 53 c 1,4,-1
 1 6 l 1,5,6
 9 37 9 37 75 170 c 2,7,-1
 120 263 l 2,8,9
 185 394 185 394 323 585 c 0,10,11
 398 691 398 691 472 773 c 1,12,13
 516 774 516 774 601 779 c 1,14,-1
 606 715 l 2,15,16
 610 642 610 642 610 575 c 0,17,18
 610 444 610 444 591 330 c 0,19,20
 584 311 584 311 561 167 c 0,21,22
 551 108 551 108 542 70 c 1,23,-1
 352 24 l 1,24,25
 372 89 372 89 428 254 c 1,0,1
479 615 m 1,26,27
 453 579 453 579 372 441 c 2,28,-1
 327 365 l 1,29,-1
 428 367 l 1,30,-1
 451 349 l 1,31,32
 480 412 480 412 480 580 c 0,33,34
 480 606 480 606 479 615 c 1,26,27
EndSplineSet
Validated: 1
EndChar

StartChar: B
Encoding: 66 66 37
Width: 600
Flags: W
HStem: 343 122<330.014 425.794> 632 143<353.795 529.407>
VStem: 448 158<224.831 320.886> 552 157<514.191 608.976>
LayerCount: 2
Fore
SplineSet
577 377 m 1,0,1
 606 322 606 322 606 300 c 0,2,3
 606 284 606 284 601 261 c 0,4,5
 568 92 568 92 387 51 c 0,6,7
 380 50 380 50 260 37 c 2,8,-1
 141 24 l 2,9,10
 76 17 76 17 19 9 c 1,11,12
 54 144 54 144 103 288 c 0,13,14
 133 378 133 378 197 519 c 0,15,16
 210 547 210 547 235 595 c 1,17,18
 214 589 214 589 198 585 c 1,19,-1
 162 756 l 1,20,21
 290 775 290 775 384 775 c 0,22,23
 405 775 405 775 432 773 c 0,24,25
 506 767 506 767 517 765 c 0,26,27
 556 759 556 759 604 738 c 0,28,29
 709 695 709 695 709 589 c 0,30,31
 709 573 709 573 705 550 c 0,32,33
 685 446 685 446 577 377 c 1,0,1
448 278 m 1,34,35
 448 318 448 318 395 337 c 0,36,37
 379 343 379 343 344 343 c 2,38,-1
 331 343 l 2,39,40
 328 343 328 343 323 344 c 0,41,42
 317 345 317 345 315 345 c 0,43,44
 309 345 309 345 292 340 c 1,45,-1
 282 309 l 1,46,47
 267 279 267 279 246 230 c 0,48,49
 242 221 242 221 226 177 c 1,50,-1
 269 177 l 2,51,52
 335 179 335 179 381 197 c 0,53,54
 448 223 448 223 448 278 c 1,34,35
552 567 m 1,55,56
 552 607 552 607 499 626 c 0,57,58
 483 632 483 632 448 632 c 2,59,-1
 435 632 l 2,60,61
 404 631 404 631 351 616 c 1,62,-1
 387 598 l 1,63,64
 369 566 369 566 350 519 c 0,65,66
 348 516 348 516 330 465 c 1,67,-1
 373 467 l 2,68,69
 440 468 440 468 486 486 c 0,70,71
 552 512 552 512 552 567 c 1,55,56
EndSplineSet
Validated: 1
EndChar

StartChar: C
Encoding: 67 67 38
Width: 675
Flags: W
HStem: 9 150<322.771 482.821> 607 168<377.712 554.615>
VStem: 104 140<248.519 344 383 456.523>
LayerCount: 2
Fore
SplineSet
645 126 m 1,0,1
 541 9 541 9 378 9 c 0,2,3
 246 9 246 9 172 105 c 0,4,5
 104 194 104 194 104 336 c 0,6,7
 104 367 104 367 107 401 c 0,8,9
 124 553 124 553 233 663 c 0,10,11
 345 775 345 775 488 775 c 0,12,13
 705 775 705 775 795 620 c 1,14,-1
 606 524 l 1,15,16
 568 607 568 607 476 607 c 0,17,18
 383 607 383 607 320 543 c 0,19,20
 261 483 261 483 247 383 c 0,21,22
 244 360 244 360 244 344 c 0,23,24
 244 269 244 269 286 215 c 0,25,26
 330 159 330 159 399 159 c 0,27,28
 475 159 475 159 532 220 c 1,29,-1
 645 126 l 1,0,1
EndSplineSet
Validated: 1
EndChar

StartChar: D
Encoding: 68 68 39
Width: 600
Flags: W
HStem: 641 134<322.257 510.626>
VStem: 536 163<460.795 614.959>
LayerCount: 2
Fore
SplineSet
215 46 m 1,0,1
 177 34 l 1,2,3
 88 22 88 22 9 18 c 1,4,5
 21 54 21 54 75 212 c 0,6,7
 102 290 102 290 157 446 c 0,8,9
 180 509 180 509 233 610 c 1,10,11
 217 599 217 599 188 585 c 1,12,-1
 152 756 l 1,13,14
 280 775 280 775 374 775 c 0,15,16
 395 775 395 775 422 773 c 0,17,18
 496 767 496 767 507 765 c 0,19,20
 546 759 546 759 594 738 c 0,21,22
 699 695 699 695 699 589 c 0,23,24
 699 569 699 569 695 550 c 0,25,26
 652 185 652 185 215 46 c 1,0,1
320 465 m 1,27,-1
 222 199 l 1,28,29
 346 228 346 228 451 335 c 0,30,31
 536 423 536 423 536 518 c 256,32,33
 536 613 536 613 499 626 c 0,34,35
 458 641 458 641 432 641 c 2,36,-1
 430 641 l 2,37,38
 361 638 361 638 321 626 c 1,39,-1
 377 598 l 1,40,41
 370 585 370 585 340 519 c 0,42,43
 334 503 334 503 320 465 c 1,27,-1
EndSplineSet
Validated: 1
EndChar

StartChar: E
Encoding: 69 69 40
Width: 500
Flags: W
HStem: 41 144<227.193 436> 41 131<227.193 436> 345 130<317 464.952> 353 130<339.464 487> 630 145<383.625 652>
LayerCount: 2
Fore
SplineSet
698 775 m 1,0,1
 652 630 l 1,2,-1
 594 630 l 2,3,4
 432 630 432 630 341 622 c 1,5,-1
 372 604 l 1,6,7
 365 588 365 588 335 518 c 0,8,9
 327 500 327 500 317 475 c 1,10,-1
 533 483 l 1,11,-1
 487 353 l 1,12,-1
 275 345 l 1,13,14
 252 277 252 277 224 172 c 1,15,16
 311 177 311 177 484 185 c 1,17,-1
 436 41 l 1,18,19
 391 41 391 41 358 41 c 2,20,-1
 329 41 l 2,21,22
 219 41 219 41 5 6 c 1,23,-1
 5 8 l 2,24,25
 5 15 5 15 32 109 c 0,26,27
 63 217 63 217 87 286 c 0,28,29
 128 401 128 401 181 518 c 0,30,31
 201 562 201 562 226 609 c 1,32,33
 173 603 173 603 127 598 c 1,34,-1
 171 748 l 1,35,36
 275 756 275 756 419 764 c 0,37,38
 505 769 505 769 698 775 c 1,0,1
EndSplineSet
Validated: 1
EndChar

StartChar: F
Encoding: 70 70 41
Width: 500
Flags: W
HStem: 345 130<312 459.952> 353 130<334.464 482> 630 145<378.625 647>
LayerCount: 2
Fore
SplineSet
188 33 m 1,0,1
 105 24 105 24 0 6 c 1,2,-1
 0 8 l 2,3,4
 0 15 0 15 27 109 c 0,5,6
 58 217 58 217 82 286 c 0,7,8
 123 401 123 401 176 518 c 0,9,10
 196 562 196 562 221 609 c 1,11,12
 168 603 168 603 122 598 c 1,13,-1
 166 748 l 1,14,15
 270 756 270 756 414 764 c 0,16,17
 500 769 500 769 693 775 c 1,18,-1
 647 630 l 1,19,-1
 589 630 l 2,20,21
 427 630 427 630 336 622 c 1,22,-1
 367 604 l 1,23,24
 360 588 360 588 330 518 c 0,25,26
 322 500 322 500 312 475 c 1,27,-1
 528 483 l 1,28,-1
 482 353 l 1,29,-1
 270 345 l 1,30,31
 258 309 258 309 251 288 c 0,32,33
 206 158 206 158 188 33 c 1,0,1
EndSplineSet
Validated: 1
EndChar

StartChar: G
Encoding: 71 71 42
Width: 725
Flags: W
HStem: 9 149<318.841 480.349> 606 169<373.051 551.365>
VStem: 100 140<248.519 343 382 452.009>
LayerCount: 2
Fore
SplineSet
487 25 m 1,0,1
 434 9 434 9 374 9 c 0,2,3
 242 9 242 9 168 105 c 0,4,5
 100 194 100 194 100 336 c 0,6,7
 100 366 100 366 104 401 c 0,8,9
 121 553 121 553 230 663 c 0,10,11
 341 775 341 775 485 775 c 0,12,13
 702 775 702 775 792 619 c 1,14,-1
 603 523 l 1,15,16
 564 606 564 606 473 606 c 0,17,18
 379 606 379 606 317 543 c 0,19,20
 258 482 258 482 244 382 c 0,21,22
 240 359 240 359 240 343 c 0,23,24
 240 268 240 268 282 215 c 0,25,26
 326 158 326 158 396 158 c 0,27,28
 471 158 471 158 527 218 c 1,29,-1
 573 361 l 1,30,-1
 749 382 l 1,31,32
 717 290 717 290 703 219 c 1,33,34
 682 147 682 147 671 101 c 2,35,-1
 653 30 l 1,36,37
 591 20 591 20 486 9 c 1,38,39
 486 16 486 16 487 25 c 1,0,1
487 220 m 1,40,-1
 486 219 l 1,41,-1
 495 241 l 2,42,43
 491 230 491 230 488 219 c 1,44,-1
 487 220 l 1,40,-1
EndSplineSet
Validated: 1
EndChar

StartChar: H
Encoding: 72 72 43
Width: 625
Flags: W
LayerCount: 2
Fore
SplineSet
815 775 m 1,0,1
 748 653 748 653 674 485 c 0,2,3
 648 425 648 425 596 254 c 0,4,5
 582 208 582 208 541 70 c 1,6,-1
 352 24 l 1,7,8
 387 139 387 139 427 254 c 0,9,10
 431 264 431 264 451 318 c 1,11,-1
 257 296 l 1,12,-1
 244 254 l 2,13,14
 228 202 228 202 190 52 c 1,15,-1
 0 6 l 1,16,17
 33 126 33 126 75 254 c 0,18,19
 107 351 107 351 169 485 c 0,20,21
 217 588 217 588 314 762 c 1,22,-1
 333 764 l 2,23,24
 390 770 390 770 464 775 c 1,25,26
 411 679 411 679 323 485 c 0,27,28
 321 481 321 481 306 444 c 1,29,-1
 480 466 l 1,30,-1
 498 432 l 1,31,32
 559 573 559 573 665 762 c 1,33,-1
 685 764 l 2,34,35
 742 770 742 770 815 775 c 1,0,1
EndSplineSet
Validated: 1
EndChar

StartChar: I
Encoding: 73 73 44
Width: 475
Flags: W
HStem: 23 143<325.506 412> 163 21G<333 333.5> 598 150<215 326.135> 628 147<435.986 585>
LayerCount: 2
Fore
SplineSet
149 150 m 1,0,1
 166 207 l 2,2,3
 172 226 172 226 192 286 c 0,4,5
 222 376 222 376 286 518 c 0,6,7
 302 555 302 555 337 622 c 1,8,9
 282 613 282 613 171 598 c 1,10,-1
 215 748 l 1,11,12
 294 755 294 755 413 764 c 0,13,14
 537 774 537 774 631 775 c 1,15,-1
 585 630 l 1,16,17
 489 630 489 630 433 628 c 1,18,-1
 477 604 l 1,19,20
 462 575 462 575 439 518 c 0,21,22
 410 447 410 447 360 286 c 0,23,24
 342 227 342 227 325 163 c 1,25,26
 341 164 341 164 381 166 c 2,27,-1
 458 169 l 1,28,-1
 412 23 l 1,29,30
 295 23 295 23 260 21 c 0,31,32
 202 17 202 17 -2 -10 c 1,33,-1
 42 141 l 1,34,-1
 92 146 l 2,35,36
 114 147 114 147 149 150 c 1,0,1
EndSplineSet
Validated: 1
EndChar

StartChar: J
Encoding: 74 74 45
Width: 575
Flags: W
HStem: -107 160<171.689 277.174> 598 150<423 533.204> 628 147<642.995 793>
LayerCount: 2
Fore
SplineSet
-12 90 m 1,0,1
 152 128 l 1,2,3
 152 97 152 97 170 75 c 256,4,5
 188 53 188 53 218 53 c 0,6,7
 279 59 279 59 320 120 c 0,8,9
 345 154 345 154 389 266 c 0,10,11
 421 345 421 345 452 425 c 0,12,13
 499 534 499 534 544 622 c 1,14,15
 489 613 489 613 379 598 c 1,16,-1
 423 748 l 1,17,18
 501 755 501 755 620 764 c 0,19,20
 744 774 744 774 839 775 c 1,21,-1
 793 630 l 1,22,23
 696 630 696 630 640 628 c 1,24,-1
 683 604 l 1,25,26
 664 564 664 564 646 518 c 0,27,28
 614 438 614 438 546 235 c 0,29,30
 481 40 481 40 384 -42 c 0,31,32
 308 -107 308 -107 185 -107 c 0,33,34
 53 -107 53 -107 6 3 c 0,35,36
 -7 32 -7 32 -12 90 c 1,0,1
EndSplineSet
Validated: 1
EndChar

StartChar: K
Encoding: 75 75 46
Width: 600
Flags: W
VStem: 359 189<68.4685 202.56>
LayerCount: 2
Fore
SplineSet
542 70 m 1,0,1
 352 24 l 1,2,3
 359 57 359 57 359 90 c 0,4,5
 359 153 359 153 336 209 c 0,6,7
 308 277 308 277 257 297 c 1,8,-1
 244 254 l 2,9,10
 229 202 229 202 190 53 c 1,11,-1
 1 6 l 1,12,13
 33 126 33 126 75 254 c 0,14,15
 108 351 108 351 170 486 c 0,16,17
 217 589 217 589 314 762 c 1,18,-1
 333 764 l 2,19,20
 390 771 390 771 464 775 c 1,21,22
 412 680 412 680 323 486 c 0,23,24
 321 481 321 481 307 445 c 1,25,26
 446 503 446 503 574 641 c 0,27,28
 631 702 631 702 665 762 c 1,29,-1
 686 764 l 2,30,31
 742 771 742 771 816 775 c 1,32,33
 744 611 744 611 570 468 c 0,34,35
 481 394 481 394 382 358 c 1,36,37
 446 326 446 326 496 254 c 0,38,39
 548 179 548 179 548 110 c 0,40,41
 548 91 548 91 542 70 c 1,0,1
EndSplineSet
Validated: 1
EndChar

StartChar: L
Encoding: 76 76 47
Width: 500
Flags: W
HStem: 41 144<227.193 436> 41 131<227.193 436>
LayerCount: 2
Fore
SplineSet
317 475 m 1,0,1
 312 457 312 457 291 390 c 2,2,-1
 250 259 l 2,3,4
 233 205 233 205 224 172 c 1,5,6
 311 177 311 177 484 185 c 1,7,-1
 436 41 l 1,8,9
 391 41 391 41 358 41 c 2,10,-1
 329 41 l 2,11,12
 219 41 219 41 5 6 c 1,13,-1
 5 8 l 2,14,15
 5 15 5 15 32 109 c 0,16,17
 63 218 63 218 87 286 c 0,18,19
 128 401 128 401 181 518 c 0,20,21
 189 538 189 538 212 590 c 2,22,-1
 256 693 l 2,23,24
 274 736 274 736 286 756 c 1,25,-1
 317 759 l 2,26,27
 324 758 324 758 332 758 c 0,28,29
 354 758 354 758 387 763 c 2,30,-1
 434 770 l 1,31,32
 428 759 428 759 402 693 c 2,33,-1
 331 515 l 2,34,35
 329 506 329 506 317 475 c 1,0,1
EndSplineSet
Validated: 1
EndChar

StartChar: M
Encoding: 77 77 48
Width: 950
Flags: W
LayerCount: 2
Fore
SplineSet
1052 801 m 1,0,1
 979 480 l 2,2,3
 976 468 976 468 953 370 c 2,4,-1
 919 224 l 2,5,6
 899 137 899 137 884 53 c 1,7,-1
 655 -10 l 1,8,9
 679 81 679 81 730 238 c 0,10,11
 746 285 746 285 781 404 c 0,12,13
 798 460 798 460 831 550 c 1,14,15
 767 528 767 528 637 307 c 0,16,17
 588 225 588 225 542 70 c 1,18,-1
 352 24 l 1,19,20
 354 35 354 35 354 57 c 0,21,22
 354 164 354 164 328 342 c 0,23,24
 318 412 318 412 310 412 c 1,25,-1
 244 254 l 2,26,27
 199 147 199 147 190 53 c 1,28,29
 1 6 l 1,30,31
 34 128 34 128 75 254 c 0,32,33
 107 350 107 350 170 486 c 0,34,35
 197 546 197 546 246 636 c 0,36,37
 249 645 249 645 249 651 c 0,38,39
 249 667 249 667 236 703 c 0,40,41
 220 749 220 749 218 756 c 1,42,-1
 401 797 l 1,43,44
 434 687 434 687 459 593 c 0,45,46
 495 460 495 460 498 365 c 1,47,48
 595 567 595 567 734 672 c 1,49,50
 786 717 786 717 840 747 c 0,51,52
 882 768 882 768 929 779 c 0,53,54
 991 793 991 793 1005 796 c 0,55,56
 1031 800 1031 800 1052 801 c 1,0,1
EndSplineSet
Validated: 1
EndChar

StartChar: N
Encoding: 78 78 49
Width: 600
Flags: W
LayerCount: 2
Fore
SplineSet
217 758 m 1,0,1
 401 800 l 1,2,3
 455 583 455 583 479 393 c 0,4,5
 482 393 482 393 502 440 c 2,6,-1
 522 488 l 2,7,8
 554 565 554 565 665 765 c 1,9,-1
 685 767 l 2,10,11
 742 773 742 773 815 778 c 1,12,13
 748 656 748 656 674 488 c 0,14,15
 648 428 648 428 596 257 c 0,16,17
 582 211 582 211 541 73 c 1,18,-1
 352 27 l 1,19,20
 354 37 354 37 354 59 c 0,21,22
 354 167 354 167 327 344 c 0,23,24
 317 414 317 414 310 414 c 1,25,-1
 244 257 l 2,26,27
 199 150 199 150 190 55 c 1,28,-1
 0 9 l 1,29,30
 33 131 33 131 75 257 c 0,31,32
 107 352 107 352 169 488 c 0,33,34
 196 548 196 548 245 639 c 0,35,36
 248 648 248 648 248 653 c 0,37,38
 248 670 248 670 235 705 c 0,39,40
 219 751 219 751 217 758 c 1,0,1
EndSplineSet
Validated: 1
EndChar

StartChar: O
Encoding: 79 79 50
Width: 700
Flags: W
HStem: 9 150<309.772 481.725> 607 168<367.836 555.084>
VStem: 79 148<248.913 344 383 455.021> 613 174<343.383 522.874>
LayerCount: 2
Fore
SplineSet
609 383 m 1,0,1
 613 404 613 404 613 417 c 0,2,3
 613 475 613 475 578 506 c 1,4,-1
 609 524 l 1,5,6
 569 607 569 607 472 607 c 0,7,8
 373 607 373 607 307 543 c 0,9,10
 245 483 245 483 230 383 c 0,11,12
 227 360 227 360 227 344 c 0,13,14
 227 269 227 269 271 215 c 0,15,16
 317 159 317 159 391 159 c 0,17,18
 479 159 479 159 539 228 c 0,19,20
 593 290 593 290 609 383 c 1,0,1
809 620 m 1,21,22
 766 591 l 1,23,24
 787 531 787 531 787 488 c 0,25,26
 787 457 787 457 777 401 c 0,27,28
 747 226 747 226 647 123 c 0,29,30
 538 9 538 9 368 9 c 0,31,32
 229 9 229 9 151 105 c 0,33,34
 79 194 79 194 79 336 c 0,35,36
 79 367 79 367 82 401 c 0,37,38
 100 553 100 553 215 663 c 0,39,40
 333 775 333 775 485 775 c 0,41,42
 714 775 714 775 809 620 c 1,21,22
EndSplineSet
Validated: 1
EndChar

StartChar: P
Encoding: 80 80 51
Width: 600
Flags: W
HStem: 340 127<320 478.046> 632 143<343.795 519.407>
VStem: 542 157<514.402 608.976>
LayerCount: 2
Fore
SplineSet
278 340 m 1,0,1
 261 288 l 2,2,3
 244 232 244 232 199 54 c 1,4,-1
 193 53 l 2,5,6
 113 37 113 37 9 9 c 1,7,8
 44 144 44 144 93 288 c 0,9,10
 123 378 123 378 187 519 c 0,11,12
 200 547 200 547 225 595 c 1,13,14
 204 589 204 589 188 585 c 1,15,-1
 152 756 l 1,16,17
 280 775 280 775 374 775 c 0,18,19
 395 775 395 775 422 773 c 0,20,21
 496 767 496 767 507 765 c 0,22,23
 546 759 546 759 594 738 c 0,24,25
 699 695 699 695 699 589 c 0,26,27
 699 573 699 573 695 550 c 0,28,29
 670 423 670 423 499 368 c 0,30,31
 407 340 407 340 278 340 c 1,0,1
542 567 m 1,32,33
 542 607 542 607 489 626 c 0,34,35
 473 632 473 632 438 632 c 2,36,-1
 425 632 l 2,37,38
 394 631 394 631 341 616 c 1,39,-1
 377 598 l 1,40,41
 359 566 359 566 340 519 c 0,42,43
 338 516 338 516 320 465 c 1,44,-1
 363 467 l 2,45,46
 430 468 430 468 476 486 c 0,47,48
 542 512 542 512 542 567 c 1,32,33
EndSplineSet
Validated: 1
EndChar

StartChar: Q
Encoding: 81 81 52
Width: 775
Flags: W
HStem: 9 150<334.772 460.532> 607 168<392.836 580.084>
VStem: 104 148<248.913 344 383 455.021> 638 174<345.58 522.874>
LayerCount: 2
Fore
SplineSet
586 256 m 1,0,1
 620 307 620 307 634 383 c 0,2,3
 638 404 638 404 638 417 c 0,4,5
 638 475 638 475 603 506 c 1,6,-1
 634 524 l 1,7,8
 594 607 594 607 497 607 c 0,9,10
 398 607 398 607 332 543 c 0,11,12
 270 483 270 483 255 383 c 0,13,14
 252 360 252 360 252 344 c 0,15,16
 252 269 252 269 296 215 c 0,17,18
 342 159 342 159 416 159 c 0,19,20
 440 159 440 159 462 164 c 1,21,22
 448 184 448 184 407 233 c 1,23,-1
 352 290 l 1,24,-1
 556 291 l 1,25,26
 571 275 571 275 586 256 c 1,0,1
549 38 m 1,27,28
 478 9 478 9 393 9 c 0,29,30
 254 9 254 9 176 105 c 0,31,32
 104 194 104 194 104 336 c 0,33,34
 104 367 104 367 107 401 c 0,35,36
 125 553 125 553 240 663 c 0,37,38
 358 775 358 775 510 775 c 0,39,40
 739 775 739 775 834 620 c 1,41,42
 791 591 l 1,43,44
 812 531 812 531 812 488 c 0,45,46
 812 457 812 457 802 401 c 0,47,48
 773 238 773 238 684 136 c 1,49,50
 746 51 746 51 778 -2 c 1,51,-1
 605 -65 l 1,52,53
 582 -18 582 -18 556 25 c 0,54,55
 551 32 551 32 549 38 c 1,27,28
EndSplineSet
Validated: 1
EndChar

StartChar: R
Encoding: 82 82 53
Width: 625
Flags: W
HStem: 632 143<343.795 519.407>
VStem: 542 157<514.031 608.976>
LayerCount: 2
Fore
SplineSet
542 567 m 1,0,1
 542 607 542 607 489 626 c 0,2,3
 473 632 473 632 438 632 c 2,4,-1
 425 632 l 2,5,6
 394 631 394 631 341 616 c 1,7,-1
 377 598 l 1,8,9
 359 566 359 566 340 519 c 0,10,11
 338 516 338 516 320 465 c 1,12,-1
 363 467 l 2,13,14
 430 468 430 468 476 486 c 0,15,16
 542 512 542 512 542 567 c 1,0,1
695 550 m 1,17,18
 663 383 663 383 481 341 c 1,19,20
 598 214 598 214 675 85 c 1,21,-1
 503 22 l 1,22,23
 428 174 428 174 304 319 c 1,24,-1
 278 340 l 1,25,-1
 261 288 l 2,26,27
 244 232 244 232 199 54 c 1,28,-1
 193 53 l 2,29,30
 113 37 113 37 9 9 c 1,31,32
 44 144 44 144 93 288 c 0,33,34
 123 378 123 378 187 519 c 0,35,36
 200 547 200 547 225 595 c 1,37,38
 204 589 204 589 188 585 c 1,39,-1
 152 756 l 1,40,41
 280 775 280 775 374 775 c 0,42,43
 395 775 395 775 422 773 c 0,44,45
 496 767 496 767 507 765 c 0,46,47
 546 759 546 759 594 738 c 0,48,49
 699 695 699 695 699 589 c 0,50,51
 699 574 699 574 695 550 c 1,17,18
EndSplineSet
Validated: 1
EndChar

StartChar: S
Encoding: 83 83 54
Width: 400
Flags: W
VStem: 121 168<475.98 578.394> 224 173<241.401 366.538>
LayerCount: 2
Fore
SplineSet
475 634 m 1,0,1
 434 632 434 632 405 626 c 0,2,3
 331 609 331 609 300 566 c 0,4,5
 289 551 289 551 289 535 c 0,6,7
 289 507 289 507 318 466 c 0,8,9
 356 411 356 411 362 398 c 0,10,11
 397 317 397 317 397 271 c 2,12,-1
 397 259 l 1,13,14
 386 145 386 145 267 66 c 0,15,16
 201 22 201 22 57 -14 c 1,17,18
 22 173 l 1,19,20
 76 180 76 180 120 195 c 0,21,22
 224 230 224 230 224 290 c 2,23,-1
 224 296 l 2,24,25
 224 326 224 326 205 364 c 0,26,27
 194 379 194 379 168 421 c 0,28,29
 121 495 121 495 121 550 c 0,30,31
 121 666 121 666 208 717 c 0,32,33
 275 756 275 756 409 790 c 1,34,-1
 475 634 l 1,0,1
EndSplineSet
Validated: 1
EndChar

StartChar: T
Encoding: 84 84 55
Width: 550
Flags: W
HStem: 628 136<453 665> 630 145<455.938 665>
LayerCount: 2
Fore
SplineSet
711 775 m 1,0,1
 665 630 l 1,2,-1
 605 630 l 2,3,4
 517 630 517 630 453 628 c 1,5,-1
 497 604 l 1,6,7
 448 512 448 512 379 286 c 0,8,9
 354 200 354 200 317 53 c 1,10,-1
 311 51 l 1,11,12
 244 39 244 39 127 6 c 1,13,14
 164 146 164 146 211 286 c 0,15,16
 240 373 240 373 306 518 c 0,17,18
 322 554 322 554 356 622 c 1,19,20
 262 613 262 613 140 598 c 1,21,-1
 185 748 l 1,22,23
 293 756 293 756 433 764 c 0,24,25
 518 769 518 769 711 775 c 1,0,1
EndSplineSet
Validated: 1
EndChar

StartChar: U
Encoding: 85 85 56
Width: 650
Flags: W
HStem: 9 160<275.857 389.311>
VStem: 87 164<194.56 375.494>
LayerCount: 2
Fore
SplineSet
799 775 m 1,0,1
 779 728 779 728 732 576 c 256,2,3
 685 424 685 424 659 351 c 0,4,5
 588 151 588 151 497 74 c 0,6,7
 420 9 420 9 297 9 c 0,8,9
 235 9 235 9 174 53 c 0,10,11
 87 117 87 117 87 240 c 0,12,13
 87 292 87 292 102 351 c 0,14,15
 149 537 149 537 251 756 c 1,16,-1
 415 775 l 1,17,18
 361 644 361 644 345 604 c 0,19,20
 284 450 284 450 260 351 c 0,21,22
 251 314 251 314 251 279 c 0,23,24
 251 169 251 169 330 169 c 0,25,26
 420 169 420 169 488 351 c 2,27,-1
 646 775 l 1,28,-1
 799 775 l 1,0,1
EndSplineSet
Validated: 1
EndChar

StartChar: V
Encoding: 86 86 57
Width: 600
Flags: W
VStem: 169 184<335.684 732.171>
LayerCount: 2
Fore
SplineSet
338 51 m 1,0,1
 149 5 l 1,2,3
 156 22 156 22 164 262 c 0,4,5
 169 472 169 472 169 653 c 0,6,7
 169 717 169 717 167 731 c 1,8,-1
 350 772 l 1,9,10
 353 762 353 762 353 727 c 0,11,12
 353 612 353 612 320 289 c 1,13,14
 382 402 382 402 459 523 c 0,15,16
 559 680 559 680 615 737 c 1,17,-1
 635 739 l 2,18,19
 692 746 692 746 765 750 c 1,20,21
 718 693 718 693 662 592 c 0,22,23
 631 537 631 537 571 426 c 2,24,-1
 462 232 l 2,25,26
 388 107 388 107 338 51 c 1,0,1
EndSplineSet
Validated: 1
EndChar

StartChar: W
Encoding: 87 87 58
Width: 900
Flags: W
VStem: 154 184<360.684 757.171> 499 186<597.145 756>
LayerCount: 2
Fore
SplineSet
496 349 m 1,0,1
 439 244 439 244 417 207 c 0,2,3
 368 126 368 126 323 76 c 1,4,-1
 134 30 l 1,5,6
 141 47 141 47 149 287 c 0,7,8
 154 497 154 497 154 678 c 0,9,10
 154 742 154 742 152 756 c 1,11,-1
 335 797 l 1,12,13
 338 787 338 787 338 752 c 0,14,15
 338 637 338 637 305 314 c 1,16,17
 354 404 354 404 433 528 c 0,18,19
 470 587 470 587 501 631 c 1,20,21
 501 746 501 746 499 756 c 1,22,-1
 682 797 l 1,23,24
 685 787 685 787 685 752 c 0,25,26
 685 621 685 621 652 314 c 1,27,28
 744 480 744 480 860 649 c 0,29,30
 915 729 915 729 947 762 c 1,31,-1
 966 764 l 2,32,33
 1023 771 1023 771 1097 775 c 1,34,35
 1053 724 1053 724 997 623 c 0,36,37
 969 570 969 570 910 463 c 2,38,-1
 798 263 l 2,39,40
 721 133 721 133 670 76 c 1,41,-1
 481 30 l 1,42,43
 486 44 486 44 491 202 c 0,44,45
 494 282 494 282 496 349 c 1,0,1
EndSplineSet
Validated: 1
EndChar

StartChar: X
Encoding: 88 88 59
Width: 625
Flags: W
VStem: 339 188<70 223.068>
LayerCount: 2
Fore
SplineSet
452 557 m 1,0,1
 530 641 530 641 650 762 c 1,2,-1
 671 764 l 2,3,4
 727 771 727 771 801 775 c 1,5,6
 770 738 770 738 718 679 c 2,7,-1
 484 409 l 1,8,9
 526 196 526 196 527 70 c 1,10,-1
 337 24 l 1,11,12
 339 35 339 35 339 55 c 0,13,14
 339 118 339 118 329 228 c 1,15,-1
 175 53 l 1,16,-1
 -14 6 l 1,17,18
 147 220 147 220 304 395 c 1,19,20
 300 412 300 412 295 412 c 1,21,22
 295 456 295 456 232 662 c 2,23,-1
 203 756 l 1,24,-1
 386 797 l 1,25,26
 416 725 416 725 452 557 c 1,0,1
EndSplineSet
Validated: 1
EndChar

StartChar: Y
Encoding: 89 89 60
Width: 550
Flags: W
LayerCount: 2
Fore
SplineSet
422 360 m 1,0,1
 402 293 402 293 342 53 c 1,2,-1
 336 51 l 1,3,4
 269 39 269 39 152 6 c 1,5,6
 159 34 159 34 213 197 c 2,7,-1
 265 360 l 1,8,9
 249 412 249 412 232 509 c 0,10,11
 210 637 210 637 205 660 c 0,12,13
 191 721 191 721 175 754 c 1,14,-1
 330 754 l 1,15,16
 339 723 339 723 350 649 c 2,17,-1
 374 492 l 1,18,19
 390 519 390 519 472 651 c 0,20,21
 520 728 520 728 552 756 c 1,22,-1
 718 779 l 1,23,24
 663 728 663 728 515 503 c 0,25,26
 454 411 454 411 422 360 c 1,0,1
EndSplineSet
Validated: 1
EndChar

StartChar: Z
Encoding: 90 90 61
Width: 550
Flags: W
LayerCount: 2
Fore
SplineSet
290 463 m 1,0,1
 317 488 317 488 354 523 c 0,2,3
 429 593 429 593 465 633 c 1,4,5
 442 631 442 631 347 621 c 2,6,-1
 221 609 l 2,7,8
 189 606 189 606 122 598 c 1,9,-1
 166 748 l 1,10,11
 270 756 270 756 414 764 c 0,12,13
 500 769 500 769 693 775 c 1,14,-1
 647 630 l 1,15,16
 604 567 604 567 512 471 c 1,17,-1
 548 473 l 1,18,-1
 509 363 l 1,19,-1
 401 359 l 1,20,-1
 324 281 l 2,21,22
 262 220 262 220 219 172 c 1,23,24
 306 177 306 177 534 195 c 1,25,-1
 486 51 l 1,26,27
 411 46 411 46 294 41 c 0,28,29
 214 41 214 41 0 6 c 1,30,31
 13 48 13 48 26 92 c 2,32,-1
 49 169 l 2,33,34
 62 214 62 214 125 288 c 0,35,36
 147 314 147 314 182 350 c 1,37,-1
 119 348 l 1,38,-1
 164 458 l 1,39,-1
 290 463 l 1,0,1
EndSplineSet
Validated: 1
EndChar

StartChar: bracketleft
Encoding: 91 91 62
Width: 425
Flags: W
HStem: 630 129<343.833 492.472>
LayerCount: 2
Fore
SplineSet
275 355 m 1,0,1
 261 310 261 310 224 172 c 1,2,-1
 399 190 l 1,3,-1
 336 36 l 1,4,5
 261 31 261 31 5 6 c 1,6,-1
 5 8 l 2,7,8
 5 15 5 15 69 198 c 256,9,10
 133 381 133 381 181 518 c 1,11,12
 201 562 201 562 270 759 c 1,13,14
 320 761 320 761 419 764 c 2,15,-1
 583 775 l 1,16,-1
 537 630 l 1,17,-1
 479 630 l 2,18,19
 432 630 432 630 341 622 c 1,20,-1
 372 604 l 1,21,22
 325 485 325 485 275 355 c 1,0,1
EndSplineSet
Validated: 1
EndChar

StartChar: backslash
Encoding: 92 92 63
Width: 625
Flags: W
VStem: 339 188<70 290.199>
LayerCount: 2
Fore
SplineSet
452 557 m 1,0,1
 484 409 l 2,2,3
 526 196 526 196 527 70 c 1,4,-1
 337 24 l 1,5,6
 339 35 339 35 339 55 c 0,7,8
 339 118 339 118 329 228 c 1,9,-1
 304 395 l 2,10,11
 295 456 295 456 232 662 c 2,12,-1
 203 756 l 1,13,-1
 386 797 l 1,14,15
 416 725 416 725 452 557 c 1,0,1
EndSplineSet
Validated: 1
EndChar

StartChar: bracketright
Encoding: 93 93 64
Width: 425
Flags: W
HStem: 17 135<136.677 247>
LayerCount: 2
Fore
SplineSet
313 426 m 1,0,1
 327 471 327 471 364 609 c 1,2,-1
 189 591 l 1,3,-1
 252 746 l 1,4,5
 327 750 327 750 583 775 c 1,6,-1
 583 774 l 2,7,8
 583 767 583 767 519 584 c 256,9,10
 455 401 455 401 407 264 c 1,11,12
 387 220 387 220 318 22 c 1,13,14
 268 21 268 21 169 17 c 2,15,-1
 5 6 l 1,16,-1
 51 152 l 1,17,-1
 109 152 l 2,18,19
 156 152 156 152 247 159 c 1,20,-1
 216 177 l 1,21,22
 263 297 263 297 313 426 c 1,0,1
EndSplineSet
Validated: 1
EndChar

StartChar: asciicircum
Encoding: 94 94 65
Width: 450
Flags: W
LayerCount: 2
Fore
SplineSet
290 797 m 1,0,1
 335 895 335 895 367 962 c 1,2,3
 473 1018 473 1018 559 1073 c 1,4,-1
 752 940 l 1,5,6
 730 868 730 868 710 800 c 1,7,-1
 538 927 l 1,8,9
 439 867 439 867 290 797 c 1,0,1
EndSplineSet
Validated: 1
EndChar

StartChar: underscore
Encoding: 95 95 66
Width: 650
Flags: W
HStem: -146 133<37.6748 321 326 600> -145 145<332.369 600>
LayerCount: 2
Fore
SplineSet
-5 -19 m 1,0,1
 17 -17 17 -17 160 -13 c 2,2,-1
 326 -9 l 2,3,4
 426 -5 426 -5 648 0 c 1,5,-1
 600 -145 l 1,6,-1
 321 -146 l 2,7,8
 176 -147 176 -147 -62 -181 c 1,9,10
 -24 -87 -24 -87 -5 -19 c 1,0,1
EndSplineSet
Validated: 1
EndChar

StartChar: grave
Encoding: 96 96 67
Width: 600
Flags: W
LayerCount: 2
Fore
SplineSet
638 800 m 1,0,1
 572 814 l 2,2,3
 398 854 398 854 310 859 c 1,4,5
 345 975 345 975 368 1054 c 1,6,-1
 394 1061 l 1,7,8
 419 1061 419 1061 508 1015 c 0,9,10
 672 928 672 928 687 922 c 1,11,12
 665 861 665 861 638 800 c 1,0,1
EndSplineSet
Validated: 1
EndChar

StartChar: a
Encoding: 97 97 68
Width: 478
Flags: W
VStem: 384 104<435.884 672.421>
LayerCount: 2
Fore
SplineSet
342 358 m 1,0,1
 221 352 l 1,2,3
 183 293 183 293 152 197 c 1,4,-1
 1 160 l 1,5,6
 7 185 7 185 60 291 c 2,7,-1
 96 365 l 2,8,9
 148 470 148 470 258 623 c 0,10,11
 319 708 319 708 378 773 c 1,12,13
 413 774 413 774 481 778 c 1,14,-1
 485 727 l 2,15,16
 488 669 488 669 488 615 c 0,17,18
 488 510 488 510 473 419 c 0,19,20
 467 404 467 404 449 289 c 0,21,22
 441 241 441 241 433 211 c 1,23,-1
 282 174 l 1,24,25
 298 226 298 226 342 358 c 1,0,1
383 647 m 1,26,27
 363 618 363 618 297 508 c 2,28,-1
 261 447 l 1,29,-1
 343 448 l 1,30,-1
 361 434 l 1,31,32
 384 484 384 484 384 619 c 0,33,34
 384 640 384 640 383 647 c 1,26,27
EndSplineSet
Validated: 1
EndChar

StartChar: b
Encoding: 98 98 69
Width: 462
Flags: W
HStem: 430 97<279 350.14> 661 114<286.879 431.897>
VStem: 363 126<331.28 414.977> 446 125<562.186 644.865>
LayerCount: 2
Fore
SplineSet
465 457 m 1,0,1
 489 413 489 413 489 395 c 0,2,3
 489 382 489 382 485 364 c 0,4,5
 459 228 459 228 314 196 c 0,6,7
 308 195 308 195 212 185 c 2,8,-1
 117 174 l 2,9,10
 65 168 65 168 19 162 c 1,11,12
 47 270 47 270 86 385 c 0,13,14
 110 458 110 458 162 570 c 0,15,16
 172 593 172 593 192 631 c 1,17,18
 175 626 175 626 163 623 c 1,19,-1
 133 760 l 1,20,21
 236 775 236 775 311 775 c 0,22,23
 328 775 328 775 350 773 c 0,24,25
 409 769 409 769 418 767 c 0,26,27
 449 762 449 762 487 746 c 0,28,29
 571 711 571 711 571 626 c 0,30,31
 571 614 571 614 568 595 c 0,32,33
 552 512 552 512 465 457 c 1,0,1
363 377 m 1,34,35
 363 410 363 410 320 425 c 0,36,37
 307 430 307 430 279 430 c 2,38,-1
 269 430 l 2,39,40
 267 430 267 430 262 430 c 0,41,42
 258 431 258 431 256 431 c 0,43,44
 251 431 251 431 238 427 c 1,45,-1
 230 402 l 1,46,47
 218 378 218 378 201 339 c 0,48,49
 198 332 198 332 185 296 c 1,50,-1
 219 297 l 2,51,52
 272 298 272 298 309 313 c 0,53,54
 363 334 363 334 363 377 c 1,34,35
446 608 m 1,55,56
 446 640 446 640 403 656 c 0,57,58
 391 661 391 661 363 661 c 2,59,-1
 352 661 l 2,60,61
 327 660 327 660 285 648 c 1,62,-1
 314 633 l 1,63,64
 299 608 299 608 284 570 c 0,65,66
 283 568 283 568 268 527 c 1,67,-1
 302 528 l 2,68,69
 356 530 356 530 393 544 c 0,70,71
 446 565 446 565 446 608 c 1,55,56
EndSplineSet
Validated: 1
EndChar

StartChar: c
Encoding: 99 99 70
Width: 537
Flags: W
HStem: 162 120<272.285 414.168> 640 135<314.781 472.427>
VStem: 104 112<344.547 430 461 531.227>
LayerCount: 2
Fore
SplineSet
537 256 m 1,0,1
 453 162 453 162 323 162 c 0,2,3
 217 162 217 162 158 239 c 0,4,5
 104 310 104 310 104 424 c 0,6,7
 104 448 104 448 106 476 c 0,8,9
 120 598 120 598 207 686 c 0,10,11
 296 775 296 775 411 775 c 0,12,13
 585 775 585 775 657 651 c 1,14,-1
 506 574 l 1,15,16
 475 640 475 640 401 640 c 256,17,18
 327 640 327 640 277 590 c 0,19,20
 230 541 230 541 218 461 c 0,21,22
 216 443 216 443 216 430 c 0,23,24
 216 370 216 370 249 327 c 0,25,26
 284 282 284 282 340 282 c 0,27,28
 400 282 400 282 446 331 c 1,29,-1
 537 256 l 1,0,1
EndSplineSet
Validated: 1
EndChar

StartChar: d
Encoding: 100 100 71
Width: 462
Flags: W
HStem: 668 107<260.006 414.821>
VStem: 431 130<507.3 651.602>
LayerCount: 2
Fore
SplineSet
174 192 m 1,0,1
 144 182 l 1,2,3
 73 173 73 173 9 170 c 1,4,5
 19 198 19 198 62 324 c 0,6,7
 83 387 83 387 127 512 c 0,8,9
 146 562 146 562 189 643 c 1,10,11
 175 634 175 634 153 623 c 1,12,-1
 123 760 l 1,13,14
 226 775 226 775 301 775 c 0,15,16
 318 775 318 775 340 773 c 0,17,18
 399 769 399 769 408 767 c 0,19,20
 439 762 439 762 477 746 c 0,21,22
 561 711 561 711 561 626 c 0,23,24
 561 610 561 610 558 595 c 0,25,26
 524 303 524 303 174 192 c 1,0,1
258 527 m 1,27,-1
 179 314 l 1,28,29
 279 337 279 337 363 423 c 0,30,31
 431 494 431 494 431 569 c 0,32,33
 431 646 431 646 401 656 c 0,34,35
 369 668 369 668 348 668 c 2,36,-1
 346 668 l 2,37,38
 291 665 291 665 259 656 c 1,39,-1
 304 633 l 1,40,41
 298 623 298 623 274 570 c 0,42,43
 269 558 269 558 258 527 c 1,27,-1
EndSplineSet
Validated: 1
EndChar

StartChar: e
Encoding: 101 101 72
Width: 362
Flags: W
HStem: 188 115<182.585 350> 188 105<182.585 350> 659 116<277.164 522>
LayerCount: 2
Fore
SplineSet
559 775 m 1,0,1
 522 659 l 1,2,-1
 476 659 l 2,3,4
 347 659 347 659 274 653 c 1,5,-1
 299 638 l 1,6,7
 293 625 293 625 269 569 c 0,8,9
 263 555 263 555 255 535 c 1,10,-1
 427 542 l 1,11,-1
 391 437 l 1,12,-1
 221 431 l 1,13,14
 202 377 202 377 180 293 c 1,15,16
 250 297 250 297 388 303 c 1,17,-1
 350 188 l 1,18,-1
 264 188 l 2,19,20
 176 188 176 188 5 160 c 1,21,-1
 5 161 l 2,22,23
 5 167 5 167 26 242 c 0,24,25
 51 329 51 329 71 384 c 0,26,27
 104 476 104 476 146 569 c 0,28,29
 162 604 162 604 182 642 c 1,30,31
 139 638 139 638 102 633 c 1,32,-1
 138 753 l 1,33,34
 221 760 221 760 336 766 c 0,35,36
 405 770 405 770 559 775 c 1,0,1
EndSplineSet
Validated: 1
EndChar

StartChar: f
Encoding: 102 102 73
Width: 362
Flags: W
HStem: 659 116<272.164 517>
LayerCount: 2
Fore
SplineSet
150 181 m 1,0,1
 84 174 84 174 0 160 c 1,2,-1
 0 161 l 2,3,4
 0 167 0 167 21 242 c 0,5,6
 46 329 46 329 66 384 c 0,7,8
 99 476 99 476 141 569 c 0,9,10
 157 604 157 604 177 642 c 1,11,12
 134 638 134 638 97 633 c 1,13,-1
 133 753 l 1,14,15
 216 760 216 760 331 766 c 0,16,17
 400 770 400 770 554 775 c 1,18,-1
 517 659 l 1,19,-1
 471 659 l 2,20,21
 342 659 342 659 269 653 c 1,22,-1
 294 638 l 1,23,24
 288 625 288 625 264 569 c 0,25,26
 258 555 258 555 250 535 c 1,27,-1
 422 542 l 1,28,-1
 386 437 l 1,29,-1
 216 431 l 1,30,31
 207 402 207 402 201 385 c 0,32,33
 165 281 165 281 150 181 c 1,0,1
EndSplineSet
Validated: 1
EndChar

StartChar: g
Encoding: 103 103 74
Width: 587
Flags: W
HStem: 162 120<269.004 409.285> 640 135<311.34 466.427>
VStem: 100 112<344.547 430 461 530.906>
LayerCount: 2
Fore
SplineSet
409 175 m 1,0,1
 368 162 368 162 319 162 c 0,2,3
 214 162 214 162 155 239 c 0,4,5
 100 310 100 310 100 424 c 0,6,7
 100 448 100 448 103 476 c 0,8,9
 117 597 117 597 204 685 c 0,10,11
 293 775 293 775 408 775 c 0,12,13
 581 775 581 775 653 650 c 1,14,-1
 502 574 l 1,15,16
 471 640 471 640 398 640 c 0,17,18
 323 640 323 640 273 589 c 0,19,20
 226 541 226 541 215 461 c 0,21,22
 212 442 212 442 212 430 c 0,23,24
 212 370 212 370 246 327 c 0,25,26
 281 282 281 282 337 282 c 0,27,28
 397 282 397 282 442 330 c 1,29,-1
 478 444 l 1,30,-1
 619 460 l 1,31,32
 593 387 593 387 583 330 c 1,33,34
 566 272 566 272 557 236 c 2,35,-1
 543 179 l 1,36,37
 493 171 493 171 409 162 c 1,38,39
 409 168 409 168 409 175 c 1,0,1
EndSplineSet
Validated: 1
EndChar

StartChar: h
Encoding: 104 104 75
Width: 462
Flags: W
LayerCount: 2
Fore
SplineSet
652 775 m 1,0,1
 599 678 599 678 539 543 c 0,2,3
 518 495 518 495 477 358 c 0,4,5
 465 321 465 321 433 211 c 1,6,-1
 281 174 l 1,7,8
 309 266 309 266 342 358 c 0,9,10
 345 366 345 366 361 410 c 1,11,-1
 205 392 l 1,12,-1
 195 358 l 2,13,14
 183 316 183 316 152 197 c 1,15,-1
 0 160 l 1,16,17
 26 256 26 256 60 358 c 0,18,19
 86 436 86 436 135 543 c 0,20,21
 173 626 173 626 251 764 c 1,22,-1
 266 766 l 2,23,24
 312 771 312 771 371 775 c 1,25,26
 329 698 329 698 258 543 c 0,27,28
 257 540 257 540 245 510 c 1,29,-1
 384 528 l 1,30,-1
 398 500 l 1,31,32
 447 614 447 614 532 764 c 1,33,-1
 548 766 l 2,34,35
 593 771 593 771 652 775 c 1,0,1
EndSplineSet
Validated: 1
EndChar

StartChar: i
Encoding: 105 105 76
Width: 349
Flags: W
HStem: 173 115<260.411 329> 633 120<172 267.614> 657 118<348.36 468>
LayerCount: 2
Fore
SplineSet
119 275 m 1,0,1
 133 320 l 2,2,3
 137 336 137 336 153 384 c 0,4,5
 177 456 177 456 229 569 c 0,6,7
 241 599 241 599 269 653 c 1,8,9
 225 646 225 646 137 633 c 1,10,-1
 172 753 l 1,11,12
 235 759 235 759 330 766 c 0,13,14
 429 774 429 774 505 775 c 1,15,-1
 468 659 l 1,16,17
 391 659 391 659 346 657 c 1,18,-1
 381 638 l 1,19,20
 369 615 369 615 351 569 c 0,21,22
 328 513 328 513 287 384 c 0,23,24
 273 336 273 336 260 285 c 1,25,26
 273 286 273 286 304 288 c 2,27,-1
 366 290 l 1,28,-1
 329 173 l 1,29,30
 236 173 236 173 207 172 c 0,31,32
 161 168 161 168 -2 147 c 1,33,-1
 33 268 l 1,34,-1
 73 272 l 2,35,36
 91 273 91 273 119 275 c 1,0,1
EndSplineSet
Validated: 1
EndChar

StartChar: j
Encoding: 106 106 77
Width: 405
Flags: W
HStem: 70 127<132.804 225.064> 633 120<336 431.614> 657 118<512.36 632>
LayerCount: 2
Fore
SplineSet
-12 227 m 1,0,1
 119 257 l 1,2,3
 119 232 119 232 133 215 c 0,4,5
 148 197 148 197 172 197 c 0,6,7
 221 202 221 202 254 251 c 0,8,9
 273 278 273 278 309 368 c 0,10,11
 335 431 335 431 359 495 c 0,12,13
 397 582 397 582 433 653 c 1,14,15
 389 646 389 646 301 633 c 1,16,-1
 336 753 l 1,17,18
 398 759 398 759 494 766 c 0,19,20
 593 774 593 774 669 775 c 1,21,-1
 632 659 l 1,22,23
 555 659 555 659 510 657 c 1,24,-1
 544 638 l 1,25,26
 529 606 529 606 514 569 c 0,27,28
 489 506 489 506 435 343 c 0,29,30
 383 187 383 187 305 122 c 0,31,32
 244 70 244 70 145 70 c 0,33,34
 40 70 40 70 2 157 c 0,35,36
 -8 181 -8 181 -12 227 c 1,0,1
EndSplineSet
Validated: 1
EndChar

StartChar: k
Encoding: 107 107 78
Width: 437
Flags: W
VStem: 287 151<209.211 326.773>
LayerCount: 2
Fore
SplineSet
433 211 m 1,0,1
 282 174 l 1,2,3
 287 200 287 200 287 227 c 0,4,5
 287 277 287 277 269 322 c 0,6,7
 246 377 246 377 206 392 c 1,8,-1
 195 358 l 2,9,10
 183 317 183 317 152 197 c 1,11,-1
 1 160 l 1,12,13
 27 256 27 256 60 358 c 0,14,15
 86 436 86 436 136 544 c 0,16,17
 174 626 174 626 251 765 c 1,18,-1
 267 766 l 2,19,20
 312 772 312 772 371 775 c 1,21,22
 329 699 329 699 259 544 c 0,23,24
 257 540 257 540 245 511 c 1,25,26
 357 558 357 558 459 668 c 0,27,28
 505 716 505 716 532 765 c 1,29,-1
 549 766 l 2,30,31
 594 772 594 772 653 775 c 1,32,33
 595 644 595 644 456 529 c 0,34,35
 385 470 385 470 306 442 c 1,36,37
 357 416 357 416 397 358 c 0,38,39
 438 298 438 298 438 243 c 0,40,41
 438 228 438 228 433 211 c 1,0,1
EndSplineSet
Validated: 1
EndChar

StartChar: l
Encoding: 108 108 79
Width: 405
Flags: W
HStem: 188 115<182.585 350> 188 105<182.585 350>
LayerCount: 2
Fore
SplineSet
255 535 m 1,0,1
 251 521 251 521 234 467 c 2,2,-1
 201 362 l 2,3,4
 188 319 188 319 180 293 c 1,5,6
 250 297 250 297 388 303 c 1,7,-1
 350 188 l 1,8,-1
 264 188 l 2,9,10
 176 188 176 188 5 160 c 1,11,-1
 5 161 l 2,12,13
 5 167 5 167 26 242 c 0,14,15
 51 330 51 330 71 384 c 0,16,17
 104 476 104 476 146 569 c 0,18,19
 152 585 152 585 171 627 c 2,20,-1
 206 710 l 2,21,22
 220 744 220 744 230 760 c 1,23,-1
 255 762 l 1,24,-1
 267 762 l 2,25,26
 284 762 284 762 310 765 c 2,27,-1
 348 771 l 1,28,29
 343 762 343 762 322 710 c 2,30,-1
 266 567 l 2,31,32
 264 560 264 560 255 535 c 1,0,1
EndSplineSet
Validated: 1
EndChar

StartChar: m
Encoding: 109 109 80
Width: 740
Flags: W
LayerCount: 2
Fore
SplineSet
842 796 m 1,0,1
 783 539 l 2,2,3
 781 530 781 530 762 451 c 2,4,-1
 735 334 l 2,5,6
 719 265 719 265 707 197 c 1,7,-1
 524 147 l 1,8,9
 543 220 543 220 584 346 c 0,10,11
 597 383 597 383 625 478 c 0,12,13
 638 523 638 523 665 595 c 1,14,15
 614 577 614 577 509 401 c 0,16,17
 470 335 470 335 433 211 c 1,18,-1
 282 174 l 1,19,20
 283 183 283 183 283 200 c 0,21,22
 283 286 283 286 262 428 c 0,23,24
 254 484 254 484 248 484 c 1,25,-1
 195 358 l 2,26,27
 159 273 159 273 152 197 c 1,28,29
 1 160 l 1,30,31
 27 258 27 258 60 358 c 0,32,33
 86 435 86 435 136 544 c 0,34,35
 157 592 157 592 197 664 c 0,36,37
 199 671 199 671 199 676 c 0,38,39
 199 689 199 689 189 717 c 0,40,41
 176 754 176 754 174 760 c 1,42,-1
 321 793 l 1,43,44
 347 704 347 704 367 630 c 0,45,46
 396 523 396 523 399 447 c 1,47,48
 476 608 476 608 587 692 c 1,49,50
 629 729 629 729 672 752 c 0,51,52
 705 770 705 770 743 778 c 0,53,54
 793 790 793 790 804 792 c 0,55,56
 825 795 825 795 842 796 c 1,0,1
EndSplineSet
Validated: 1
EndChar

StartChar: n
Encoding: 110 110 81
Width: 437
Flags: W
LayerCount: 2
Fore
SplineSet
174 762 m 1,0,1
 321 795 l 1,2,3
 364 621 364 621 383 470 c 0,4,5
 386 470 386 470 401 507 c 2,6,-1
 417 546 l 2,7,8
 443 607 443 607 532 767 c 1,9,-1
 548 768 l 2,10,11
 593 774 593 774 652 777 c 1,12,13
 599 680 599 680 539 546 c 0,14,15
 518 497 518 497 477 360 c 0,16,17
 465 324 465 324 433 213 c 1,18,-1
 281 176 l 1,19,20
 283 185 283 185 283 202 c 0,21,22
 283 288 283 288 262 430 c 0,23,24
 254 486 254 486 248 486 c 1,25,-1
 195 360 l 2,26,27
 159 275 159 275 152 199 c 1,28,-1
 0 162 l 1,29,30
 27 260 27 260 60 360 c 0,31,32
 85 437 85 437 135 546 c 0,33,34
 157 594 157 594 196 666 c 0,35,36
 199 673 199 673 199 678 c 0,37,38
 199 691 199 691 188 719 c 0,39,40
 175 756 175 756 174 762 c 1,0,1
EndSplineSet
Validated: 1
EndChar

StartChar: o
Encoding: 111 111 82
Width: 554
Flags: W
HStem: 162 120<256.704 408.269> 640 135<299.699 468.008>
VStem: 79 118<347.616 430 461 527.748> 506 139<413.293 578.849>
LayerCount: 2
Fore
SplineSet
503 461 m 1,0,1
 506 478 506 478 506 489 c 0,2,3
 506 535 506 535 478 560 c 1,4,-1
 503 574 l 1,5,6
 471 640 471 640 393 640 c 0,7,8
 314 640 314 640 261 590 c 0,9,10
 212 541 212 541 200 461 c 0,11,12
 197 443 197 443 197 430 c 0,13,14
 197 370 197 370 232 327 c 0,15,16
 269 282 269 282 328 282 c 0,17,18
 399 282 399 282 447 338 c 0,19,20
 490 387 490 387 503 461 c 1,0,1
663 651 m 1,21,22
 628 628 l 1,23,24
 645 580 645 580 645 545 c 0,25,26
 645 520 645 520 637 476 c 0,27,28
 613 336 613 336 533 253 c 0,29,30
 446 162 446 162 310 162 c 0,31,32
 199 162 199 162 136 239 c 0,33,34
 79 310 79 310 79 424 c 0,35,36
 79 448 79 448 81 476 c 0,37,38
 96 598 96 598 188 686 c 0,39,40
 282 775 282 775 403 775 c 0,41,42
 587 775 587 775 663 651 c 1,21,22
EndSplineSet
Validated: 1
EndChar

StartChar: p
Encoding: 112 112 83
Width: 462
Flags: W
HStem: 427 100<258 393.96> 661 114<276.879 421.897>
VStem: 436 125<561.95 644.865>
LayerCount: 2
Fore
SplineSet
225 427 m 1,0,1
 211 385 l 2,2,3
 197 340 197 340 161 198 c 1,4,-1
 157 197 l 2,5,6
 93 185 93 185 9 162 c 1,7,8
 37 270 37 270 76 385 c 0,9,10
 100 458 100 458 152 570 c 0,11,12
 162 593 162 593 182 631 c 1,13,14
 165 626 165 626 153 623 c 1,15,-1
 123 760 l 1,16,17
 226 775 226 775 301 775 c 0,18,19
 318 775 318 775 340 773 c 0,20,21
 399 769 399 769 408 767 c 0,22,23
 439 762 439 762 477 746 c 0,24,25
 561 711 561 711 561 626 c 0,26,27
 561 614 561 614 558 595 c 0,28,29
 538 494 538 494 401 450 c 0,30,31
 328 427 328 427 225 427 c 1,0,1
436 608 m 1,32,33
 436 640 436 640 393 656 c 0,34,35
 381 661 381 661 353 661 c 2,36,-1
 342 661 l 2,37,38
 317 660 317 660 275 648 c 1,39,-1
 304 633 l 1,40,41
 289 608 289 608 274 570 c 0,42,43
 273 568 273 568 258 527 c 1,44,-1
 292 528 l 2,45,46
 346 530 346 530 383 544 c 0,47,48
 436 565 436 565 436 608 c 1,32,33
EndSplineSet
Validated: 1
EndChar

StartChar: q
Encoding: 113 113 84
Width: 629
Flags: W
HStem: 162 120<281.704 388.951> 640 135<324.699 493.008>
VStem: 104 118<347.616 430 461 527.748> 531 139<414.693 578.849>
LayerCount: 2
Fore
SplineSet
489 360 m 1,0,1
 517 401 517 401 528 461 c 0,2,3
 531 478 531 478 531 489 c 0,4,5
 531 535 531 535 503 560 c 1,6,-1
 528 574 l 1,7,8
 496 640 496 640 418 640 c 0,9,10
 339 640 339 640 286 590 c 0,11,12
 237 541 237 541 225 461 c 0,13,14
 222 443 222 443 222 430 c 0,15,16
 222 370 222 370 257 327 c 0,17,18
 294 282 294 282 353 282 c 0,19,20
 373 282 373 282 390 286 c 1,21,22
 379 302 379 302 346 341 c 2,23,-1
 302 387 l 1,24,-1
 465 388 l 1,25,26
 477 375 477 375 489 360 c 1,0,1
460 185 m 1,27,28
 403 162 403 162 335 162 c 0,29,30
 224 162 224 162 161 239 c 0,31,32
 104 310 104 310 104 424 c 0,33,34
 104 448 104 448 106 476 c 0,35,36
 121 598 121 598 213 686 c 0,37,38
 307 775 307 775 428 775 c 0,39,40
 612 775 612 775 688 651 c 1,41,42
 653 628 l 1,43,44
 670 580 670 580 670 545 c 0,45,46
 670 520 670 520 662 476 c 0,47,48
 639 346 639 346 568 264 c 1,49,50
 618 196 618 196 643 153 c 1,51,-1
 505 103 l 1,52,53
 486 140 486 140 465 175 c 0,54,55
 462 181 462 181 460 185 c 1,27,28
EndSplineSet
Validated: 1
EndChar

StartChar: r
Encoding: 114 114 85
Width: 487
Flags: W
HStem: 661 114<276.879 421.897>
VStem: 436 125<562.616 644.865>
LayerCount: 2
Fore
SplineSet
436 608 m 1,0,1
 436 640 436 640 393 656 c 0,2,3
 381 661 381 661 353 661 c 2,4,-1
 342 661 l 2,5,6
 317 660 317 660 275 648 c 1,7,-1
 304 633 l 1,8,9
 289 608 289 608 274 570 c 0,10,11
 273 568 273 568 258 527 c 1,12,-1
 292 528 l 2,13,14
 346 530 346 530 383 544 c 0,15,16
 436 565 436 565 436 608 c 1,0,1
558 595 m 1,17,18
 533 462 533 462 387 428 c 1,19,20
 480 326 480 326 542 223 c 1,21,-1
 404 173 l 1,22,23
 345 294 345 294 245 410 c 1,24,-1
 225 427 l 1,25,-1
 211 385 l 2,26,27
 197 340 197 340 161 198 c 1,28,-1
 157 197 l 2,29,30
 93 185 93 185 9 162 c 1,31,32
 37 270 37 270 76 385 c 0,33,34
 100 458 100 458 152 570 c 0,35,36
 162 593 162 593 182 631 c 1,37,38
 165 626 165 626 153 623 c 1,39,-1
 123 760 l 1,40,41
 226 775 226 775 301 775 c 0,42,43
 318 775 318 775 340 773 c 0,44,45
 399 769 399 769 408 767 c 0,46,47
 439 762 439 762 477 746 c 0,48,49
 561 711 561 711 561 626 c 0,50,51
 561 614 561 614 558 595 c 1,17,18
EndSplineSet
Validated: 1
EndChar

StartChar: s
Encoding: 115 115 86
Width: 310
Flags: W
VStem: 101 135<529.066 622.816> 184 138<342.817 455.648>
LayerCount: 2
Fore
SplineSet
385 662 m 1,0,1
 352 661 352 661 328 656 c 0,2,3
 269 642 269 642 244 608 c 0,4,5
 236 596 236 596 236 583 c 0,6,7
 236 561 236 561 259 528 c 0,8,9
 289 484 289 484 294 474 c 0,10,11
 322 408 322 408 322 372 c 2,12,-1
 322 362 l 1,13,14
 314 271 314 271 218 208 c 0,15,16
 166 173 166 173 50 144 c 1,17,18
 22 293 l 1,19,20
 66 299 66 299 101 311 c 0,21,22
 184 339 184 339 184 387 c 2,23,-1
 184 392 l 2,24,25
 184 416 184 416 168 446 c 0,26,27
 160 458 160 458 139 492 c 0,28,29
 101 551 101 551 101 595 c 0,30,31
 101 688 101 688 171 729 c 0,32,33
 224 760 224 760 332 787 c 1,34,-1
 385 662 l 1,0,1
EndSplineSet
Validated: 1
EndChar

StartChar: t
Encoding: 116 116 87
Width: 433
Flags: W
HStem: 657 109<388 558> 659 116<390.359 558>
LayerCount: 2
Fore
SplineSet
595 775 m 1,0,1
 558 659 l 1,2,-1
 510 659 l 2,3,4
 439 659 439 659 388 657 c 1,5,-1
 423 638 l 1,6,7
 384 565 384 565 329 384 c 0,8,9
 309 315 309 315 279 197 c 1,10,-1
 275 196 l 2,11,12
 221 186 221 186 127 160 c 1,13,14
 157 272 157 272 195 384 c 0,15,16
 218 454 218 454 271 569 c 0,17,18
 283 598 283 598 311 653 c 1,19,20
 235 646 235 646 138 633 c 1,21,-1
 173 753 l 1,22,23
 260 760 260 760 372 766 c 0,24,25
 440 770 440 770 595 775 c 1,0,1
EndSplineSet
Validated: 1
EndChar

StartChar: u
Encoding: 117 117 88
Width: 508
Flags: W
HStem: 162 128<234.922 334.927>
VStem: 87 132<305.254 473.162>
LayerCount: 2
Fore
SplineSet
657 775 m 1,0,1
 641 738 641 738 603 616 c 256,2,3
 565 494 565 494 545 436 c 0,4,5
 488 276 488 276 415 214 c 0,6,7
 354 162 354 162 255 162 c 0,8,9
 206 162 206 162 157 197 c 0,10,11
 87 248 87 248 87 347 c 0,12,13
 87 388 87 388 99 436 c 0,14,15
 137 585 137 585 219 760 c 1,16,-1
 350 775 l 1,17,18
 306 670 306 670 293 638 c 0,19,20
 245 515 245 515 225 436 c 0,21,22
 219 406 219 406 219 378 c 0,23,24
 219 290 219 290 282 290 c 0,25,26
 354 290 354 290 408 436 c 2,27,-1
 534 775 l 1,28,-1
 657 775 l 1,0,1
EndSplineSet
Validated: 1
EndChar

StartChar: v
Encoding: 118 118 89
Width: 477
Flags: W
VStem: 165 148<433.095 740>
LayerCount: 2
Fore
SplineSet
301 196 m 1,0,1
 149 159 l 1,2,3
 155 173 155 173 161 365 c 0,4,5
 165 533 165 533 165 678 c 0,6,7
 165 729 165 729 164 740 c 1,8,-1
 310 773 l 1,9,10
 313 765 313 765 313 737 c 0,11,12
 313 645 313 645 286 386 c 1,13,14
 336 477 336 477 397 574 c 0,15,16
 477 699 477 699 522 745 c 1,17,-1
 538 746 l 2,18,19
 583 752 583 752 642 755 c 1,20,21
 604 710 604 710 559 629 c 0,22,23
 535 584 535 584 487 496 c 2,24,-1
 399 341 l 2,25,26
 340 240 340 240 301 196 c 1,0,1
EndSplineSet
Validated: 1
EndChar

StartChar: w
Encoding: 119 119 90
Width: 708
Flags: W
VStem: 150 148<453.095 760> 424 151<622.2 761.598>
LayerCount: 2
Fore
SplineSet
424 434 m 1,0,1
 378 350 378 350 360 321 c 0,2,3
 321 256 321 256 286 216 c 1,4,-1
 134 179 l 1,5,6
 140 193 140 193 146 385 c 0,7,8
 150 553 150 553 150 698 c 0,9,10
 150 749 150 749 149 760 c 1,11,-1
 295 793 l 1,12,13
 298 785 298 785 298 757 c 0,14,15
 298 665 298 665 271 406 c 1,16,17
 310 478 310 478 374 577 c 0,18,19
 403 624 403 624 428 660 c 1,20,21
 428 752 428 752 426 760 c 1,22,-1
 572 793 l 1,23,24
 575 785 575 785 575 757 c 0,25,26
 575 652 575 652 548 406 c 1,27,28
 622 539 622 539 715 674 c 0,29,30
 759 738 759 738 784 765 c 1,31,-1
 800 766 l 2,32,33
 846 772 846 772 905 775 c 1,34,35
 870 734 870 734 825 654 c 0,36,37
 802 611 802 611 755 525 c 2,38,-1
 665 366 l 2,39,40
 604 262 604 262 563 216 c 1,41,-1
 412 179 l 1,42,43
 416 190 416 190 420 317 c 0,44,45
 422 381 422 381 424 434 c 1,0,1
EndSplineSet
Validated: 1
EndChar

StartChar: x
Encoding: 120 120 91
Width: 462
Flags: W
VStem: 268 150<211 333.501>
LayerCount: 2
Fore
SplineSet
359 600 m 1,0,1
 421 668 421 668 517 765 c 1,2,-1
 534 766 l 2,3,4
 579 772 579 772 638 775 c 1,5,6
 613 745 613 745 571 698 c 2,7,-1
 384 482 l 1,8,9
 418 312 418 312 418 211 c 1,10,-1
 267 174 l 1,11,12
 268 183 268 183 268 199 c 0,13,14
 268 250 268 250 260 337 c 1,15,-1
 137 197 l 1,16,-1
 -14 160 l 1,17,18
 114 331 114 331 240 471 c 1,19,20
 237 484 237 484 233 484 c 1,21,22
 233 520 233 520 182 684 c 2,23,-1
 159 760 l 1,24,-1
 306 793 l 1,25,26
 330 735 330 735 359 600 c 1,0,1
EndSplineSet
Validated: 1
EndChar

StartChar: y
Encoding: 121 121 92
Width: 437
Flags: W
LayerCount: 2
Fore
SplineSet
368 443 m 1,0,1
 352 389 352 389 304 197 c 1,2,-1
 300 196 l 2,3,4
 246 186 246 186 152 160 c 1,5,6
 158 182 158 182 201 313 c 2,7,-1
 243 443 l 1,8,9
 230 485 230 485 216 562 c 0,10,11
 198 665 198 665 194 683 c 0,12,13
 184 732 184 732 170 758 c 1,14,-1
 294 758 l 1,15,16
 302 733 302 733 310 674 c 2,17,-1
 330 548 l 1,18,19
 343 570 343 570 408 676 c 0,20,21
 447 738 447 738 472 760 c 1,22,-1
 605 778 l 1,23,24
 561 737 561 737 443 557 c 0,25,26
 394 484 394 484 368 443 c 1,0,1
EndSplineSet
Validated: 1
EndChar

StartChar: z
Encoding: 122 122 93
Width: 412
Flags: W
LayerCount: 2
Fore
SplineSet
232 525 m 1,0,1
 253 546 253 546 283 573 c 0,2,3
 343 629 343 629 372 661 c 1,4,5
 354 660 354 660 277 652 c 2,6,-1
 177 642 l 2,7,8
 151 640 151 640 97 633 c 1,9,-1
 133 753 l 1,10,11
 216 760 216 760 331 766 c 0,12,13
 400 770 400 770 554 775 c 1,14,-1
 517 659 l 1,15,16
 483 608 483 608 410 532 c 1,17,-1
 439 533 l 1,18,-1
 407 445 l 1,19,-1
 321 442 l 1,20,-1
 259 380 l 2,21,22
 209 331 209 331 175 293 c 1,23,24
 245 297 245 297 427 311 c 1,25,-1
 389 196 l 1,26,27
 329 192 329 192 235 188 c 0,28,29
 171 188 171 188 0 160 c 1,30,31
 11 193 11 193 21 229 c 2,32,-1
 39 290 l 2,33,34
 50 326 50 326 100 385 c 0,35,36
 118 406 118 406 145 435 c 1,37,-1
 95 433 l 1,38,-1
 131 521 l 1,39,-1
 232 525 l 1,0,1
EndSplineSet
Validated: 1
EndChar

StartChar: braceleft
Encoding: 123 123 94
Width: 500
Flags: W
VStem: 114 146<234.947 472.994>
LayerCount: 2
Fore
SplineSet
573 770 m 1,0,1
 283 597 283 597 262 403 c 0,2,3
 260 382 260 382 260 361 c 0,4,5
 260 185 260 185 421 30 c 1,6,-1
 285 0 l 1,7,8
 114 174 114 174 114 358 c 0,9,10
 114 384 114 384 117 411 c 0,11,12
 159 608 159 608 375 740 c 1,13,-1
 573 770 l 1,0,1
EndSplineSet
Validated: 1
EndChar

StartChar: bar
Encoding: 124 124 95
Width: 300
Flags: W
VStem: 250 168<780.299 875.85>
LayerCount: 2
Fore
SplineSet
310 441 m 1,0,1
 185 25 185 25 160 -77 c 1,2,-1
 154 -78 l 2,3,4
 74 -94 74 -94 -30 -122 c 1,5,6
 -1 -5 -1 -5 47 144 c 0,7,8
 95 294 95 294 143 455 c 0,9,10
 196 636 196 636 250 875 c 1,11,12
 313 884 313 884 418 896 c 1,13,14
 418 836 418 836 310 441 c 1,0,1
EndSplineSet
Validated: 1
EndChar

StartChar: braceright
Encoding: 125 125 96
Width: 500
Flags: W
VStem: 313 146<297.006 535.053>
LayerCount: 2
Fore
SplineSet
0 0 m 1,0,1
 290 173 290 173 311 367 c 0,2,3
 313 388 313 388 313 409 c 0,4,5
 313 585 313 585 152 740 c 1,6,-1
 288 770 l 1,7,8
 459 596 459 596 459 412 c 0,9,10
 459 386 459 386 456 359 c 0,11,12
 414 162 414 162 198 30 c 1,13,-1
 0 0 l 1,0,1
EndSplineSet
Validated: 1
EndChar

StartChar: asciitilde
Encoding: 126 126 97
Width: 600
Flags: W
HStem: 812 131<543.307 694.186> 870 136<337.978 495.633>
LayerCount: 2
Fore
SplineSet
725 865 m 1,0,1
 684 812 684 812 630 812 c 1,2,3
 555 822 555 822 520 838 c 0,4,5
 448 870 448 870 402 870 c 0,6,7
 338 870 338 870 267 805 c 1,8,9
 293 897 293 897 311 960 c 1,10,11
 349 1001 349 1001 391 1006 c 1,12,13
 446 1006 446 1006 531 971 c 1,14,15
 564 953 564 953 645 943 c 1,16,17
 697 943 697 943 770 997 c 1,18,19
 749 926 749 926 725 865 c 1,0,1
EndSplineSet
Validated: 1
EndChar

StartChar: exclamdown
Encoding: 161 161 99
Width: 250
Flags: W
LayerCount: 2
Fore
SplineSet
9 9 m 1,0,1
 24 112 24 112 98 364 c 1,2,-1
 146 517 l 1,3,-1
 322 532 l 1,4,-1
 227 220 l 1,5,6
 206 132 206 132 177 30 c 1,7,8
 114 21 114 21 9 9 c 1,0,1
351 624 m 1,9,10
 169 601 l 1,11,12
 183 646 183 646 209 751 c 1,13,-1
 214 752 l 2,14,15
 294 767 294 767 398 795 c 1,16,17
 376 705 376 705 351 624 c 1,9,10
EndSplineSet
Validated: 1
EndChar

StartChar: cent
Encoding: 162 162 100
Width: 537
Flags: W
VStem: 104 112<344.547 430 461 531.227>
LayerCount: 2
Fore
SplineSet
343 631 m 1,0,1
 306 619 306 619 277 590 c 0,2,3
 230 541 230 541 218 461 c 0,4,5
 216 443 216 443 216 430 c 0,6,7
 216 373 216 373 245 333 c 1,8,-1
 253 355 l 2,9,10
 274 411 274 411 323 564 c 0,11,12
 332 595 332 595 343 631 c 1,0,1
367 284 m 1,13,14
 411 293 411 293 446 331 c 1,15,-1
 537 256 l 1,16,17
 455 164 455 164 327 162 c 1,18,-1
 308 106 l 1,19,-1
 156 78 l 1,20,21
 159 91 159 91 180 149 c 2,22,-1
 198 200 l 1,23,24
 176 216 176 216 158 239 c 0,25,26
 104 310 104 310 104 424 c 0,27,28
 104 448 104 448 106 476 c 0,29,30
 120 598 120 598 207 686 c 0,31,32
 289 768 289 768 394 775 c 1,33,34
 398 786 398 786 402 797 c 1,35,-1
 539 805 l 1,36,-1
 524 759 l 1,37,38
 611 730 611 730 657 651 c 1,39,-1
 506 574 l 1,40,41
 494 599 494 599 476 615 c 1,42,-1
 367 284 l 1,13,14
EndSplineSet
Validated: 1
EndChar

StartChar: sterling
Encoding: 163 163 101
Width: 675
Flags: W
HStem: 41 144<331.74 541> 41 131<330.528 541> 622 169<505.473 637.838>
LayerCount: 2
Fore
SplineSet
391 374 m 1,0,-1
 355 259 l 2,1,2
 338 205 338 205 329 172 c 1,3,4
 416 177 416 177 589 185 c 1,5,-1
 541 41 l 1,6,7
 496 41 496 41 463 41 c 2,8,-1
 434 41 l 2,9,10
 324 41 324 41 25 5 c 1,11,-1
 70 153 l 1,12,13
 135 155 135 155 152 184 c 0,14,15
 168 218 168 218 192 286 c 0,16,17
 207 327 207 327 223 367 c 1,18,-1
 104 363 l 1,19,-1
 149 473 l 1,20,-1
 268 477 l 1,21,22
 308 600 308 600 382 689 c 1,23,24
 475 791 475 791 586 791 c 0,25,26
 770 791 770 791 865 635 c 1,27,-1
 691 559 l 1,28,29
 625 622 625 622 573 622 c 0,30,31
 515 622 515 622 474 569 c 1,32,33
 450 527 450 527 431 484 c 1,34,-1
 533 488 l 1,35,-1
 494 378 l 1,36,-1
 391 374 l 1,0,-1
EndSplineSet
Validated: 1
EndChar

StartChar: currency
Encoding: 164 164 102
Width: 650
Flags: W
HStem: 579 136<361.428 462.354>
VStem: 70 119<282.284 366 399 460.607> 501 141<348.887 517.152>
LayerCount: 2
Fore
SplineSet
191 633 m 1,0,1
 186 647 186 647 182 662 c 2,2,-1
 153 756 l 1,3,-1
 336 797 l 1,4,5
 350 765 350 765 364 713 c 1,6,7
 381 715 381 715 398 715 c 0,8,9
 475 715 475 715 533 694 c 1,10,11
 565 726 565 726 600 762 c 1,12,-1
 621 764 l 2,13,14
 677 771 677 771 751 775 c 1,15,16
 720 738 720 738 668 679 c 2,17,-1
 627 632 l 1,18,19
 645 613 645 613 660 589 c 1,20,-1
 625 567 l 1,21,22
 642 516 642 516 642 483 c 0,23,24
 642 458 642 458 635 412 c 0,25,26
 610 272 610 272 530 188 c 0,27,28
 504 161 504 161 474 142 c 1,29,30
 477 103 477 103 477 70 c 1,31,-1
 287 24 l 1,32,33
 289 35 289 35 289 55 c 0,34,35
 289 74 289 74 288 97 c 1,36,37
 231 99 231 99 187 123 c 1,38,-1
 125 53 l 1,39,-1
 -64 6 l 1,40,41
 19 116 19 116 101 216 c 1,42,43
 70 276 70 276 70 360 c 0,44,45
 70 378 70 378 74 412 c 0,46,47
 88 535 88 535 182 625 c 0,48,49
 186 629 186 629 191 633 c 1,0,1
499 399 m 1,50,51
 501 412 501 412 501 427 c 0,52,53
 501 473 501 473 474 498 c 1,54,-1
 499 512 l 1,55,56
 466 579 466 579 387 579 c 256,57,58
 308 579 308 579 256 527 c 0,59,60
 206 478 206 478 193 399 c 0,61,62
 189 379 189 379 189 366 c 0,63,64
 189 305 189 305 225 263 c 0,65,66
 263 217 263 217 322 217 c 0,67,68
 393 217 393 217 443 274 c 0,69,70
 486 324 486 324 499 399 c 1,50,51
EndSplineSet
Validated: 1
EndChar

StartChar: yen
Encoding: 165 165 103
Width: 550
Flags: W
LayerCount: 2
Fore
SplineSet
204 424 m 1,0,1
 196 461 196 461 187 509 c 0,2,3
 165 637 165 637 160 660 c 0,4,5
 146 721 146 721 130 754 c 1,6,-1
 285 754 l 1,7,8
 294 723 294 723 305 649 c 2,9,-1
 329 492 l 1,10,11
 345 519 345 519 427 651 c 0,12,13
 475 728 475 728 507 756 c 1,14,-1
 673 779 l 1,15,16
 618 728 618 728 470 503 c 0,17,18
 444 464 444 464 424 432 c 1,19,-1
 513 436 l 1,20,-1
 474 326 l 1,21,-1
 366 321 l 1,22,23
 358 293 358 293 348 252 c 1,24,-1
 473 257 l 1,25,-1
 434 147 l 1,26,-1
 320 143 l 1,27,28
 309 101 309 101 297 53 c 1,29,-1
 291 51 l 1,30,31
 224 39 224 39 107 6 c 1,32,33
 113 28 113 28 148 136 c 1,34,-1
 44 132 l 1,35,-1
 89 242 l 1,36,-1
 183 245 l 1,37,-1
 206 315 l 1,38,-1
 84 310 l 1,39,-1
 129 421 l 1,40,-1
 204 424 l 1,0,1
EndSplineSet
Validated: 1
EndChar

StartChar: brokenbar
Encoding: 166 166 104
Width: 300
Flags: W
LayerCount: 2
Fore
SplineSet
149 477 m 1,0,1
 198 646 198 646 232 803 c 1,2,-1
 250 875 l 1,3,4
 313 884 313 884 418 896 c 1,5,6
 418 836 418 836 348 563 c 0,7,8
 340 538 340 538 323 483 c 1,9,-1
 149 477 l 1,0,1
290 374 m 1,10,-1
 238 203 l 2,11,12
 185 25 185 25 160 -77 c 1,13,-1
 154 -78 l 2,14,15
 74 -94 74 -94 -30 -122 c 1,16,17
 -1 -5 -1 -5 57 180 c 0,18,19
 84 261 84 261 116 367 c 1,20,-1
 290 374 l 1,10,-1
EndSplineSet
Validated: 1
EndChar

StartChar: section
Encoding: 167 167 105
Width: 450
Flags: W
VStem: -30 119<283.026 366 399 460.607> 401 141<348.887 517.152>
LayerCount: 2
Fore
SplineSet
101 642 m 1,0,1
 111 756 111 756 186 810 c 0,2,3
 253 858 253 858 388 899 c 1,4,-1
 454 708 l 1,5,6
 426 707 426 707 404 703 c 1,7,8
 508 676 508 676 560 589 c 1,9,-1
 525 567 l 1,10,11
 542 516 542 516 542 483 c 0,12,13
 542 458 542 458 535 412 c 0,14,15
 510 272 510 272 430 188 c 0,16,17
 389 146 389 146 338 123 c 1,18,19
 306 64 306 64 245 15 c 0,20,21
 180 -39 180 -39 35 -83 c 1,22,-1
 0 145 l 1,23,24
 24 149 24 149 45 154 c 1,25,26
 36 163 36 163 28 174 c 0,27,28
 -30 245 -30 245 -30 360 c 0,29,30
 -30 378 -30 378 -26 412 c 0,31,32
 -12 535 -12 535 82 625 c 0,33,34
 91 634 91 634 101 642 c 1,0,1
399 399 m 1,35,36
 401 412 401 412 401 427 c 0,37,38
 401 473 401 473 374 498 c 1,39,-1
 399 512 l 1,40,41
 366 579 366 579 287 579 c 256,42,43
 208 579 208 579 156 527 c 0,44,45
 106 478 106 478 93 399 c 0,46,47
 89 379 89 379 89 366 c 0,48,49
 89 305 89 305 125 263 c 0,50,51
 163 217 163 217 222 217 c 0,52,53
 293 217 293 217 343 274 c 0,54,55
 386 324 386 324 399 399 c 1,35,36
EndSplineSet
Validated: 1
EndChar

StartChar: dieresis
Encoding: 168 168 106
Width: 600
Flags: W
HStem: 825 171<307.439 365.409 591.439 649.409>
LayerCount: 2
Fore
SplineSet
309 996 m 1,0,1
 490 1019 l 1,2,3
 477 974 477 974 451 869 c 1,4,-1
 439 845 l 1,5,6
 380 845 380 845 261 825 c 1,7,8
 284 915 284 915 309 996 c 1,0,1
593 996 m 1,9,-1
 774 1019 l 1,10,11
 761 974 761 974 735 869 c 1,12,-1
 723 845 l 1,13,14
 664 845 664 845 545 825 c 1,15,16
 568 915 568 915 593 996 c 1,9,-1
EndSplineSet
Validated: 1
EndChar

StartChar: copyright
Encoding: 169 169 107
Width: 600
Flags: W
HStem: 350 25<240.605 385.157> 392 75<235.574 350.327> 691 84<260.432 386.076> 800 25<240.605 385.299>
VStem: 75 25<514.843 659.395> 134 74<495.846 560 579 635.614> 525 25<514.843 660.615>
LayerCount: 2
Fore
SplineSet
481 755 m 1,0,1
 550 686 550 686 550 587 c 0,2,3
 550 489 550 489 481 419 c 0,4,5
 411 350 411 350 313 350 c 0,6,7
 214 350 214 350 145 419 c 0,8,9
 75 489 75 489 75 587 c 0,10,11
 75 686 75 686 145 755 c 0,12,13
 214 825 214 825 313 825 c 0,14,15
 411 825 411 825 481 755 c 1,0,1
460 741 m 1,16,17
 398 800 398 800 313 800 c 0,18,19
 225 800 225 800 163 737 c 0,20,21
 100 675 100 675 100 587 c 256,22,23
 100 499 100 499 163 437 c 0,24,25
 225 375 225 375 313 375 c 256,26,27
 401 375 401 375 463 437 c 256,28,29
 525 499 525 499 525 587 c 0,30,31
 525 648 525 648 496 696 c 1,32,-1
 399 650 l 1,33,34
 379 691 379 691 330 691 c 256,35,36
 281 691 281 691 248 659 c 0,37,38
 217 629 217 629 210 579 c 0,39,40
 208 568 208 568 208 560 c 0,41,42
 208 522 208 522 230 495 c 0,43,44
 253 467 253 467 290 467 c 0,45,46
 330 467 330 467 360 498 c 1,47,-1
 420 451 l 1,48,49
 365 392 365 392 278 392 c 0,50,51
 209 392 209 392 170 440 c 0,52,53
 134 485 134 485 134 556 c 0,54,55
 134 571 134 571 136 588 c 0,56,57
 145 664 145 664 202 719 c 0,58,59
 261 775 261 775 337 775 c 256,60,61
 413 775 413 775 460 741 c 1,16,17
EndSplineSet
Validated: 1
EndChar

StartChar: ordfeminine
Encoding: 170 170 108
Width: 825
Flags: W
HStem: 0 12<61.9375 100 650 688.965> 737 13<61.0352 100 650 690.541>
VStem: 0 13<59.459 100 650 688.965> 738 12<61.5 100 650 688.062>
LayerCount: 2
Fore
SplineSet
651 12 m 1,0,1
 738 12 738 12 738 100 c 2,2,-1
 738 650 l 2,3,4
 738 737 738 737 650 737 c 2,5,-1
 100 737 l 2,6,7
 13 737 13 737 13 650 c 2,8,-1
 13 100 l 2,9,10
 13 12 13 12 100 12 c 2,11,-1
 651 12 l 1,0,1
100 0 m 1,12,13
 0 0 0 0 0 100 c 2,14,-1
 0 650 l 2,15,16
 0 750 0 750 100 750 c 2,17,-1
 650 750 l 2,18,19
 750 750 750 750 750 650 c 2,20,-1
 750 100 l 2,21,22
 750 0 750 0 650 0 c 2,23,-1
 100 0 l 1,12,13
EndSplineSet
Validated: 1
EndChar

StartChar: guillemotleft
Encoding: 171 171 109
Width: 850
Flags: W
LayerCount: 2
Fore
SplineSet
426 321 m 1,0,-1
 424 320 l 1,1,-1
 469 431 l 1,2,-1
 868 596 l 1,3,-1
 829 486 l 1,4,-1
 561 376 l 1,5,-1
 753 272 l 1,6,-1
 714 162 l 1,7,-1
 424 317 l 1,8,-1
 426 321 l 1,0,-1
146 321 m 1,9,-1
 144 320 l 1,10,-1
 189 431 l 1,11,-1
 588 596 l 1,12,-1
 549 486 l 1,13,-1
 281 376 l 1,14,-1
 473 272 l 1,15,-1
 434 162 l 1,16,-1
 144 317 l 1,17,-1
 146 321 l 1,9,-1
EndSplineSet
Validated: 1
EndChar

StartChar: logicalnot
Encoding: 172 172 110
Width: 475
Flags: W
LayerCount: 2
Fore
SplineSet
400 0 m 1,0,-1
 625 775 l 1,1,-1
 650 775 l 1,2,-1
 425 0 l 1,3,-1
 400 0 l 1,0,-1
-25 0 m 1,4,-1
 200 775 l 1,5,-1
 225 775 l 1,6,-1
 0 0 l 1,7,-1
 -25 0 l 1,4,-1
EndSplineSet
Validated: 1
EndChar

StartChar: uni00AD
Encoding: 173 173 111
Width: 450
Flags: W
HStem: 363 110<129 270.368> 378 110<329.499 474>
LayerCount: 2
Fore
SplineSet
129 473 m 1,0,-1
 513 488 l 1,1,-1
 474 378 l 1,2,-1
 84 363 l 1,3,-1
 129 473 l 1,0,-1
EndSplineSet
Validated: 1
EndChar

StartChar: registered
Encoding: 174 174 112
Width: 600
Flags: W
HStem: 350 25<240.911 385.157> 704 71<286.402 383.562> 800 25<240.031 385.157>
VStem: 75 25<514.016 659.49> 386 78<636.177 698.421> 525 25<514.843 659.395>
LayerCount: 2
Fore
SplineSet
162 403 m 1,0,1
 142 398 142 398 119 392 c 1,2,3
 125 413 125 413 131 434 c 1,4,5
 75 499 75 499 75 587 c 0,6,7
 75 686 75 686 145 755 c 0,8,9
 214 825 214 825 313 825 c 0,10,11
 411 825 411 825 481 755 c 0,12,13
 550 686 550 686 550 587 c 0,14,15
 550 489 550 489 481 419 c 0,16,17
 411 350 411 350 313 350 c 0,18,19
 226 350 226 350 162 403 c 1,0,1
139 464 m 1,20,21
 150 497 150 497 161 532 c 0,22,23
 176 577 176 577 208 647 c 0,24,25
 215 661 215 661 227 685 c 1,26,27
 217 682 217 682 209 680 c 1,28,-1
 192 762 l 1,29,30
 176 751 176 751 163 738 c 0,31,32
 100 675 100 675 100 587 c 0,33,34
 100 517 100 517 139 464 c 1,20,21
194 411 m 1,35,36
 246 375 246 375 313 375 c 0,37,38
 401 375 401 375 463 437 c 256,39,40
 525 499 525 499 525 587 c 256,41,42
 525 675 525 675 463 737 c 0,43,44
 401 800 401 800 313 800 c 0,45,46
 249 800 249 800 198 767 c 1,47,48
 258 775 258 775 302 775 c 0,49,50
 312 775 312 775 326 774 c 0,51,52
 363 771 363 771 368 770 c 0,53,54
 388 767 388 767 412 757 c 0,55,56
 464 735 464 735 464 682 c 0,57,58
 464 675 464 675 462 663 c 0,59,60
 446 579 446 579 355 558 c 1,61,62
 414 495 414 495 452 430 c 1,63,-1
 366 399 l 1,64,65
 329 475 329 475 267 547 c 1,66,-1
 254 558 l 1,67,-1
 245 532 l 2,68,69
 237 504 237 504 214 415 c 1,70,-1
 211 414 l 2,71,72
 203 413 203 413 194 411 c 1,35,36
386 671 m 1,73,74
 386 691 386 691 359 701 c 0,75,76
 351 704 351 704 334 704 c 2,77,-1
 327 704 l 2,78,79
 312 703 312 703 285 696 c 1,80,-1
 303 687 l 1,81,82
 294 671 294 671 285 647 c 0,83,84
 284 646 284 646 275 620 c 1,85,-1
 296 621 l 2,86,87
 330 622 330 622 353 631 c 0,88,89
 386 644 386 644 386 671 c 1,73,74
EndSplineSet
Validated: 1
EndChar

StartChar: macron
Encoding: 175 175 113
Width: 825
Flags: W
HStem: 0 12<61.9375 100 650 688.965> 737 13<61.0352 100 650 690.541>
VStem: 0 13<59.459 100 650 688.965> 738 12<61.5 100 650 688.062>
LayerCount: 2
Fore
SplineSet
651 12 m 1,0,1
 738 12 738 12 738 100 c 2,2,-1
 738 650 l 2,3,4
 738 737 738 737 650 737 c 2,5,-1
 100 737 l 2,6,7
 13 737 13 737 13 650 c 2,8,-1
 13 100 l 2,9,10
 13 12 13 12 100 12 c 2,11,-1
 651 12 l 1,0,1
100 0 m 1,12,13
 0 0 0 0 0 100 c 2,14,-1
 0 650 l 2,15,16
 0 750 0 750 100 750 c 2,17,-1
 650 750 l 2,18,19
 750 750 750 750 750 650 c 2,20,-1
 750 100 l 2,21,22
 750 0 750 0 650 0 c 2,23,-1
 100 0 l 1,12,13
EndSplineSet
Validated: 1
EndChar

StartChar: degree
Encoding: 176 176 114
Width: 337
Flags: W
HStem: 443 35<111.775 227.625> 686 35<112.711 226.617>
VStem: 30 35<524.493 638.835> 273 35<523.375 639.342>
LayerCount: 2
Fore
SplineSet
170 721 m 1,0,1
 227 721 227 721 268 680 c 0,2,3
 308 639 308 639 308 582 c 256,4,5
 308 525 308 525 267 484 c 256,6,7
 226 443 226 443 169 443 c 0,8,9
 110 443 110 443 70 483 c 0,10,11
 30 524 30 524 30 582 c 256,12,13
 30 640 30 640 71 680 c 0,14,15
 112 721 112 721 170 721 c 1,0,1
170 686 m 129,-1,17
 127 686 127 686 96 655 c 0,18,19
 65 625 65 625 65 581 c 0,20,21
 65 538 65 538 96 508 c 0,22,23
 126 478 126 478 170 478 c 0,24,25
 213 478 213 478 243 508 c 256,26,27
 273 538 273 538 273 581 c 0,28,29
 273 625 273 625 243 655 c 0,30,16
 213 686 213 686 170 686 c 129,-1,17
EndSplineSet
Validated: 1
EndChar

StartChar: plusminus
Encoding: 177 177 115
Width: 825
Flags: W
HStem: 0 12<61.9375 100 650 688.965> 737 13<61.0352 100 650 690.541>
VStem: 0 13<59.459 100 650 688.965> 738 12<61.5 100 650 688.062>
LayerCount: 2
Fore
SplineSet
651 12 m 1,0,1
 738 12 738 12 738 100 c 2,2,-1
 738 650 l 2,3,4
 738 737 738 737 650 737 c 2,5,-1
 100 737 l 2,6,7
 13 737 13 737 13 650 c 2,8,-1
 13 100 l 2,9,10
 13 12 13 12 100 12 c 2,11,-1
 651 12 l 1,0,1
100 0 m 1,12,13
 0 0 0 0 0 100 c 2,14,-1
 0 650 l 2,15,16
 0 750 0 750 100 750 c 2,17,-1
 650 750 l 2,18,19
 750 750 750 750 750 650 c 2,20,-1
 750 100 l 2,21,22
 750 0 750 0 650 0 c 2,23,-1
 100 0 l 1,12,13
EndSplineSet
Validated: 1
EndChar

StartChar: uni00B2
Encoding: 178 178 116
Width: 825
Flags: W
HStem: 0 12<61.9375 100 650 688.965> 737 13<61.0352 100 650 690.541>
VStem: 0 13<59.459 100 650 688.965> 738 12<61.5 100 650 688.062>
LayerCount: 2
Fore
SplineSet
651 12 m 1,0,1
 738 12 738 12 738 100 c 2,2,-1
 738 650 l 2,3,4
 738 737 738 737 650 737 c 2,5,-1
 100 737 l 2,6,7
 13 737 13 737 13 650 c 2,8,-1
 13 100 l 2,9,10
 13 12 13 12 100 12 c 2,11,-1
 651 12 l 1,0,1
100 0 m 1,12,13
 0 0 0 0 0 100 c 2,14,-1
 0 650 l 2,15,16
 0 750 0 750 100 750 c 2,17,-1
 650 750 l 2,18,19
 750 750 750 750 750 650 c 2,20,-1
 750 100 l 2,21,22
 750 0 750 0 650 0 c 2,23,-1
 100 0 l 1,12,13
EndSplineSet
Validated: 1
EndChar

StartChar: uni00B3
Encoding: 179 179 117
Width: 825
Flags: W
HStem: 0 12<61.9375 100 650 688.965> 737 13<61.0352 100 650 690.541>
VStem: 0 13<59.459 100 650 688.965> 738 12<61.5 100 650 688.062>
LayerCount: 2
Fore
SplineSet
651 12 m 1,0,1
 738 12 738 12 738 100 c 2,2,-1
 738 650 l 2,3,4
 738 737 738 737 650 737 c 2,5,-1
 100 737 l 2,6,7
 13 737 13 737 13 650 c 2,8,-1
 13 100 l 2,9,10
 13 12 13 12 100 12 c 2,11,-1
 651 12 l 1,0,1
100 0 m 1,12,13
 0 0 0 0 0 100 c 2,14,-1
 0 650 l 2,15,16
 0 750 0 750 100 750 c 2,17,-1
 650 750 l 2,18,19
 750 750 750 750 750 650 c 2,20,-1
 750 100 l 2,21,22
 750 0 750 0 650 0 c 2,23,-1
 100 0 l 1,12,13
EndSplineSet
Validated: 1
EndChar

StartChar: acute
Encoding: 180 180 118
Width: 600
Flags: W
LayerCount: 2
Fore
SplineSet
309 932 m 1,0,1
 520 1015 520 1015 683 1055 c 1,2,-1
 695 1040 l 1,3,4
 665 934 665 934 643 869 c 1,5,6
 475 850 475 850 283 812 c 1,7,-1
 260 810 l 1,8,9
 282 871 282 871 309 932 c 1,0,1
EndSplineSet
Validated: 1
EndChar

StartChar: mu
Encoding: 181 181 119
Width: 650
Flags: W
HStem: 9 160<215.857 329.311>
LayerCount: 2
Fore
SplineSet
197 339 m 1,0,1
 191 308 191 308 191 279 c 0,2,3
 191 169 191 169 270 169 c 0,4,5
 360 169 360 169 428 351 c 2,6,-1
 586 775 l 1,7,-1
 739 775 l 1,8,9
 719 728 719 728 672 576 c 256,10,11
 625 424 625 424 599 351 c 0,12,13
 528 151 528 151 437 74 c 0,14,15
 360 9 360 9 237 9 c 0,16,17
 175 9 175 9 114 53 c 1,18,19
 104 18 104 18 98 -8 c 2,20,-1
 80 -79 l 1,21,22
 17 -89 17 -89 -83 -100 c 1,23,24
 -83 -43 -83 -43 -32 132 c 0,25,26
 -25 158 -25 158 6 254 c 2,27,-1
 57 408 l 1,28,29
 105 570 105 570 191 756 c 1,30,-1
 355 775 l 1,31,32
 301 644 301 644 285 604 c 0,33,34
 244 501 244 501 220 422 c 1,35,-1
 225 423 l 1,36,37
 213 391 213 391 197 339 c 1,0,1
EndSplineSet
Validated: 1
EndChar

StartChar: paragraph
Encoding: 182 182 120
Width: 512
Flags: W
VStem: 47 230<455.739 630.625>
LayerCount: 2
Fore
SplineSet
465 717 m 1,0,-1
 465 682 l 1,1,-1
 401 682 l 1,2,-1
 401 0 l 1,3,-1
 360 0 l 1,4,-1
 360 682 l 1,5,-1
 277 682 l 1,6,-1
 277 0 l 1,7,-1
 235 0 l 1,8,-1
 235 369 l 1,9,10
 148 373 148 373 98 420 c 0,11,12
 47 467 47 467 47 543 c 0,13,14
 47 621 47 621 101 669 c 0,15,16
 154 717 154 717 243 717 c 2,17,-1
 465 717 l 1,0,-1
EndSplineSet
Validated: 1
EndChar

StartChar: periodcentered
Encoding: 183 183 121
Width: 325
Flags: W
LayerCount: 2
Fore
SplineSet
130 490 m 1,0,1
 312 513 l 1,2,3
 300 473 300 473 272 364 c 1,4,-1
 261 340 l 1,5,6
 201 340 201 340 83 319 c 1,7,8
 106 409 106 409 130 490 c 1,0,1
EndSplineSet
Validated: 1
EndChar

StartChar: cedilla
Encoding: 184 184 122
Width: 750
Flags: W
LayerCount: 2
Fore
SplineSet
405 -101 m 1,0,1
 367 -114 367 -114 326 -122 c 0,2,3
 241 -138 241 -138 171 -150 c 1,4,-1
 212 -86 l 2,5,6
 259 -12 259 -12 259 35 c 1,7,8
 322 49 l 2,9,10
 434 76 434 76 472 88 c 1,11,12
 475 75 475 75 475 58 c 0,13,14
 475 -10 475 -10 405 -101 c 1,0,1
EndSplineSet
Validated: 1
EndChar

StartChar: uni00B9
Encoding: 185 185 123
Width: 825
Flags: W
HStem: 0 12<61.9375 100 650 688.965> 737 13<61.0352 100 650 690.541>
VStem: 0 13<59.459 100 650 688.965> 738 12<61.5 100 650 688.062>
LayerCount: 2
Fore
SplineSet
651 12 m 1,0,1
 738 12 738 12 738 100 c 2,2,-1
 738 650 l 2,3,4
 738 737 738 737 650 737 c 2,5,-1
 100 737 l 2,6,7
 13 737 13 737 13 650 c 2,8,-1
 13 100 l 2,9,10
 13 12 13 12 100 12 c 2,11,-1
 651 12 l 1,0,1
100 0 m 1,12,13
 0 0 0 0 0 100 c 2,14,-1
 0 650 l 2,15,16
 0 750 0 750 100 750 c 2,17,-1
 650 750 l 2,18,19
 750 750 750 750 750 650 c 2,20,-1
 750 100 l 2,21,22
 750 0 750 0 650 0 c 2,23,-1
 100 0 l 1,12,13
EndSplineSet
Validated: 1
EndChar

StartChar: ordmasculine
Encoding: 186 186 124
Width: 825
Flags: W
HStem: 0 12<61.9375 100 650 688.965> 737 13<61.0352 100 650 690.541>
VStem: 0 13<59.459 100 650 688.965> 738 12<61.5 100 650 688.062>
LayerCount: 2
Fore
SplineSet
651 12 m 1,0,1
 738 12 738 12 738 100 c 2,2,-1
 738 650 l 2,3,4
 738 737 738 737 650 737 c 2,5,-1
 100 737 l 2,6,7
 13 737 13 737 13 650 c 2,8,-1
 13 100 l 2,9,10
 13 12 13 12 100 12 c 2,11,-1
 651 12 l 1,0,1
100 0 m 1,12,13
 0 0 0 0 0 100 c 2,14,-1
 0 650 l 2,15,16
 0 750 0 750 100 750 c 2,17,-1
 650 750 l 2,18,19
 750 750 750 750 750 650 c 2,20,-1
 750 100 l 2,21,22
 750 0 750 0 650 0 c 2,23,-1
 100 0 l 1,12,13
EndSplineSet
Validated: 1
EndChar

StartChar: guillemotright
Encoding: 187 187 125
Width: 850
Flags: W
LayerCount: 2
Fore
SplineSet
587 437 m 1,0,-1
 588 438 l 1,1,-1
 544 327 l 1,2,-1
 144 162 l 1,3,-1
 184 272 l 1,4,-1
 451 382 l 1,5,-1
 259 486 l 1,6,-1
 299 596 l 1,7,-1
 588 441 l 1,8,-1
 587 437 l 1,0,-1
867 437 m 1,9,-1
 868 438 l 1,10,-1
 824 327 l 1,11,-1
 424 162 l 1,12,-1
 464 272 l 1,13,-1
 731 382 l 1,14,-1
 539 486 l 1,15,-1
 579 596 l 1,16,-1
 868 441 l 1,17,-1
 867 437 l 1,9,-1
EndSplineSet
Validated: 1
EndChar

StartChar: onequarter
Encoding: 188 188 126
Width: 825
Flags: W
HStem: 0 12<61.9375 100 650 688.965> 737 13<61.0352 100 650 690.541>
VStem: 0 13<59.459 100 650 688.965> 738 12<61.5 100 650 688.062>
LayerCount: 2
Fore
SplineSet
651 12 m 1,0,1
 738 12 738 12 738 100 c 2,2,-1
 738 650 l 2,3,4
 738 737 738 737 650 737 c 2,5,-1
 100 737 l 2,6,7
 13 737 13 737 13 650 c 2,8,-1
 13 100 l 2,9,10
 13 12 13 12 100 12 c 2,11,-1
 651 12 l 1,0,1
100 0 m 1,12,13
 0 0 0 0 0 100 c 2,14,-1
 0 650 l 2,15,16
 0 750 0 750 100 750 c 2,17,-1
 650 750 l 2,18,19
 750 750 750 750 750 650 c 2,20,-1
 750 100 l 2,21,22
 750 0 750 0 650 0 c 2,23,-1
 100 0 l 1,12,13
EndSplineSet
Validated: 1
EndChar

StartChar: onehalf
Encoding: 189 189 127
Width: 825
Flags: W
HStem: 0 12<61.9375 100 650 688.965> 737 13<61.0352 100 650 690.541>
VStem: 0 13<59.459 100 650 688.965> 738 12<61.5 100 650 688.062>
LayerCount: 2
Fore
SplineSet
651 12 m 1,0,1
 738 12 738 12 738 100 c 2,2,-1
 738 650 l 2,3,4
 738 737 738 737 650 737 c 2,5,-1
 100 737 l 2,6,7
 13 737 13 737 13 650 c 2,8,-1
 13 100 l 2,9,10
 13 12 13 12 100 12 c 2,11,-1
 651 12 l 1,0,1
100 0 m 1,12,13
 0 0 0 0 0 100 c 2,14,-1
 0 650 l 2,15,16
 0 750 0 750 100 750 c 2,17,-1
 650 750 l 2,18,19
 750 750 750 750 750 650 c 2,20,-1
 750 100 l 2,21,22
 750 0 750 0 650 0 c 2,23,-1
 100 0 l 1,12,13
EndSplineSet
Validated: 1
EndChar

StartChar: threequarters
Encoding: 190 190 128
Width: 825
Flags: W
HStem: 0 12<61.9375 100 650 688.965> 737 13<61.0352 100 650 690.541>
VStem: 0 13<59.459 100 650 688.965> 738 12<61.5 100 650 688.062>
LayerCount: 2
Fore
SplineSet
651 12 m 1,0,1
 738 12 738 12 738 100 c 2,2,-1
 738 650 l 2,3,4
 738 737 738 737 650 737 c 2,5,-1
 100 737 l 2,6,7
 13 737 13 737 13 650 c 2,8,-1
 13 100 l 2,9,10
 13 12 13 12 100 12 c 2,11,-1
 651 12 l 1,0,1
100 0 m 1,12,13
 0 0 0 0 0 100 c 2,14,-1
 0 650 l 2,15,16
 0 750 0 750 100 750 c 2,17,-1
 650 750 l 2,18,19
 750 750 750 750 750 650 c 2,20,-1
 750 100 l 2,21,22
 750 0 750 0 650 0 c 2,23,-1
 100 0 l 1,12,13
EndSplineSet
Validated: 1
EndChar

StartChar: questiondown
Encoding: 191 191 129
Width: 550
Flags: W
HStem: 9 143<189.099 386.159>
VStem: 9 157<176.087 270.623>
LayerCount: 2
Fore
SplineSet
582 604 m 1,0,1
 400 581 l 1,2,3
 414 626 414 626 440 731 c 1,4,-1
 445 732 l 2,5,6
 525 747 525 747 629 775 c 1,7,8
 607 685 607 685 582 604 c 1,0,1
553 512 m 1,9,10
 511 392 511 392 486 349 c 1,11,12
 284 327 284 327 221 293 c 1,13,14
 166 270 166 270 166 218 c 0,15,16
 166 178 166 178 220 158 c 0,17,18
 235 152 235 152 270 152 c 0,19,20
 354 154 354 154 450 200 c 1,21,22
 487 29 l 1,23,24
 358 9 358 9 335 9 c 0,25,26
 187 10 187 10 114 46 c 0,27,28
 9 100 9 100 9 206 c 1,29,30
 28 351 28 351 210 416 c 0,31,32
 301 445 301 445 360 445 c 1,33,-1
 377 497 l 1,34,-1
 553 512 l 1,9,10
EndSplineSet
Validated: 1
EndChar

StartChar: Agrave
Encoding: 192 192 130
Width: 600
Flags: W
VStem: 480 130<366.215 663.717>
LayerCount: 2
Fore
SplineSet
688 800 m 1,0,1
 622 814 l 2,2,3
 448 854 448 854 360 859 c 1,4,5
 395 975 395 975 418 1054 c 1,6,-1
 444 1061 l 1,7,8
 469 1061 469 1061 558 1015 c 0,9,10
 722 928 722 928 737 922 c 1,11,12
 715 861 715 861 688 800 c 1,0,1
428 254 m 1,13,-1
 276 247 l 1,14,15
 229 172 229 172 190 53 c 1,16,-1
 1 6 l 1,17,18
 9 37 9 37 75 170 c 2,19,-1
 120 263 l 2,20,21
 185 394 185 394 323 585 c 0,22,23
 398 691 398 691 472 773 c 1,24,25
 516 774 516 774 601 779 c 1,26,-1
 606 715 l 2,27,28
 610 642 610 642 610 575 c 0,29,30
 610 444 610 444 591 330 c 0,31,32
 584 311 584 311 561 167 c 0,33,34
 551 108 551 108 542 70 c 1,35,-1
 352 24 l 1,36,37
 372 89 372 89 428 254 c 1,13,-1
479 615 m 1,38,39
 453 579 453 579 372 441 c 2,40,-1
 327 365 l 1,41,-1
 428 367 l 1,42,-1
 451 349 l 1,43,44
 480 412 480 412 480 580 c 0,45,46
 480 606 480 606 479 615 c 1,38,39
EndSplineSet
Validated: 1
EndChar

StartChar: Aacute
Encoding: 193 193 131
Width: 600
Flags: W
VStem: 480 130<366.215 663.717>
LayerCount: 2
Fore
SplineSet
409 932 m 1,0,1
 620 1015 620 1015 783 1055 c 1,2,-1
 795 1040 l 1,3,4
 765 934 765 934 743 869 c 1,5,6
 575 850 575 850 383 812 c 1,7,-1
 360 810 l 1,8,9
 382 871 382 871 409 932 c 1,0,1
428 254 m 1,10,11
 276 247 l 1,12,13
 229 172 229 172 190 53 c 1,14,-1
 1 6 l 1,15,16
 9 37 9 37 75 170 c 2,17,-1
 120 263 l 2,18,19
 185 394 185 394 323 585 c 0,20,21
 398 691 398 691 472 773 c 1,22,23
 516 774 516 774 601 779 c 1,24,-1
 606 715 l 2,25,26
 610 642 610 642 610 575 c 0,27,28
 610 444 610 444 591 330 c 0,29,30
 584 311 584 311 561 167 c 0,31,32
 551 108 551 108 542 70 c 1,33,-1
 352 24 l 1,34,35
 372 89 372 89 428 254 c 1,10,11
479 615 m 1,36,37
 453 579 453 579 372 441 c 2,38,-1
 327 365 l 1,39,-1
 428 367 l 1,40,-1
 451 349 l 1,41,42
 480 412 480 412 480 580 c 0,43,44
 480 606 480 606 479 615 c 1,36,37
EndSplineSet
Validated: 1
EndChar

StartChar: Acircumflex
Encoding: 194 194 132
Width: 600
Flags: W
VStem: 480 130<366.215 663.717>
LayerCount: 2
Fore
SplineSet
340 797 m 1,0,1
 385 895 385 895 417 962 c 1,2,3
 523 1018 523 1018 609 1073 c 1,4,-1
 802 940 l 1,5,6
 780 868 780 868 760 800 c 1,7,-1
 588 927 l 1,8,9
 489 867 489 867 340 797 c 1,0,1
428 254 m 1,10,11
 276 247 l 1,12,13
 229 172 229 172 190 53 c 1,14,-1
 1 6 l 1,15,16
 9 37 9 37 75 170 c 2,17,-1
 120 263 l 2,18,19
 185 394 185 394 323 585 c 0,20,21
 398 691 398 691 472 773 c 1,22,23
 516 774 516 774 601 779 c 1,24,-1
 606 715 l 2,25,26
 610 642 610 642 610 575 c 0,27,28
 610 444 610 444 591 330 c 0,29,30
 584 311 584 311 561 167 c 0,31,32
 551 108 551 108 542 70 c 1,33,-1
 352 24 l 1,34,35
 372 89 372 89 428 254 c 1,10,11
479 615 m 1,36,37
 453 579 453 579 372 441 c 2,38,-1
 327 365 l 1,39,-1
 428 367 l 1,40,-1
 451 349 l 1,41,42
 480 412 480 412 480 580 c 0,43,44
 480 606 480 606 479 615 c 1,36,37
EndSplineSet
Validated: 1
EndChar

StartChar: Atilde
Encoding: 195 195 133
Width: 600
Flags: W
HStem: 812 131<543.307 694.186> 870 136<337.978 495.633>
VStem: 480 130<366.215 663.717>
LayerCount: 2
Fore
SplineSet
725 865 m 1,0,1
 684 812 684 812 630 812 c 1,2,3
 555 822 555 822 520 838 c 0,4,5
 448 870 448 870 402 870 c 0,6,7
 338 870 338 870 267 805 c 1,8,9
 293 897 293 897 311 960 c 1,10,11
 349 1001 349 1001 391 1006 c 1,12,13
 446 1006 446 1006 531 971 c 1,14,15
 564 953 564 953 645 943 c 1,16,17
 697 943 697 943 770 997 c 1,18,19
 749 926 749 926 725 865 c 1,0,1
428 254 m 1,20,21
 276 247 l 1,22,23
 229 172 229 172 190 53 c 1,24,-1
 1 6 l 1,25,26
 9 37 9 37 75 170 c 2,27,-1
 120 263 l 2,28,29
 185 394 185 394 323 585 c 0,30,31
 398 691 398 691 472 773 c 1,32,33
 516 774 516 774 601 779 c 1,34,-1
 606 715 l 2,35,36
 610 642 610 642 610 575 c 0,37,38
 610 444 610 444 591 330 c 0,39,40
 584 311 584 311 561 167 c 0,41,42
 551 108 551 108 542 70 c 1,43,-1
 352 24 l 1,44,45
 372 89 372 89 428 254 c 1,20,21
479 615 m 1,46,47
 453 579 453 579 372 441 c 2,48,-1
 327 365 l 1,49,-1
 428 367 l 1,50,-1
 451 349 l 1,51,52
 480 412 480 412 480 580 c 0,53,54
 480 606 480 606 479 615 c 1,46,47
EndSplineSet
Validated: 1
EndChar

StartChar: Adieresis
Encoding: 196 196 134
Width: 600
Flags: W
HStem: 825 171<357.439 415.409 641.439 699.409>
VStem: 480 130<366.215 663.717>
LayerCount: 2
Fore
SplineSet
359 996 m 1,0,1
 540 1019 l 1,2,3
 527 974 527 974 501 869 c 1,4,-1
 489 845 l 1,5,6
 430 845 430 845 311 825 c 1,7,8
 334 915 334 915 359 996 c 1,0,1
643 996 m 1,9,-1
 824 1019 l 1,10,11
 811 974 811 974 785 869 c 1,12,-1
 773 845 l 1,13,14
 714 845 714 845 595 825 c 1,15,16
 618 915 618 915 643 996 c 1,9,-1
428 254 m 1,17,-1
 276 247 l 1,18,19
 229 172 229 172 190 53 c 1,20,-1
 1 6 l 1,21,22
 9 37 9 37 75 170 c 2,23,-1
 120 263 l 2,24,25
 185 394 185 394 323 585 c 0,26,27
 398 691 398 691 472 773 c 1,28,29
 516 774 516 774 601 779 c 1,30,-1
 606 715 l 2,31,32
 610 642 610 642 610 575 c 0,33,34
 610 444 610 444 591 330 c 0,35,36
 584 311 584 311 561 167 c 0,37,38
 551 108 551 108 542 70 c 1,39,-1
 352 24 l 1,40,41
 372 89 372 89 428 254 c 1,17,-1
479 615 m 1,42,43
 453 579 453 579 372 441 c 2,44,-1
 327 365 l 1,45,-1
 428 367 l 1,46,-1
 451 349 l 1,47,48
 480 412 480 412 480 580 c 0,49,50
 480 606 480 606 479 615 c 1,42,43
EndSplineSet
Validated: 1
EndChar

StartChar: Aring
Encoding: 197 197 135
Width: 600
Flags: W
HStem: 825 100<499.5 572.962> 985 99<530.729 574.784>
VStem: 425 98<932.25 950 955 976.718> 480 130<366.215 663.717> 575 90<927.35 971.843>
LayerCount: 2
Fore
SplineSet
575 955 m 1,0,1
 575 958 575 958 575 960 c 0,2,3
 575 967 575 967 571 972 c 1,4,-1
 575 974 l 1,5,6
 569 985 569 985 556 985 c 256,7,8
 543 985 543 985 534 977 c 0,9,10
 526 968 526 968 524 955 c 0,11,12
 523 952 523 952 523 950 c 0,13,14
 523 940 523 940 529 932 c 0,15,16
 536 925 536 925 545 925 c 0,17,18
 557 925 557 925 565 934 c 0,19,20
 573 942 573 942 575 955 c 1,0,1
672 1031 m 1,21,22
 658 1022 l 1,23,24
 665 1001 665 1001 665 987 c 0,25,26
 665 976 665 976 662 957 c 0,27,28
 651 898 651 898 618 863 c 0,29,30
 581 825 581 825 523 825 c 0,31,32
 476 825 476 825 450 857 c 0,33,34
 425 887 425 887 425 935 c 0,35,36
 425 946 425 946 426 957 c 0,37,38
 433 1009 433 1009 471 1046 c 0,39,40
 511 1084 511 1084 563 1084 c 0,41,42
 640 1084 640 1084 672 1031 c 1,21,22
428 254 m 1,43,-1
 276 247 l 1,44,45
 229 172 229 172 190 53 c 1,46,-1
 1 6 l 1,47,48
 9 37 9 37 75 170 c 2,49,-1
 120 263 l 2,50,51
 185 394 185 394 323 585 c 0,52,53
 398 691 398 691 472 773 c 1,54,55
 516 774 516 774 601 779 c 1,56,-1
 606 715 l 2,57,58
 610 642 610 642 610 575 c 0,59,60
 610 444 610 444 591 330 c 0,61,62
 584 311 584 311 561 167 c 0,63,64
 551 108 551 108 542 70 c 1,65,-1
 352 24 l 1,66,67
 372 89 372 89 428 254 c 1,43,-1
479 615 m 1,68,69
 453 579 453 579 372 441 c 2,70,-1
 327 365 l 1,71,-1
 428 367 l 1,72,-1
 451 349 l 1,73,74
 480 412 480 412 480 580 c 0,75,76
 480 606 480 606 479 615 c 1,68,69
EndSplineSet
Validated: 1
EndChar

StartChar: AE
Encoding: 198 198 136
Width: 850
Flags: W
HStem: 41 144<577.193 786> 41 131<577.193 786> 345 130<667 814.952> 353 130<689.464 837> 630 145<732.691 1002>
LayerCount: 2
Fore
SplineSet
359 26 m 1,0,1
 352 24 l 1,2,3
 367 71 367 71 400 172 c 0,4,5
 414 217 414 217 426 254 c 1,6,-1
 276 247 l 1,7,8
 229 172 229 172 190 53 c 1,9,-1
 1 6 l 1,10,11
 9 37 9 37 75 170 c 2,12,-1
 120 263 l 2,13,14
 185 394 185 394 323 585 c 0,15,16
 398 691 398 691 472 773 c 1,17,18
 516 774 516 774 601 779 c 1,19,-1
 603 754 l 1,20,21
 678 759 678 759 769 764 c 0,22,23
 855 769 855 769 1048 775 c 1,24,-1
 1002 630 l 1,25,-1
 944 630 l 2,26,27
 782 630 782 630 691 622 c 1,28,-1
 722 604 l 1,29,30
 715 588 715 588 685 518 c 0,31,32
 677 500 677 500 667 475 c 1,33,-1
 883 483 l 1,34,-1
 837 353 l 1,35,-1
 625 345 l 1,36,37
 602 277 602 277 574 172 c 1,38,39
 661 177 661 177 834 185 c 1,40,-1
 786 41 l 1,41,42
 741 41 741 41 708 41 c 2,43,-1
 679 41 l 2,44,45
 569 41 569 41 355 6 c 1,46,-1
 355 8 l 2,47,48
 355 10 355 10 359 26 c 1,0,1
479 615 m 1,49,50
 453 579 453 579 372 441 c 2,51,-1
 327 365 l 1,52,-1
 428 367 l 1,53,-1
 451 349 l 1,54,55
 480 412 480 412 480 580 c 0,56,57
 480 606 480 606 479 615 c 1,49,50
EndSplineSet
Validated: 1
EndChar

StartChar: Ccedilla
Encoding: 199 199 137
Width: 750
Flags: W
HStem: 607 168<347.836 535.084>
VStem: 59 148<248.913 344 383 455.021>
LayerCount: 2
Fore
SplineSet
258 21 m 1,0,1
 181 43 181 43 131 105 c 0,2,3
 59 194 59 194 59 336 c 0,4,5
 59 367 59 367 62 401 c 0,6,7
 80 553 80 553 195 663 c 0,8,9
 313 775 313 775 465 775 c 0,10,11
 694 775 694 775 789 620 c 1,12,-1
 589 524 l 1,13,14
 549 607 549 607 452 607 c 0,15,16
 353 607 353 607 287 543 c 0,17,18
 225 483 225 483 210 383 c 0,19,20
 207 360 207 360 207 344 c 0,21,22
 207 269 207 269 251 215 c 0,23,24
 297 159 297 159 371 159 c 0,25,26
 450 159 450 159 511 220 c 1,27,-1
 630 126 l 1,28,29
 563 54 563 54 472 27 c 1,30,31
 460 -31 460 -31 420 -101 c 1,32,33
 392 -169 392 -169 311 -192 c 1,34,35
 265 -200 265 -200 191 -205 c 1,36,-1
 232 -41 l 1,37,-1
 255 -39 l 1,38,39
 277 -17 277 -17 288 12 c 1,40,-1
 258 21 l 1,0,1
EndSplineSet
Validated: 1
EndChar

StartChar: Egrave
Encoding: 200 200 138
Width: 500
Flags: W
HStem: 41 144<227.193 436> 41 131<227.193 436> 345 130<317 464.952> 353 130<339.464 487> 630 145<383.625 652>
LayerCount: 2
Fore
SplineSet
638 800 m 1,0,1
 572 814 l 2,2,3
 398 854 398 854 310 859 c 1,4,5
 345 975 345 975 368 1054 c 1,6,-1
 394 1061 l 1,7,8
 419 1061 419 1061 508 1015 c 0,9,10
 672 928 672 928 687 922 c 1,11,12
 665 861 665 861 638 800 c 1,0,1
698 775 m 1,13,-1
 652 630 l 1,14,-1
 594 630 l 2,15,16
 432 630 432 630 341 622 c 1,17,-1
 372 604 l 1,18,19
 365 588 365 588 335 518 c 0,20,21
 327 500 327 500 317 475 c 1,22,-1
 533 483 l 1,23,-1
 487 353 l 1,24,-1
 275 345 l 1,25,26
 252 277 252 277 224 172 c 1,27,28
 311 177 311 177 484 185 c 1,29,-1
 436 41 l 1,30,31
 391 41 391 41 358 41 c 2,32,-1
 329 41 l 2,33,34
 219 41 219 41 5 6 c 1,35,-1
 5 8 l 2,36,37
 5 15 5 15 32 109 c 0,38,39
 63 217 63 217 87 286 c 0,40,41
 128 401 128 401 181 518 c 0,42,43
 201 562 201 562 226 609 c 1,44,45
 173 603 173 603 127 598 c 1,46,-1
 171 748 l 1,47,48
 275 756 275 756 419 764 c 0,49,50
 505 769 505 769 698 775 c 1,13,-1
EndSplineSet
Validated: 1
EndChar

StartChar: Eacute
Encoding: 201 201 139
Width: 500
Flags: W
HStem: 41 144<227.193 436> 41 131<227.193 436> 345 130<317 464.952> 353 130<339.464 487> 630 145<383.625 652>
LayerCount: 2
Fore
SplineSet
309 932 m 1,0,1
 520 1015 520 1015 683 1055 c 1,2,-1
 695 1040 l 1,3,4
 665 934 665 934 643 869 c 1,5,6
 475 850 475 850 283 812 c 1,7,-1
 260 810 l 1,8,9
 282 871 282 871 309 932 c 1,0,1
698 775 m 1,10,11
 652 630 l 1,12,-1
 594 630 l 2,13,14
 432 630 432 630 341 622 c 1,15,-1
 372 604 l 1,16,17
 365 588 365 588 335 518 c 0,18,19
 327 500 327 500 317 475 c 1,20,-1
 533 483 l 1,21,-1
 487 353 l 1,22,-1
 275 345 l 1,23,24
 252 277 252 277 224 172 c 1,25,26
 311 177 311 177 484 185 c 1,27,-1
 436 41 l 1,28,29
 391 41 391 41 358 41 c 2,30,-1
 329 41 l 2,31,32
 219 41 219 41 5 6 c 1,33,-1
 5 8 l 2,34,35
 5 15 5 15 32 109 c 0,36,37
 63 217 63 217 87 286 c 0,38,39
 128 401 128 401 181 518 c 0,40,41
 201 562 201 562 226 609 c 1,42,43
 173 603 173 603 127 598 c 1,44,-1
 171 748 l 1,45,46
 275 756 275 756 419 764 c 0,47,48
 505 769 505 769 698 775 c 1,10,11
EndSplineSet
Validated: 1
EndChar

StartChar: Ecircumflex
Encoding: 202 202 140
Width: 500
Flags: W
HStem: 41 144<227.193 436> 41 131<227.193 436> 345 130<317 464.952> 353 130<339.464 487> 630 145<383.625 652>
LayerCount: 2
Fore
SplineSet
290 797 m 1,0,1
 335 895 335 895 367 962 c 1,2,3
 473 1018 473 1018 559 1073 c 1,4,-1
 752 940 l 1,5,6
 730 868 730 868 710 800 c 1,7,-1
 538 927 l 1,8,9
 439 867 439 867 290 797 c 1,0,1
698 775 m 1,10,11
 652 630 l 1,12,-1
 594 630 l 2,13,14
 432 630 432 630 341 622 c 1,15,-1
 372 604 l 1,16,17
 365 588 365 588 335 518 c 0,18,19
 327 500 327 500 317 475 c 1,20,-1
 533 483 l 1,21,-1
 487 353 l 1,22,-1
 275 345 l 1,23,24
 252 277 252 277 224 172 c 1,25,26
 311 177 311 177 484 185 c 1,27,-1
 436 41 l 1,28,29
 391 41 391 41 358 41 c 2,30,-1
 329 41 l 2,31,32
 219 41 219 41 5 6 c 1,33,-1
 5 8 l 2,34,35
 5 15 5 15 32 109 c 0,36,37
 63 217 63 217 87 286 c 0,38,39
 128 401 128 401 181 518 c 0,40,41
 201 562 201 562 226 609 c 1,42,43
 173 603 173 603 127 598 c 1,44,-1
 171 748 l 1,45,46
 275 756 275 756 419 764 c 0,47,48
 505 769 505 769 698 775 c 1,10,11
EndSplineSet
Validated: 1
EndChar

StartChar: Edieresis
Encoding: 203 203 141
Width: 500
Flags: W
HStem: 41 144<227.193 436> 41 131<227.193 436> 345 130<317 464.952> 353 130<339.464 487> 630 145<383.625 652> 825 171<307.439 365.409 591.439 649.409>
LayerCount: 2
Fore
SplineSet
309 996 m 1,0,1
 490 1019 l 1,2,3
 477 974 477 974 451 869 c 1,4,-1
 439 845 l 1,5,6
 380 845 380 845 261 825 c 1,7,8
 284 915 284 915 309 996 c 1,0,1
593 996 m 1,9,-1
 774 1019 l 1,10,11
 761 974 761 974 735 869 c 1,12,-1
 723 845 l 1,13,14
 664 845 664 845 545 825 c 1,15,16
 568 915 568 915 593 996 c 1,9,-1
698 775 m 1,17,-1
 652 630 l 1,18,-1
 594 630 l 2,19,20
 432 630 432 630 341 622 c 1,21,-1
 372 604 l 1,22,23
 365 588 365 588 335 518 c 0,24,25
 327 500 327 500 317 475 c 1,26,-1
 533 483 l 1,27,-1
 487 353 l 1,28,-1
 275 345 l 1,29,30
 252 277 252 277 224 172 c 1,31,32
 311 177 311 177 484 185 c 1,33,-1
 436 41 l 1,34,35
 391 41 391 41 358 41 c 2,36,-1
 329 41 l 2,37,38
 219 41 219 41 5 6 c 1,39,-1
 5 8 l 2,40,41
 5 15 5 15 32 109 c 0,42,43
 63 217 63 217 87 286 c 0,44,45
 128 401 128 401 181 518 c 0,46,47
 201 562 201 562 226 609 c 1,48,49
 173 603 173 603 127 598 c 1,50,-1
 171 748 l 1,51,52
 275 756 275 756 419 764 c 0,53,54
 505 769 505 769 698 775 c 1,17,-1
EndSplineSet
Validated: 1
EndChar

StartChar: Igrave
Encoding: 204 204 142
Width: 475
Flags: W
HStem: 23 143<325.506 412> 163 21G<333 333.5> 598 150<215 326.135> 628 147<435.986 585>
LayerCount: 2
Fore
SplineSet
638 800 m 1,0,1
 572 814 l 2,2,3
 398 854 398 854 310 859 c 1,4,5
 345 975 345 975 368 1054 c 1,6,-1
 394 1061 l 1,7,8
 419 1061 419 1061 508 1015 c 0,9,10
 672 928 672 928 687 922 c 1,11,12
 665 861 665 861 638 800 c 1,0,1
149 150 m 1,13,-1
 166 207 l 2,14,15
 172 226 172 226 192 286 c 0,16,17
 222 376 222 376 286 518 c 0,18,19
 302 555 302 555 337 622 c 1,20,21
 282 613 282 613 171 598 c 1,22,-1
 215 748 l 1,23,24
 294 755 294 755 413 764 c 0,25,26
 537 774 537 774 631 775 c 1,27,-1
 585 630 l 1,28,29
 489 630 489 630 433 628 c 1,30,-1
 477 604 l 1,31,32
 462 575 462 575 439 518 c 0,33,34
 410 447 410 447 360 286 c 0,35,36
 342 227 342 227 325 163 c 1,37,38
 341 164 341 164 381 166 c 2,39,-1
 458 169 l 1,40,-1
 412 23 l 1,41,42
 295 23 295 23 260 21 c 0,43,44
 202 17 202 17 -2 -10 c 1,45,-1
 42 141 l 1,46,-1
 92 146 l 2,47,48
 114 147 114 147 149 150 c 1,13,-1
EndSplineSet
Validated: 1
EndChar

StartChar: Iacute
Encoding: 205 205 143
Width: 475
Flags: W
HStem: 23 143<325.506 412> 163 21G<333 333.5> 598 150<215 326.135> 628 147<435.986 585>
LayerCount: 2
Fore
SplineSet
309 932 m 1,0,1
 520 1015 520 1015 683 1055 c 1,2,-1
 695 1040 l 1,3,4
 665 934 665 934 643 869 c 1,5,6
 475 850 475 850 283 812 c 1,7,-1
 260 810 l 1,8,9
 282 871 282 871 309 932 c 1,0,1
149 150 m 1,10,11
 166 207 l 2,12,13
 172 226 172 226 192 286 c 0,14,15
 222 376 222 376 286 518 c 0,16,17
 302 555 302 555 337 622 c 1,18,19
 282 613 282 613 171 598 c 1,20,-1
 215 748 l 1,21,22
 294 755 294 755 413 764 c 0,23,24
 537 774 537 774 631 775 c 1,25,-1
 585 630 l 1,26,27
 489 630 489 630 433 628 c 1,28,-1
 477 604 l 1,29,30
 462 575 462 575 439 518 c 0,31,32
 410 447 410 447 360 286 c 0,33,34
 342 227 342 227 325 163 c 1,35,36
 341 164 341 164 381 166 c 2,37,-1
 458 169 l 1,38,-1
 412 23 l 1,39,40
 295 23 295 23 260 21 c 0,41,42
 202 17 202 17 -2 -10 c 1,43,-1
 42 141 l 1,44,-1
 92 146 l 2,45,46
 114 147 114 147 149 150 c 1,10,11
EndSplineSet
Validated: 1
EndChar

StartChar: Icircumflex
Encoding: 206 206 144
Width: 475
Flags: W
HStem: 23 143<325.506 412> 163 21G<333 333.5> 598 150<215 326.135> 628 147<435.986 585>
LayerCount: 2
Fore
SplineSet
240 797 m 1,0,1
 285 895 285 895 317 962 c 1,2,3
 423 1018 423 1018 509 1073 c 1,4,-1
 702 940 l 1,5,6
 680 868 680 868 660 800 c 1,7,-1
 488 927 l 1,8,9
 389 867 389 867 240 797 c 1,0,1
149 150 m 1,10,11
 166 207 l 2,12,13
 172 226 172 226 192 286 c 0,14,15
 222 376 222 376 286 518 c 0,16,17
 302 555 302 555 337 622 c 1,18,19
 282 613 282 613 171 598 c 1,20,-1
 215 748 l 1,21,22
 294 755 294 755 413 764 c 0,23,24
 537 774 537 774 631 775 c 1,25,-1
 585 630 l 1,26,27
 489 630 489 630 433 628 c 1,28,-1
 477 604 l 1,29,30
 462 575 462 575 439 518 c 0,31,32
 410 447 410 447 360 286 c 0,33,34
 342 227 342 227 325 163 c 1,35,36
 341 164 341 164 381 166 c 2,37,-1
 458 169 l 1,38,-1
 412 23 l 1,39,40
 295 23 295 23 260 21 c 0,41,42
 202 17 202 17 -2 -10 c 1,43,-1
 42 141 l 1,44,-1
 92 146 l 2,45,46
 114 147 114 147 149 150 c 1,10,11
EndSplineSet
Validated: 1
EndChar

StartChar: Idieresis
Encoding: 207 207 145
Width: 475
Flags: W
HStem: 23 143<325.506 412> 163 21G<333 333.5> 598 150<215 326.135> 628 147<435.986 585> 825 171<257.439 315.409 541.439 599.409>
LayerCount: 2
Fore
SplineSet
259 996 m 1,0,1
 440 1019 l 1,2,3
 427 974 427 974 401 869 c 1,4,-1
 389 845 l 1,5,6
 330 845 330 845 211 825 c 1,7,8
 234 915 234 915 259 996 c 1,0,1
543 996 m 1,9,-1
 724 1019 l 1,10,11
 711 974 711 974 685 869 c 1,12,-1
 673 845 l 1,13,14
 614 845 614 845 495 825 c 1,15,16
 518 915 518 915 543 996 c 1,9,-1
149 150 m 1,17,-1
 166 207 l 2,18,19
 172 226 172 226 192 286 c 0,20,21
 222 376 222 376 286 518 c 0,22,23
 302 555 302 555 337 622 c 1,24,25
 282 613 282 613 171 598 c 1,26,-1
 215 748 l 1,27,28
 294 755 294 755 413 764 c 0,29,30
 537 774 537 774 631 775 c 1,31,-1
 585 630 l 1,32,33
 489 630 489 630 433 628 c 1,34,-1
 477 604 l 1,35,36
 462 575 462 575 439 518 c 0,37,38
 410 447 410 447 360 286 c 0,39,40
 342 227 342 227 325 163 c 1,41,42
 341 164 341 164 381 166 c 2,43,-1
 458 169 l 1,44,-1
 412 23 l 1,45,46
 295 23 295 23 260 21 c 0,47,48
 202 17 202 17 -2 -10 c 1,49,-1
 42 141 l 1,50,-1
 92 146 l 2,51,52
 114 147 114 147 149 150 c 1,17,-1
EndSplineSet
Validated: 1
EndChar

StartChar: Eth
Encoding: 208 208 146
Width: 600
Flags: W
HStem: 641 134<322.257 510.626>
VStem: 536 163<460.795 614.959>
LayerCount: 2
Fore
SplineSet
326 482 m 1,0,1
 483 488 l 1,2,-1
 444 378 l 1,3,-1
 285 372 l 1,4,-1
 222 199 l 1,5,6
 346 228 346 228 451 335 c 0,7,8
 536 423 536 423 536 518 c 256,9,10
 536 613 536 613 499 626 c 0,11,12
 458 641 458 641 432 641 c 2,13,-1
 430 641 l 2,14,15
 361 638 361 638 321 626 c 1,16,-1
 377 598 l 1,17,18
 370 585 370 585 340 519 c 0,19,20
 336 507 336 507 326 482 c 1,0,1
169 475 m 1,21,22
 192 531 192 531 233 610 c 1,23,24
 217 599 217 599 188 585 c 1,25,-1
 152 756 l 1,26,27
 280 775 280 775 374 775 c 0,28,29
 395 775 395 775 422 773 c 0,30,31
 496 767 496 767 507 765 c 0,32,33
 546 759 546 759 594 738 c 0,34,35
 699 695 699 695 699 589 c 0,36,37
 699 569 699 569 695 550 c 0,38,39
 652 185 652 185 215 46 c 2,40,-1
 177 34 l 1,41,42
 88 22 88 22 9 18 c 1,43,44
 21 54 21 54 75 212 c 0,45,46
 94 269 94 269 129 366 c 1,47,-1
 54 363 l 1,48,-1
 99 473 l 1,49,-1
 169 475 l 1,21,22
EndSplineSet
Validated: 1
EndChar

StartChar: Ntilde
Encoding: 209 209 147
Width: 600
Flags: W
HStem: 812 131<593.307 744.186> 870 136<387.978 545.633>
LayerCount: 2
Fore
SplineSet
775 865 m 1,0,1
 734 812 734 812 680 812 c 1,2,3
 605 822 605 822 570 838 c 0,4,5
 498 870 498 870 452 870 c 0,6,7
 388 870 388 870 317 805 c 1,8,9
 343 897 343 897 361 960 c 1,10,11
 399 1001 399 1001 441 1006 c 1,12,13
 496 1006 496 1006 581 971 c 1,14,15
 614 953 614 953 695 943 c 1,16,17
 747 943 747 943 820 997 c 1,18,19
 799 926 799 926 775 865 c 1,0,1
217 758 m 1,20,21
 401 800 l 1,22,23
 455 583 455 583 479 393 c 0,24,25
 482 393 482 393 502 440 c 2,26,-1
 522 488 l 2,27,28
 554 565 554 565 665 765 c 1,29,-1
 685 767 l 2,30,31
 742 773 742 773 815 778 c 1,32,33
 748 656 748 656 674 488 c 0,34,35
 648 428 648 428 596 257 c 0,36,37
 582 211 582 211 541 73 c 1,38,-1
 352 27 l 1,39,40
 354 37 354 37 354 59 c 0,41,42
 354 167 354 167 327 344 c 0,43,44
 317 414 317 414 310 414 c 1,45,-1
 244 257 l 2,46,47
 199 150 199 150 190 55 c 1,48,-1
 0 9 l 1,49,50
 33 131 33 131 75 257 c 0,51,52
 107 352 107 352 169 488 c 0,53,54
 196 548 196 548 245 639 c 0,55,56
 248 648 248 648 248 653 c 0,57,58
 248 670 248 670 235 705 c 0,59,60
 219 751 219 751 217 758 c 1,20,21
EndSplineSet
Validated: 1
EndChar

StartChar: Ograve
Encoding: 210 210 148
Width: 700
Flags: W
HStem: 9 150<309.772 481.725> 607 168<367.836 555.084>
VStem: 79 148<248.913 344 383 455.021> 613 174<343.383 522.874>
LayerCount: 2
Fore
SplineSet
688 800 m 1,0,1
 622 814 l 2,2,3
 448 854 448 854 360 859 c 1,4,5
 395 975 395 975 418 1054 c 1,6,-1
 444 1061 l 1,7,8
 469 1061 469 1061 558 1015 c 0,9,10
 722 928 722 928 737 922 c 1,11,12
 715 861 715 861 688 800 c 1,0,1
609 383 m 1,13,14
 613 404 613 404 613 417 c 0,15,16
 613 475 613 475 578 506 c 1,17,-1
 609 524 l 1,18,19
 569 607 569 607 472 607 c 0,20,21
 373 607 373 607 307 543 c 0,22,23
 245 483 245 483 230 383 c 0,24,25
 227 360 227 360 227 344 c 0,26,27
 227 269 227 269 271 215 c 0,28,29
 317 159 317 159 391 159 c 0,30,31
 479 159 479 159 539 228 c 0,32,33
 593 290 593 290 609 383 c 1,13,14
809 620 m 1,34,-1
 766 591 l 1,35,36
 787 531 787 531 787 488 c 0,37,38
 787 457 787 457 777 401 c 0,39,40
 747 226 747 226 647 123 c 0,41,42
 538 9 538 9 368 9 c 0,43,44
 229 9 229 9 151 105 c 0,45,46
 79 194 79 194 79 336 c 0,47,48
 79 367 79 367 82 401 c 0,49,50
 100 553 100 553 215 663 c 0,51,52
 333 775 333 775 485 775 c 0,53,54
 714 775 714 775 809 620 c 1,34,-1
EndSplineSet
Validated: 1
EndChar

StartChar: Oacute
Encoding: 211 211 149
Width: 700
Flags: W
HStem: 9 150<309.772 481.725> 607 168<367.836 555.084>
VStem: 79 148<248.913 344 383 455.021> 613 174<343.383 522.874>
LayerCount: 2
Fore
SplineSet
359 932 m 1,0,1
 570 1015 570 1015 733 1055 c 1,2,-1
 745 1040 l 1,3,4
 715 934 715 934 693 869 c 1,5,6
 525 850 525 850 333 812 c 1,7,-1
 310 810 l 1,8,9
 332 871 332 871 359 932 c 1,0,1
609 383 m 1,10,11
 613 404 613 404 613 417 c 0,12,13
 613 475 613 475 578 506 c 1,14,-1
 609 524 l 1,15,16
 569 607 569 607 472 607 c 0,17,18
 373 607 373 607 307 543 c 0,19,20
 245 483 245 483 230 383 c 0,21,22
 227 360 227 360 227 344 c 0,23,24
 227 269 227 269 271 215 c 0,25,26
 317 159 317 159 391 159 c 0,27,28
 479 159 479 159 539 228 c 0,29,30
 593 290 593 290 609 383 c 1,10,11
809 620 m 1,31,32
 766 591 l 1,33,34
 787 531 787 531 787 488 c 0,35,36
 787 457 787 457 777 401 c 0,37,38
 747 226 747 226 647 123 c 0,39,40
 538 9 538 9 368 9 c 0,41,42
 229 9 229 9 151 105 c 0,43,44
 79 194 79 194 79 336 c 0,45,46
 79 367 79 367 82 401 c 0,47,48
 100 553 100 553 215 663 c 0,49,50
 333 775 333 775 485 775 c 0,51,52
 714 775 714 775 809 620 c 1,31,32
EndSplineSet
Validated: 1
EndChar

StartChar: Ocircumflex
Encoding: 212 212 150
Width: 700
Flags: W
HStem: 9 150<309.772 481.725> 607 168<367.836 555.084>
VStem: 79 148<248.913 344 383 455.021> 613 174<343.383 522.874>
LayerCount: 2
Fore
SplineSet
340 797 m 1,0,1
 385 895 385 895 417 962 c 1,2,3
 523 1018 523 1018 609 1073 c 1,4,-1
 802 940 l 1,5,6
 780 868 780 868 760 800 c 1,7,-1
 588 927 l 1,8,9
 489 867 489 867 340 797 c 1,0,1
609 383 m 1,10,11
 613 404 613 404 613 417 c 0,12,13
 613 475 613 475 578 506 c 1,14,-1
 609 524 l 1,15,16
 569 607 569 607 472 607 c 0,17,18
 373 607 373 607 307 543 c 0,19,20
 245 483 245 483 230 383 c 0,21,22
 227 360 227 360 227 344 c 0,23,24
 227 269 227 269 271 215 c 0,25,26
 317 159 317 159 391 159 c 0,27,28
 479 159 479 159 539 228 c 0,29,30
 593 290 593 290 609 383 c 1,10,11
809 620 m 1,31,32
 766 591 l 1,33,34
 787 531 787 531 787 488 c 0,35,36
 787 457 787 457 777 401 c 0,37,38
 747 226 747 226 647 123 c 0,39,40
 538 9 538 9 368 9 c 0,41,42
 229 9 229 9 151 105 c 0,43,44
 79 194 79 194 79 336 c 0,45,46
 79 367 79 367 82 401 c 0,47,48
 100 553 100 553 215 663 c 0,49,50
 333 775 333 775 485 775 c 0,51,52
 714 775 714 775 809 620 c 1,31,32
EndSplineSet
Validated: 1
EndChar

StartChar: Otilde
Encoding: 213 213 151
Width: 700
Flags: W
HStem: 9 150<309.772 481.725> 607 168<367.836 555.084> 812 131<593.307 744.186> 870 136<387.978 545.633>
VStem: 79 148<248.913 344 383 455.021> 613 174<343.383 522.874>
LayerCount: 2
Fore
SplineSet
775 865 m 1,0,1
 734 812 734 812 680 812 c 1,2,3
 605 822 605 822 570 838 c 0,4,5
 498 870 498 870 452 870 c 0,6,7
 388 870 388 870 317 805 c 1,8,9
 343 897 343 897 361 960 c 1,10,11
 399 1001 399 1001 441 1006 c 1,12,13
 496 1006 496 1006 581 971 c 1,14,15
 614 953 614 953 695 943 c 1,16,17
 747 943 747 943 820 997 c 1,18,19
 799 926 799 926 775 865 c 1,0,1
609 383 m 1,20,21
 613 404 613 404 613 417 c 0,22,23
 613 475 613 475 578 506 c 1,24,-1
 609 524 l 1,25,26
 569 607 569 607 472 607 c 0,27,28
 373 607 373 607 307 543 c 0,29,30
 245 483 245 483 230 383 c 0,31,32
 227 360 227 360 227 344 c 0,33,34
 227 269 227 269 271 215 c 0,35,36
 317 159 317 159 391 159 c 0,37,38
 479 159 479 159 539 228 c 0,39,40
 593 290 593 290 609 383 c 1,20,21
809 620 m 1,41,42
 766 591 l 1,43,44
 787 531 787 531 787 488 c 0,45,46
 787 457 787 457 777 401 c 0,47,48
 747 226 747 226 647 123 c 0,49,50
 538 9 538 9 368 9 c 0,51,52
 229 9 229 9 151 105 c 0,53,54
 79 194 79 194 79 336 c 0,55,56
 79 367 79 367 82 401 c 0,57,58
 100 553 100 553 215 663 c 0,59,60
 333 775 333 775 485 775 c 0,61,62
 714 775 714 775 809 620 c 1,41,42
EndSplineSet
Validated: 1
EndChar

StartChar: Odieresis
Encoding: 214 214 152
Width: 700
Flags: W
HStem: 9 150<309.772 481.725> 607 168<367.836 555.084> 825 171<357.439 415.409 641.439 699.409>
VStem: 79 148<248.913 344 383 455.021> 613 174<343.383 522.874>
LayerCount: 2
Fore
SplineSet
359 996 m 1,0,1
 540 1019 l 1,2,3
 527 974 527 974 501 869 c 1,4,-1
 489 845 l 1,5,6
 430 845 430 845 311 825 c 1,7,8
 334 915 334 915 359 996 c 1,0,1
643 996 m 1,9,-1
 824 1019 l 1,10,11
 811 974 811 974 785 869 c 1,12,-1
 773 845 l 1,13,14
 714 845 714 845 595 825 c 1,15,16
 618 915 618 915 643 996 c 1,9,-1
609 383 m 1,17,18
 613 404 613 404 613 417 c 0,19,20
 613 475 613 475 578 506 c 1,21,-1
 609 524 l 1,22,23
 569 607 569 607 472 607 c 0,24,25
 373 607 373 607 307 543 c 0,26,27
 245 483 245 483 230 383 c 0,28,29
 227 360 227 360 227 344 c 0,30,31
 227 269 227 269 271 215 c 0,32,33
 317 159 317 159 391 159 c 0,34,35
 479 159 479 159 539 228 c 0,36,37
 593 290 593 290 609 383 c 1,17,18
809 620 m 1,38,-1
 766 591 l 1,39,40
 787 531 787 531 787 488 c 0,41,42
 787 457 787 457 777 401 c 0,43,44
 747 226 747 226 647 123 c 0,45,46
 538 9 538 9 368 9 c 0,47,48
 229 9 229 9 151 105 c 0,49,50
 79 194 79 194 79 336 c 0,51,52
 79 367 79 367 82 401 c 0,53,54
 100 553 100 553 215 663 c 0,55,56
 333 775 333 775 485 775 c 0,57,58
 714 775 714 775 809 620 c 1,38,-1
EndSplineSet
Validated: 1
EndChar

StartChar: multiply
Encoding: 215 215 153
Width: 625
Flags: W
VStem: 320 144<126.883 304.618>
LayerCount: 2
Fore
SplineSet
316 467 m 1,0,1
 302 641 302 641 263 715 c 1,2,-1
 388 715 l 1,3,4
 410 661 410 661 431 585 c 1,5,6
 518 674 518 674 574 715 c 1,7,-1
 699 715 l 1,8,-1
 643 652 l 2,9,10
 611 618 611 618 526 528 c 2,11,-1
 454 450 l 1,12,13
 464 371 464 371 464 279 c 0,14,15
 464 185 464 185 454 125 c 1,16,-1
 302 106 l 1,17,18
 318 181 318 181 320 307 c 1,19,20
 196 169 196 169 153 119 c 1,21,-1
 0 96 l 1,22,23
 130 269 130 269 316 467 c 1,0,1
EndSplineSet
Validated: 1
EndChar

StartChar: Oslash
Encoding: 216 216 154
Width: 700
Flags: W
HStem: 9 150<309.28 481.725> 607 168<367.836 496.699>
VStem: 79 148<309.503 455.772> 613 174<343.383 517.023>
LayerCount: 2
Fore
SplineSet
737 701 m 1,0,1
 779 668 779 668 809 620 c 1,2,-1
 766 591 l 1,3,4
 787 531 787 531 787 488 c 0,5,6
 787 457 787 457 777 401 c 0,7,8
 747 226 747 226 647 123 c 0,9,10
 538 9 538 9 368 9 c 0,11,12
 259 9 259 9 188 68 c 1,13,-1
 175 53 l 1,14,-1
 -14 6 l 1,15,16
 49 90 49 90 112 168 c 1,17,18
 79 240 79 240 79 336 c 0,19,20
 79 367 79 367 82 401 c 0,21,22
 100 553 100 553 215 663 c 0,23,24
 333 775 333 775 485 775 c 0,25,26
 572 775 572 775 641 752 c 1,27,28
 645 757 645 757 650 762 c 1,29,-1
 671 764 l 2,30,31
 727 771 727 771 801 775 c 1,32,33
 776 745 776 745 737 701 c 1,0,1
229 309 m 1,34,35
 267 353 267 353 304 395 c 2,36,-1
 452 557 l 2,37,38
 473 580 473 580 498 605 c 1,39,40
 485 607 485 607 472 607 c 0,41,42
 373 607 373 607 307 543 c 0,43,44
 245 483 245 483 230 383 c 0,45,46
 227 360 227 360 227 344 c 0,47,48
 227 326 227 326 229 309 c 1,34,35
296 190 m 1,49,50
 336 159 336 159 391 159 c 0,51,52
 479 159 479 159 539 228 c 0,53,54
 593 290 593 290 609 383 c 0,55,56
 613 404 613 404 613 417 c 0,57,58
 613 475 613 475 578 506 c 1,59,-1
 609 524 l 1,60,61
 605 533 605 533 599 542 c 1,62,-1
 484 409 l 1,63,-1
 329 228 l 1,64,-1
 296 190 l 1,49,50
EndSplineSet
Validated: 1
EndChar

StartChar: Ugrave
Encoding: 217 217 155
Width: 650
Flags: W
HStem: 9 160<275.857 389.311>
VStem: 87 164<194.56 375.494>
LayerCount: 2
Fore
SplineSet
688 800 m 1,0,1
 622 814 l 2,2,3
 448 854 448 854 360 859 c 1,4,5
 395 975 395 975 418 1054 c 1,6,-1
 444 1061 l 1,7,8
 469 1061 469 1061 558 1015 c 0,9,10
 722 928 722 928 737 922 c 1,11,12
 715 861 715 861 688 800 c 1,0,1
799 775 m 1,13,14
 779 728 779 728 732 576 c 256,15,16
 685 424 685 424 659 351 c 0,17,18
 588 151 588 151 497 74 c 0,19,20
 420 9 420 9 297 9 c 0,21,22
 235 9 235 9 174 53 c 0,23,24
 87 117 87 117 87 240 c 0,25,26
 87 292 87 292 102 351 c 0,27,28
 149 537 149 537 251 756 c 1,29,-1
 415 775 l 1,30,31
 361 644 361 644 345 604 c 0,32,33
 284 450 284 450 260 351 c 0,34,35
 251 314 251 314 251 279 c 0,36,37
 251 169 251 169 330 169 c 0,38,39
 420 169 420 169 488 351 c 2,40,-1
 646 775 l 1,41,-1
 799 775 l 1,13,14
EndSplineSet
Validated: 1
EndChar

StartChar: Uacute
Encoding: 218 218 156
Width: 650
Flags: W
HStem: 9 160<275.857 389.311>
VStem: 87 164<194.56 375.494>
LayerCount: 2
Fore
SplineSet
394 932 m 1,0,1
 605 1015 605 1015 768 1055 c 1,2,-1
 780 1040 l 1,3,4
 750 934 750 934 728 869 c 1,5,6
 560 850 560 850 368 812 c 1,7,-1
 345 810 l 1,8,9
 367 871 367 871 394 932 c 1,0,1
799 775 m 1,10,11
 779 728 779 728 732 576 c 256,12,13
 685 424 685 424 659 351 c 0,14,15
 588 151 588 151 497 74 c 0,16,17
 420 9 420 9 297 9 c 0,18,19
 235 9 235 9 174 53 c 0,20,21
 87 117 87 117 87 240 c 0,22,23
 87 292 87 292 102 351 c 0,24,25
 149 537 149 537 251 756 c 1,26,-1
 415 775 l 1,27,28
 361 644 361 644 345 604 c 0,29,30
 284 450 284 450 260 351 c 0,31,32
 251 314 251 314 251 279 c 0,33,34
 251 169 251 169 330 169 c 0,35,36
 420 169 420 169 488 351 c 2,37,-1
 646 775 l 1,38,-1
 799 775 l 1,10,11
EndSplineSet
Validated: 1
EndChar

StartChar: Ucircumflex
Encoding: 219 219 157
Width: 650
Flags: W
HStem: 9 160<275.857 389.311>
VStem: 87 164<194.56 375.494>
LayerCount: 2
Fore
SplineSet
340 797 m 1,0,1
 385 895 385 895 417 962 c 1,2,3
 523 1018 523 1018 609 1073 c 1,4,-1
 802 940 l 1,5,6
 780 868 780 868 760 800 c 1,7,-1
 588 927 l 1,8,9
 489 867 489 867 340 797 c 1,0,1
799 775 m 1,10,11
 779 728 779 728 732 576 c 256,12,13
 685 424 685 424 659 351 c 0,14,15
 588 151 588 151 497 74 c 0,16,17
 420 9 420 9 297 9 c 0,18,19
 235 9 235 9 174 53 c 0,20,21
 87 117 87 117 87 240 c 0,22,23
 87 292 87 292 102 351 c 0,24,25
 149 537 149 537 251 756 c 1,26,-1
 415 775 l 1,27,28
 361 644 361 644 345 604 c 0,29,30
 284 450 284 450 260 351 c 0,31,32
 251 314 251 314 251 279 c 0,33,34
 251 169 251 169 330 169 c 0,35,36
 420 169 420 169 488 351 c 2,37,-1
 646 775 l 1,38,-1
 799 775 l 1,10,11
EndSplineSet
Validated: 1
EndChar

StartChar: Udieresis
Encoding: 220 220 158
Width: 650
Flags: W
HStem: 9 160<275.857 389.311> 825 171<357.439 415.409 641.439 699.409>
VStem: 87 164<194.56 375.494>
LayerCount: 2
Fore
SplineSet
359 996 m 1,0,1
 540 1019 l 1,2,3
 527 974 527 974 501 869 c 1,4,-1
 489 845 l 1,5,6
 430 845 430 845 311 825 c 1,7,8
 334 915 334 915 359 996 c 1,0,1
643 996 m 1,9,-1
 824 1019 l 1,10,11
 811 974 811 974 785 869 c 1,12,-1
 773 845 l 1,13,14
 714 845 714 845 595 825 c 1,15,16
 618 915 618 915 643 996 c 1,9,-1
799 775 m 1,17,18
 779 728 779 728 732 576 c 256,19,20
 685 424 685 424 659 351 c 0,21,22
 588 151 588 151 497 74 c 0,23,24
 420 9 420 9 297 9 c 0,25,26
 235 9 235 9 174 53 c 0,27,28
 87 117 87 117 87 240 c 0,29,30
 87 292 87 292 102 351 c 0,31,32
 149 537 149 537 251 756 c 1,33,-1
 415 775 l 1,34,35
 361 644 361 644 345 604 c 0,36,37
 284 450 284 450 260 351 c 0,38,39
 251 314 251 314 251 279 c 0,40,41
 251 169 251 169 330 169 c 0,42,43
 420 169 420 169 488 351 c 2,44,-1
 646 775 l 1,45,-1
 799 775 l 1,17,18
EndSplineSet
Validated: 1
EndChar

StartChar: Yacute
Encoding: 221 221 159
Width: 550
Flags: W
LayerCount: 2
Fore
SplineSet
309 932 m 1,0,1
 520 1015 520 1015 683 1055 c 1,2,-1
 695 1040 l 1,3,4
 665 934 665 934 643 869 c 1,5,6
 475 850 475 850 283 812 c 1,7,-1
 260 810 l 1,8,9
 282 871 282 871 309 932 c 1,0,1
422 360 m 1,10,11
 402 293 402 293 342 53 c 1,12,-1
 336 51 l 1,13,14
 269 39 269 39 152 6 c 1,15,16
 159 34 159 34 213 197 c 2,17,-1
 265 360 l 1,18,19
 249 412 249 412 232 509 c 0,20,21
 210 637 210 637 205 660 c 0,22,23
 191 721 191 721 175 754 c 1,24,-1
 330 754 l 1,25,26
 339 723 339 723 350 649 c 2,27,-1
 374 492 l 1,28,29
 390 519 390 519 472 651 c 0,30,31
 520 728 520 728 552 756 c 1,32,-1
 718 779 l 1,33,34
 663 728 663 728 515 503 c 0,35,36
 454 411 454 411 422 360 c 1,10,11
EndSplineSet
Validated: 1
EndChar

StartChar: Thorn
Encoding: 222 222 160
Width: 600
Flags: W
HStem: 200 127<282 440.046>
VStem: 504 157<374.402 468.976>
LayerCount: 2
Fore
SplineSet
401 631 m 1,0,1
 460 627 460 627 469 625 c 0,2,3
 508 619 508 619 556 598 c 0,4,5
 661 555 661 555 661 449 c 0,6,7
 661 433 661 433 657 410 c 0,8,9
 632 283 632 283 461 228 c 0,10,11
 369 200 369 200 240 200 c 1,12,-1
 199 54 l 1,13,-1
 193 53 l 2,14,15
 113 37 113 37 9 9 c 1,16,17
 85 238 85 238 149 379 c 0,18,19
 162 407 162 407 182 455 c 1,20,21
 166 449 166 449 150 445 c 1,22,-1
 114 616 l 1,23,24
 190 627 190 627 253 632 c 1,25,-1
 295 745 l 1,26,-1
 450 770 l 1,27,-1
 401 631 l 1,0,1
504 427 m 1,28,29
 504 467 504 467 451 486 c 0,30,31
 435 492 435 492 400 492 c 2,32,-1
 387 492 l 2,33,34
 356 491 356 491 339 458 c 0,35,36
 321 426 321 426 302 379 c 0,37,38
 300 376 300 376 282 325 c 1,39,-1
 325 327 l 2,40,41
 392 328 392 328 438 346 c 0,42,43
 504 372 504 372 504 427 c 1,28,29
EndSplineSet
Validated: 1
EndChar

StartChar: germandbls
Encoding: 223 223 161
Width: 675
Flags: W
HStem: 632 141<392.234 518.768>
VStem: 438 158<224.831 320.886> 542 157<514.191 608.976>
LayerCount: 2
Fore
SplineSet
344 343 m 1,0,1
 378 467 l 1,2,3
 435 470 435 470 476 486 c 0,4,5
 542 512 542 512 542 567 c 0,6,7
 542 607 542 607 489 626 c 0,8,9
 473 632 473 632 438 632 c 2,10,-1
 425 632 l 2,11,12
 394 631 394 631 353 550 c 1,13,-1
 350 550 l 1,14,-1
 160 27 l 1,15,-1
 131 24 l 2,16,17
 66 17 66 17 9 9 c 1,18,19
 44 144 44 144 103 288 c 1,20,-1
 187 519 l 2,21,22
 200 547 200 547 225 595 c 0,23,24
 300 760 300 760 422 773 c 1,25,26
 536 769 536 769 604 738 c 0,27,28
 699 695 699 695 699 589 c 0,29,30
 699 573 699 573 695 550 c 0,31,32
 675 446 675 446 567 377 c 1,33,34
 596 322 596 322 596 300 c 0,35,36
 596 284 596 284 591 261 c 0,37,38
 558 92 558 92 377 51 c 0,39,40
 370 50 370 50 261 38 c 1,41,-1
 299 180 l 1,42,43
 340 185 340 185 371 197 c 0,44,45
 438 223 438 223 438 278 c 0,46,47
 438 318 438 318 385 337 c 0,48,49
 372 342 372 342 344 343 c 1,0,1
EndSplineSet
Validated: 1
EndChar

StartChar: agrave
Encoding: 224 224 162
Width: 453
Flags: W
VStem: 384 104<435.884 672.421>
LayerCount: 2
Fore
SplineSet
551 795 m 1,0,1
 497 806 l 2,2,3
 358 838 358 838 288 842 c 1,4,5
 316 935 316 935 334 998 c 1,6,-1
 355 1004 l 1,7,8
 375 1004 375 1004 447 967 c 0,9,10
 578 897 578 897 590 892 c 1,11,12
 572 844 572 844 551 795 c 1,0,1
342 358 m 1,13,-1
 221 352 l 1,14,15
 183 293 183 293 152 197 c 1,16,-1
 1 160 l 1,17,18
 7 185 7 185 60 291 c 2,19,-1
 96 365 l 2,20,21
 148 470 148 470 258 623 c 0,22,23
 319 708 319 708 378 773 c 1,24,25
 413 774 413 774 481 778 c 1,26,-1
 485 727 l 2,27,28
 488 669 488 669 488 615 c 0,29,30
 488 510 488 510 473 419 c 0,31,32
 467 404 467 404 449 289 c 0,33,34
 441 241 441 241 433 211 c 1,35,-1
 282 174 l 1,36,37
 298 226 298 226 342 358 c 1,13,-1
383 647 m 1,38,39
 363 618 363 618 297 508 c 2,40,-1
 261 447 l 1,41,-1
 343 448 l 1,42,-1
 361 434 l 1,43,44
 384 484 384 484 384 619 c 0,45,46
 384 640 384 640 383 647 c 1,38,39
EndSplineSet
Validated: 1
EndChar

StartChar: aacute
Encoding: 225 225 163
Width: 441
Flags: W
VStem: 384 104<435.884 672.421>
LayerCount: 2
Fore
SplineSet
327 900 m 1,0,1
 496 967 496 967 626 999 c 1,2,-1
 636 987 l 1,3,4
 612 902 612 902 594 850 c 1,5,6
 460 835 460 835 306 804 c 1,7,-1
 288 803 l 1,8,9
 306 852 306 852 327 900 c 1,0,1
342 358 m 1,10,11
 221 352 l 1,12,13
 183 293 183 293 152 197 c 1,14,-1
 1 160 l 1,15,16
 7 185 7 185 60 291 c 2,17,-1
 96 365 l 2,18,19
 148 470 148 470 258 623 c 0,20,21
 319 708 319 708 378 773 c 1,22,23
 413 774 413 774 481 778 c 1,24,-1
 485 727 l 2,25,26
 488 669 488 669 488 615 c 0,27,28
 488 510 488 510 473 419 c 0,29,30
 467 404 467 404 449 289 c 0,31,32
 441 241 441 241 433 211 c 1,33,-1
 282 174 l 1,34,35
 298 226 298 226 342 358 c 1,10,11
383 647 m 1,36,37
 363 618 363 618 297 508 c 2,38,-1
 261 447 l 1,39,-1
 343 448 l 1,40,-1
 361 434 l 1,41,42
 384 484 384 484 384 619 c 0,43,44
 384 640 384 640 383 647 c 1,36,37
EndSplineSet
Validated: 1
EndChar

StartChar: acircumflex
Encoding: 226 226 164
Width: 440
Flags: W
VStem: 384 104<435.884 672.421>
LayerCount: 2
Fore
SplineSet
272 792 m 1,0,1
 308 871 308 871 334 924 c 1,2,3
 419 969 419 969 487 1014 c 1,4,-1
 642 907 l 1,5,6
 624 850 624 850 608 795 c 1,7,-1
 470 896 l 1,8,9
 391 848 391 848 272 792 c 1,0,1
342 358 m 1,10,11
 221 352 l 1,12,13
 183 293 183 293 152 197 c 1,14,-1
 1 160 l 1,15,16
 7 185 7 185 60 291 c 2,17,-1
 96 365 l 2,18,19
 148 470 148 470 258 623 c 0,20,21
 319 708 319 708 378 773 c 1,22,23
 413 774 413 774 481 778 c 1,24,-1
 485 727 l 2,25,26
 488 669 488 669 488 615 c 0,27,28
 488 510 488 510 473 419 c 0,29,30
 467 404 467 404 449 289 c 0,31,32
 441 241 441 241 433 211 c 1,33,-1
 282 174 l 1,34,35
 298 226 298 226 342 358 c 1,10,11
383 647 m 1,36,37
 363 618 363 618 297 508 c 2,38,-1
 261 447 l 1,39,-1
 343 448 l 1,40,-1
 361 434 l 1,41,42
 384 484 384 484 384 619 c 0,43,44
 384 640 384 640 383 647 c 1,36,37
EndSplineSet
Validated: 1
EndChar

StartChar: atilde
Encoding: 227 227 165
Width: 446
Flags: W
HStem: 804 106<424.757 560.544> 851 109<264.936 406.711>
VStem: 384 104<435.884 672.421>
LayerCount: 2
Fore
SplineSet
580 847 m 1,0,1
 547 804 547 804 504 804 c 1,2,3
 444 812 444 812 416 825 c 0,4,5
 358 851 358 851 322 851 c 0,6,7
 270 851 270 851 214 799 c 1,8,9
 234 873 234 873 249 923 c 1,10,11
 279 956 279 956 313 960 c 1,12,13
 357 960 357 960 425 932 c 0,14,15
 451 918 451 918 516 910 c 1,16,17
 558 910 558 910 616 952 c 1,18,19
 599 896 599 896 580 847 c 1,0,1
342 358 m 1,20,21
 221 352 l 1,22,23
 183 293 183 293 152 197 c 1,24,-1
 1 160 l 1,25,26
 7 185 7 185 60 291 c 2,27,-1
 96 365 l 2,28,29
 148 470 148 470 258 623 c 0,30,31
 319 708 319 708 378 773 c 1,32,33
 413 774 413 774 481 778 c 1,34,-1
 485 727 l 2,35,36
 488 669 488 669 488 615 c 0,37,38
 488 510 488 510 473 419 c 0,39,40
 467 404 467 404 449 289 c 0,41,42
 441 241 441 241 433 211 c 1,43,-1
 282 174 l 1,44,45
 298 226 298 226 342 358 c 1,20,21
383 647 m 1,46,47
 363 618 363 618 297 508 c 2,48,-1
 261 447 l 1,49,-1
 343 448 l 1,50,-1
 361 434 l 1,51,52
 384 484 384 484 384 619 c 0,53,54
 384 640 384 640 383 647 c 1,46,47
EndSplineSet
Validated: 1
EndChar

StartChar: adieresis
Encoding: 228 228 166
Width: 436
Flags: W
HStem: 815 137<285.129 344.742 512.129 571.742>
VStem: 384 104<435.884 672.421>
LayerCount: 2
Fore
SplineSet
287 952 m 1,0,1
 432 970 l 1,2,3
 421 934 421 934 401 850 c 1,4,-1
 391 831 l 1,5,6
 344 831 344 831 249 815 c 1,7,8
 267 887 267 887 287 952 c 1,0,1
514 952 m 1,9,-1
 659 970 l 1,10,11
 649 934 649 934 628 850 c 1,12,-1
 619 831 l 1,13,14
 571 831 571 831 476 815 c 1,15,16
 494 887 494 887 514 952 c 1,9,-1
342 358 m 1,17,-1
 221 352 l 1,18,19
 183 293 183 293 152 197 c 1,20,-1
 1 160 l 1,21,22
 7 185 7 185 60 291 c 2,23,-1
 96 365 l 2,24,25
 148 470 148 470 258 623 c 0,26,27
 319 708 319 708 378 773 c 1,28,29
 413 774 413 774 481 778 c 1,30,-1
 485 727 l 2,31,32
 488 669 488 669 488 615 c 0,33,34
 488 510 488 510 473 419 c 0,35,36
 467 404 467 404 449 289 c 0,37,38
 441 241 441 241 433 211 c 1,39,-1
 282 174 l 1,40,41
 298 226 298 226 342 358 c 1,17,-1
383 647 m 1,42,43
 363 618 363 618 297 508 c 2,44,-1
 261 447 l 1,45,-1
 343 448 l 1,46,-1
 361 434 l 1,47,48
 384 484 384 484 384 619 c 0,49,50
 384 640 384 640 383 647 c 1,42,43
EndSplineSet
Validated: 1
EndChar

StartChar: aring
Encoding: 229 229 167
Width: 466
Flags: W
HStem: 815 80<399.5 459.236> 943 79<423.296 459.671>
VStem: 340 79<901.188 935.811> 384 104<435.884 672.421> 460 72<895.582 931.906>
LayerCount: 2
Fore
SplineSet
460 919 m 1,0,1
 460 921 460 921 460 923 c 0,2,3
 460 929 460 929 457 932 c 1,4,-1
 460 934 l 1,5,6
 456 943 456 943 445 943 c 0,7,8
 435 943 435 943 427 936 c 0,9,10
 421 930 421 930 419 919 c 0,11,12
 419 916 419 916 419 915 c 0,13,14
 419 907 419 907 423 901 c 0,15,16
 428 895 428 895 436 895 c 0,17,18
 446 895 446 895 452 902 c 256,19,20
 458 909 458 909 460 919 c 1,0,1
538 980 m 1,21,22
 526 972 l 1,23,24
 532 956 532 956 532 944 c 0,25,26
 532 936 532 936 529 921 c 0,27,28
 521 873 521 873 494 845 c 0,29,30
 464 815 464 815 418 815 c 0,31,32
 381 815 381 815 360 841 c 0,33,34
 340 865 340 865 340 903 c 0,35,36
 340 912 340 912 341 921 c 0,37,38
 346 962 346 962 377 992 c 0,39,40
 409 1022 409 1022 450 1022 c 0,41,42
 512 1022 512 1022 538 980 c 1,21,22
342 358 m 1,43,-1
 221 352 l 1,44,45
 183 293 183 293 152 197 c 1,46,-1
 1 160 l 1,47,48
 7 185 7 185 60 291 c 2,49,-1
 96 365 l 2,50,51
 148 470 148 470 258 623 c 0,52,53
 319 708 319 708 378 773 c 1,54,55
 413 774 413 774 481 778 c 1,56,-1
 485 727 l 2,57,58
 488 669 488 669 488 615 c 0,59,60
 488 510 488 510 473 419 c 0,61,62
 467 404 467 404 449 289 c 0,63,64
 441 241 441 241 433 211 c 1,65,-1
 282 174 l 1,66,67
 298 226 298 226 342 358 c 1,43,-1
383 647 m 1,68,69
 363 618 363 618 297 508 c 2,70,-1
 261 447 l 1,71,-1
 343 448 l 1,72,-1
 361 434 l 1,73,74
 384 484 384 484 384 619 c 0,75,76
 384 640 384 640 383 647 c 1,68,69
EndSplineSet
Validated: 1
EndChar

StartChar: ae
Encoding: 230 230 168
Width: 641
Flags: W
HStem: 188 115<461.585 629> 188 105<461.585 629> 659 116<555.295 801>
LayerCount: 2
Fore
SplineSet
287 176 m 1,0,1
 282 174 l 1,2,3
 293 212 293 212 320 292 c 0,4,5
 331 329 331 329 341 358 c 1,6,-1
 221 352 l 1,7,8
 183 293 183 293 152 197 c 1,9,-1
 1 160 l 1,10,11
 7 185 7 185 60 291 c 2,12,-1
 96 365 l 2,13,14
 148 470 148 470 258 623 c 0,15,16
 319 708 319 708 378 773 c 1,17,18
 413 774 413 774 481 778 c 1,19,-1
 482 758 l 1,20,21
 543 762 543 762 615 766 c 0,22,23
 684 770 684 770 838 775 c 1,24,-1
 801 659 l 1,25,-1
 755 659 l 2,26,27
 626 659 626 659 553 653 c 1,28,-1
 578 638 l 1,29,30
 572 625 572 625 548 569 c 0,31,32
 542 555 542 555 534 535 c 1,33,-1
 706 542 l 1,34,-1
 670 437 l 1,35,-1
 500 431 l 1,36,37
 481 377 481 377 459 293 c 1,38,39
 529 297 529 297 667 303 c 1,40,-1
 629 188 l 1,41,-1
 543 188 l 2,42,43
 455 188 455 188 284 160 c 1,44,-1
 284 161 l 2,45,46
 284 163 284 163 287 176 c 1,0,1
383 647 m 1,47,48
 363 618 363 618 297 508 c 2,49,-1
 261 447 l 1,50,-1
 343 448 l 1,51,-1
 361 434 l 1,52,53
 384 484 384 484 384 619 c 0,54,55
 384 640 384 640 383 647 c 1,47,48
EndSplineSet
Validated: 1
EndChar

StartChar: ccedilla
Encoding: 231 231 169
Width: 604
Flags: W
HStem: 640 135<279.699 448.008>
VStem: 59 118<347.616 430 461 527.748>
LayerCount: 2
Fore
SplineSet
218 172 m 1,0,1
 157 189 157 189 116 239 c 0,2,3
 59 310 59 310 59 424 c 0,4,5
 59 448 59 448 61 476 c 0,6,7
 76 598 76 598 168 686 c 0,8,9
 262 775 262 775 383 775 c 0,10,11
 567 775 567 775 643 651 c 1,12,-1
 483 574 l 1,13,14
 451 640 451 640 373 640 c 0,15,16
 294 640 294 640 241 590 c 0,17,18
 192 541 192 541 180 461 c 0,19,20
 177 443 177 443 177 430 c 0,21,22
 177 370 177 370 212 327 c 0,23,24
 249 282 249 282 308 282 c 0,25,26
 372 282 372 282 420 331 c 1,27,-1
 516 256 l 1,28,29
 462 198 462 198 389 176 c 1,30,31
 379 130 379 130 347 74 c 1,32,33
 325 20 325 20 260 2 c 0,34,35
 224 -5 224 -5 165 -9 c 1,36,-1
 197 122 l 1,37,-1
 215 124 l 1,38,39
 233 141 233 141 242 165 c 1,40,-1
 218 172 l 1,0,1
EndSplineSet
Validated: 1
EndChar

StartChar: egrave
Encoding: 232 232 170
Width: 362
Flags: W
HStem: 188 115<182.585 350> 188 105<182.585 350> 659 116<277.164 522>
LayerCount: 2
Fore
SplineSet
512 795 m 1,0,1
 458 806 l 2,2,3
 319 838 319 838 249 842 c 1,4,5
 277 935 277 935 295 998 c 1,6,-1
 316 1004 l 1,7,8
 336 1004 336 1004 408 967 c 0,9,10
 539 897 539 897 551 892 c 1,11,12
 533 844 533 844 512 795 c 1,0,1
559 775 m 1,13,-1
 522 659 l 1,14,-1
 476 659 l 2,15,16
 347 659 347 659 274 653 c 1,17,-1
 299 638 l 1,18,19
 293 625 293 625 269 569 c 0,20,21
 263 555 263 555 255 535 c 1,22,-1
 427 542 l 1,23,-1
 391 437 l 1,24,-1
 221 431 l 1,25,26
 202 377 202 377 180 293 c 1,27,28
 250 297 250 297 388 303 c 1,29,-1
 350 188 l 1,30,-1
 264 188 l 2,31,32
 176 188 176 188 5 160 c 1,33,-1
 5 161 l 2,34,35
 5 167 5 167 26 242 c 0,36,37
 51 329 51 329 71 384 c 0,38,39
 104 476 104 476 146 569 c 0,40,41
 162 604 162 604 182 642 c 1,42,43
 139 638 139 638 102 633 c 1,44,-1
 138 753 l 1,45,46
 221 760 221 760 336 766 c 0,47,48
 405 770 405 770 559 775 c 1,13,-1
EndSplineSet
Validated: 1
EndChar

StartChar: eacute
Encoding: 233 233 171
Width: 362
Flags: W
HStem: 188 115<182.585 350> 188 105<182.585 350> 659 116<277.164 522>
LayerCount: 2
Fore
SplineSet
248 900 m 1,0,1
 417 967 417 967 547 999 c 1,2,-1
 557 987 l 1,3,4
 533 902 533 902 515 850 c 1,5,6
 381 835 381 835 227 804 c 1,7,-1
 209 803 l 1,8,9
 227 852 227 852 248 900 c 1,0,1
559 775 m 1,10,11
 522 659 l 1,12,-1
 476 659 l 2,13,14
 347 659 347 659 274 653 c 1,15,-1
 299 638 l 1,16,17
 293 625 293 625 269 569 c 0,18,19
 263 555 263 555 255 535 c 1,20,-1
 427 542 l 1,21,-1
 391 437 l 1,22,-1
 221 431 l 1,23,24
 202 377 202 377 180 293 c 1,25,26
 250 297 250 297 388 303 c 1,27,-1
 350 188 l 1,28,-1
 264 188 l 2,29,30
 176 188 176 188 5 160 c 1,31,-1
 5 161 l 2,32,33
 5 167 5 167 26 242 c 0,34,35
 51 329 51 329 71 384 c 0,36,37
 104 476 104 476 146 569 c 0,38,39
 162 604 162 604 182 642 c 1,40,41
 139 638 139 638 102 633 c 1,42,-1
 138 753 l 1,43,44
 221 760 221 760 336 766 c 0,45,46
 405 770 405 770 559 775 c 1,10,11
EndSplineSet
Validated: 1
EndChar

StartChar: ecircumflex
Encoding: 234 234 172
Width: 351
Flags: W
HStem: 188 115<182.585 350> 188 105<182.585 350> 659 116<277.164 522>
LayerCount: 2
Fore
SplineSet
233 792 m 1,0,1
 269 871 269 871 295 924 c 1,2,3
 380 969 380 969 448 1014 c 1,4,-1
 603 907 l 1,5,6
 585 850 585 850 569 795 c 1,7,-1
 431 896 l 1,8,9
 352 848 352 848 233 792 c 1,0,1
559 775 m 1,10,11
 522 659 l 1,12,-1
 476 659 l 2,13,14
 347 659 347 659 274 653 c 1,15,-1
 299 638 l 1,16,17
 293 625 293 625 269 569 c 0,18,19
 263 555 263 555 255 535 c 1,20,-1
 427 542 l 1,21,-1
 391 437 l 1,22,-1
 221 431 l 1,23,24
 202 377 202 377 180 293 c 1,25,26
 250 297 250 297 388 303 c 1,27,-1
 350 188 l 1,28,-1
 264 188 l 2,29,30
 176 188 176 188 5 160 c 1,31,-1
 5 161 l 2,32,33
 5 167 5 167 26 242 c 0,34,35
 51 329 51 329 71 384 c 0,36,37
 104 476 104 476 146 569 c 0,38,39
 162 604 162 604 182 642 c 1,40,41
 139 638 139 638 102 633 c 1,42,-1
 138 753 l 1,43,44
 221 760 221 760 336 766 c 0,45,46
 405 770 405 770 559 775 c 1,10,11
EndSplineSet
Validated: 1
EndChar

StartChar: edieresis
Encoding: 235 235 173
Width: 346
Flags: W
HStem: 188 115<182.585 350> 188 105<182.585 350> 659 116<277.164 522> 815 137<246.129 305.742 473.129 532.742>
LayerCount: 2
Fore
SplineSet
248 952 m 1,0,1
 393 970 l 1,2,3
 382 934 382 934 362 850 c 1,4,-1
 352 831 l 1,5,6
 305 831 305 831 210 815 c 1,7,8
 228 887 228 887 248 952 c 1,0,1
475 952 m 1,9,-1
 620 970 l 1,10,11
 610 934 610 934 589 850 c 1,12,-1
 580 831 l 1,13,14
 532 831 532 831 437 815 c 1,15,16
 455 887 455 887 475 952 c 1,9,-1
559 775 m 1,17,-1
 522 659 l 1,18,-1
 476 659 l 2,19,20
 347 659 347 659 274 653 c 1,21,-1
 299 638 l 1,22,23
 293 625 293 625 269 569 c 0,24,25
 263 555 263 555 255 535 c 1,26,-1
 427 542 l 1,27,-1
 391 437 l 1,28,-1
 221 431 l 1,29,30
 202 377 202 377 180 293 c 1,31,32
 250 297 250 297 388 303 c 1,33,-1
 350 188 l 1,34,-1
 264 188 l 2,35,36
 176 188 176 188 5 160 c 1,37,-1
 5 161 l 2,38,39
 5 167 5 167 26 242 c 0,40,41
 51 329 51 329 71 384 c 0,42,43
 104 476 104 476 146 569 c 0,44,45
 162 604 162 604 182 642 c 1,46,47
 139 638 139 638 102 633 c 1,48,-1
 138 753 l 1,49,50
 221 760 221 760 336 766 c 0,51,52
 405 770 405 770 559 775 c 1,17,-1
EndSplineSet
Validated: 1
EndChar

StartChar: igrave
Encoding: 236 236 174
Width: 337
Flags: W
HStem: 173 115<260.411 329> 633 120<172 267.614> 657 118<348.36 468>
LayerCount: 2
Fore
SplineSet
510 795 m 1,0,1
 457 806 l 2,2,3
 318 838 318 838 248 842 c 1,4,5
 276 935 276 935 294 998 c 1,6,-1
 315 1004 l 1,7,8
 335 1004 335 1004 406 967 c 0,9,10
 537 897 537 897 549 892 c 1,11,12
 532 844 532 844 510 795 c 1,0,1
119 275 m 1,13,-1
 133 320 l 2,14,15
 137 336 137 336 153 384 c 0,16,17
 177 456 177 456 229 569 c 0,18,19
 241 599 241 599 269 653 c 1,20,21
 225 646 225 646 137 633 c 1,22,-1
 172 753 l 1,23,24
 235 759 235 759 330 766 c 0,25,26
 429 774 429 774 505 775 c 1,27,-1
 468 659 l 1,28,29
 391 659 391 659 346 657 c 1,30,-1
 381 638 l 1,31,32
 369 615 369 615 351 569 c 0,33,34
 328 513 328 513 287 384 c 0,35,36
 273 336 273 336 260 285 c 1,37,38
 273 286 273 286 304 288 c 2,39,-1
 366 290 l 1,40,-1
 329 173 l 1,41,42
 236 173 236 173 207 172 c 0,43,44
 161 168 161 168 -2 147 c 1,45,-1
 33 268 l 1,46,-1
 73 272 l 2,47,48
 91 273 91 273 119 275 c 1,13,-1
EndSplineSet
Validated: 1
EndChar

StartChar: iacute
Encoding: 237 237 175
Width: 336
Flags: W
HStem: 173 115<260.411 329> 633 120<172 267.614> 657 118<348.36 468>
LayerCount: 2
Fore
SplineSet
247 900 m 1,0,1
 416 967 416 967 546 999 c 1,2,-1
 556 987 l 1,3,4
 532 902 532 902 514 850 c 1,5,6
 380 835 380 835 226 804 c 1,7,-1
 208 803 l 1,8,9
 225 852 225 852 247 900 c 1,0,1
119 275 m 1,10,11
 133 320 l 2,12,13
 137 336 137 336 153 384 c 0,14,15
 177 456 177 456 229 569 c 0,16,17
 241 599 241 599 269 653 c 1,18,19
 225 646 225 646 137 633 c 1,20,-1
 172 753 l 1,21,22
 235 759 235 759 330 766 c 0,23,24
 429 774 429 774 505 775 c 1,25,-1
 468 659 l 1,26,27
 391 659 391 659 346 657 c 1,28,-1
 381 638 l 1,29,30
 369 615 369 615 351 569 c 0,31,32
 328 513 328 513 287 384 c 0,33,34
 273 336 273 336 260 285 c 1,35,36
 273 286 273 286 304 288 c 2,37,-1
 366 290 l 1,38,-1
 329 173 l 1,39,40
 236 173 236 173 207 172 c 0,41,42
 161 168 161 168 -2 147 c 1,43,-1
 33 268 l 1,44,-1
 73 272 l 2,45,46
 91 273 91 273 119 275 c 1,10,11
EndSplineSet
Validated: 1
EndChar

StartChar: icircumflex
Encoding: 238 238 176
Width: 334
Flags: W
HStem: 173 115<260.411 329> 633 120<172 267.614> 657 118<348.36 468>
LayerCount: 2
Fore
SplineSet
192 792 m 1,0,1
 228 871 228 871 253 924 c 1,2,3
 338 969 338 969 407 1014 c 1,4,-1
 561 907 l 1,5,6
 544 850 544 850 528 795 c 1,7,-1
 390 896 l 1,8,9
 311 848 311 848 192 792 c 1,0,1
119 275 m 1,10,11
 133 320 l 2,12,13
 137 336 137 336 153 384 c 0,14,15
 177 456 177 456 229 569 c 0,16,17
 241 599 241 599 269 653 c 1,18,19
 225 646 225 646 137 633 c 1,20,-1
 172 753 l 1,21,22
 235 759 235 759 330 766 c 0,23,24
 429 774 429 774 505 775 c 1,25,-1
 468 659 l 1,26,27
 391 659 391 659 346 657 c 1,28,-1
 381 638 l 1,29,30
 369 615 369 615 351 569 c 0,31,32
 328 513 328 513 287 384 c 0,33,34
 273 336 273 336 260 285 c 1,35,36
 273 286 273 286 304 288 c 2,37,-1
 366 290 l 1,38,-1
 329 173 l 1,39,40
 236 173 236 173 207 172 c 0,41,42
 161 168 161 168 -2 147 c 1,43,-1
 33 268 l 1,44,-1
 73 272 l 2,45,46
 91 273 91 273 119 275 c 1,10,11
EndSplineSet
Validated: 1
EndChar

StartChar: idieresis
Encoding: 239 239 177
Width: 330
Flags: W
HStem: 173 115<260.411 329> 633 120<172 267.614> 657 118<348.36 468> 815 137<205.129 264.742 432.129 491.742>
LayerCount: 2
Fore
SplineSet
207 952 m 1,0,1
 352 970 l 1,2,3
 341 934 341 934 320 850 c 1,4,-1
 311 831 l 1,5,6
 263 831 263 831 169 815 c 1,7,8
 187 887 187 887 207 952 c 1,0,1
434 952 m 1,9,-1
 579 970 l 1,10,11
 568 934 568 934 547 850 c 1,12,-1
 538 831 l 1,13,14
 491 831 491 831 396 815 c 1,15,16
 414 887 414 887 434 952 c 1,9,-1
119 275 m 1,17,-1
 133 320 l 2,18,19
 137 336 137 336 153 384 c 0,20,21
 177 456 177 456 229 569 c 0,22,23
 241 599 241 599 269 653 c 1,24,25
 225 646 225 646 137 633 c 1,26,-1
 172 753 l 1,27,28
 235 759 235 759 330 766 c 0,29,30
 429 774 429 774 505 775 c 1,31,-1
 468 659 l 1,32,33
 391 659 391 659 346 657 c 1,34,-1
 381 638 l 1,35,36
 369 615 369 615 351 569 c 0,37,38
 328 513 328 513 287 384 c 0,39,40
 273 336 273 336 260 285 c 1,41,42
 273 286 273 286 304 288 c 2,43,-1
 366 290 l 1,44,-1
 329 173 l 1,45,46
 236 173 236 173 207 172 c 0,47,48
 161 168 161 168 -2 147 c 1,49,-1
 33 268 l 1,50,-1
 73 272 l 2,51,52
 91 273 91 273 119 275 c 1,17,-1
EndSplineSet
Validated: 1
EndChar

StartChar: eth
Encoding: 240 240 178
Width: 462
Flags: W
HStem: 668 107<260.006 414.821>
VStem: 431 130<507.3 651.602>
LayerCount: 2
Fore
SplineSet
263 540 m 1,0,1
 389 545 l 1,2,-1
 357 457 l 1,3,-1
 230 452 l 1,4,-1
 179 314 l 1,5,6
 279 337 279 337 363 423 c 0,7,8
 431 494 431 494 431 569 c 0,9,10
 431 646 431 646 401 656 c 0,11,12
 369 668 369 668 348 668 c 2,13,-1
 346 668 l 2,14,15
 291 665 291 665 259 656 c 1,16,-1
 304 633 l 1,17,18
 298 623 298 623 274 570 c 0,19,20
 270 561 270 561 263 540 c 1,0,1
137 535 m 1,21,22
 156 580 156 580 189 643 c 1,23,24
 175 634 175 634 153 623 c 1,25,-1
 123 760 l 1,26,27
 226 775 226 775 301 775 c 0,28,29
 318 775 318 775 340 773 c 0,30,31
 399 769 399 769 408 767 c 0,32,33
 439 762 439 762 477 746 c 0,34,35
 561 711 561 711 561 626 c 0,36,37
 561 610 561 610 558 595 c 0,38,39
 524 303 524 303 174 192 c 1,40,-1
 144 182 l 1,41,42
 73 173 73 173 9 170 c 1,43,44
 19 198 19 198 62 324 c 0,45,46
 78 370 78 370 105 447 c 1,47,-1
 45 445 l 1,48,-1
 81 533 l 1,49,-1
 137 535 l 1,21,22
EndSplineSet
Validated: 1
EndChar

StartChar: ntilde
Encoding: 241 241 179
Width: 436
Flags: W
HStem: 804 106<464.757 600.544> 851 109<304.936 446.711>
LayerCount: 2
Fore
SplineSet
620 847 m 1,0,1
 587 804 587 804 544 804 c 1,2,3
 484 812 484 812 456 825 c 0,4,5
 398 851 398 851 362 851 c 0,6,7
 310 851 310 851 254 799 c 1,8,9
 274 873 274 873 289 923 c 1,10,11
 319 956 319 956 353 960 c 1,12,13
 397 960 397 960 465 932 c 0,14,15
 491 918 491 918 556 910 c 1,16,17
 598 910 598 910 656 952 c 1,18,19
 639 896 639 896 620 847 c 1,0,1
174 762 m 1,20,21
 321 795 l 1,22,23
 364 621 364 621 383 470 c 0,24,25
 386 470 386 470 401 507 c 2,26,-1
 417 546 l 2,27,28
 443 607 443 607 532 767 c 1,29,-1
 548 768 l 2,30,31
 593 774 593 774 652 777 c 1,32,33
 599 680 599 680 539 546 c 0,34,35
 518 497 518 497 477 360 c 0,36,37
 465 324 465 324 433 213 c 1,38,-1
 281 176 l 1,39,40
 283 185 283 185 283 202 c 0,41,42
 283 288 283 288 262 430 c 0,43,44
 254 486 254 486 248 486 c 1,45,-1
 195 360 l 2,46,47
 159 275 159 275 152 199 c 1,48,-1
 0 162 l 1,49,50
 27 260 27 260 60 360 c 0,51,52
 85 437 85 437 135 546 c 0,53,54
 157 594 157 594 196 666 c 0,55,56
 199 673 199 673 199 678 c 0,57,58
 199 691 199 691 188 719 c 0,59,60
 175 756 175 756 174 762 c 1,20,21
EndSplineSet
Validated: 1
EndChar

StartChar: ograve
Encoding: 242 242 180
Width: 554
Flags: W
HStem: 162 120<256.704 408.269> 640 135<299.699 468.008>
VStem: 79 118<347.616 430 461 527.748> 506 139<413.293 578.849>
LayerCount: 2
Fore
SplineSet
566 795 m 1,0,1
 513 806 l 2,2,3
 374 838 374 838 304 842 c 1,4,5
 332 935 332 935 350 998 c 1,6,-1
 371 1004 l 1,7,8
 391 1004 391 1004 462 967 c 0,9,10
 593 897 593 897 605 892 c 1,11,12
 588 844 588 844 566 795 c 1,0,1
503 461 m 1,13,14
 506 478 506 478 506 489 c 0,15,16
 506 535 506 535 478 560 c 1,17,-1
 503 574 l 1,18,19
 471 640 471 640 393 640 c 0,20,21
 314 640 314 640 261 590 c 0,22,23
 212 541 212 541 200 461 c 0,24,25
 197 443 197 443 197 430 c 0,26,27
 197 370 197 370 232 327 c 0,28,29
 269 282 269 282 328 282 c 0,30,31
 399 282 399 282 447 338 c 0,32,33
 490 387 490 387 503 461 c 1,13,14
663 651 m 1,34,-1
 628 628 l 1,35,36
 645 580 645 580 645 545 c 0,37,38
 645 520 645 520 637 476 c 0,39,40
 613 336 613 336 533 253 c 0,41,42
 446 162 446 162 310 162 c 0,43,44
 199 162 199 162 136 239 c 0,45,46
 79 310 79 310 79 424 c 0,47,48
 79 448 79 448 81 476 c 0,49,50
 96 598 96 598 188 686 c 0,51,52
 282 775 282 775 403 775 c 0,53,54
 587 775 587 775 663 651 c 1,34,-1
EndSplineSet
Validated: 1
EndChar

StartChar: oacute
Encoding: 243 243 181
Width: 554
Flags: W
HStem: 162 120<256.704 408.269> 640 135<299.699 468.008>
VStem: 79 118<347.616 430 461 527.748> 506 139<413.293 578.849>
LayerCount: 2
Fore
SplineSet
303 900 m 1,0,1
 472 967 472 967 602 999 c 1,2,-1
 612 987 l 1,3,4
 588 902 588 902 570 850 c 1,5,6
 436 835 436 835 282 804 c 1,7,-1
 264 803 l 1,8,9
 281 852 281 852 303 900 c 1,0,1
503 461 m 1,10,11
 506 478 506 478 506 489 c 0,12,13
 506 535 506 535 478 560 c 1,14,-1
 503 574 l 1,15,16
 471 640 471 640 393 640 c 0,17,18
 314 640 314 640 261 590 c 0,19,20
 212 541 212 541 200 461 c 0,21,22
 197 443 197 443 197 430 c 0,23,24
 197 370 197 370 232 327 c 0,25,26
 269 282 269 282 328 282 c 0,27,28
 399 282 399 282 447 338 c 0,29,30
 490 387 490 387 503 461 c 1,10,11
663 651 m 1,31,32
 628 628 l 1,33,34
 645 580 645 580 645 545 c 0,35,36
 645 520 645 520 637 476 c 0,37,38
 613 336 613 336 533 253 c 0,39,40
 446 162 446 162 310 162 c 0,41,42
 199 162 199 162 136 239 c 0,43,44
 79 310 79 310 79 424 c 0,45,46
 79 448 79 448 81 476 c 0,47,48
 96 598 96 598 188 686 c 0,49,50
 282 775 282 775 403 775 c 0,51,52
 587 775 587 775 663 651 c 1,31,32
EndSplineSet
Validated: 1
EndChar

StartChar: ocircumflex
Encoding: 244 244 182
Width: 554
Flags: W
HStem: 162 120<256.704 408.269> 640 135<299.699 468.008>
VStem: 79 118<347.616 430 461 527.748> 506 139<413.293 578.849>
LayerCount: 2
Fore
SplineSet
288 792 m 1,0,1
 324 871 324 871 349 924 c 1,2,3
 434 969 434 969 503 1014 c 1,4,-1
 657 907 l 1,5,6
 640 850 640 850 624 795 c 1,7,-1
 486 896 l 1,8,9
 407 848 407 848 288 792 c 1,0,1
503 461 m 1,10,11
 506 478 506 478 506 489 c 0,12,13
 506 535 506 535 478 560 c 1,14,-1
 503 574 l 1,15,16
 471 640 471 640 393 640 c 0,17,18
 314 640 314 640 261 590 c 0,19,20
 212 541 212 541 200 461 c 0,21,22
 197 443 197 443 197 430 c 0,23,24
 197 370 197 370 232 327 c 0,25,26
 269 282 269 282 328 282 c 0,27,28
 399 282 399 282 447 338 c 0,29,30
 490 387 490 387 503 461 c 1,10,11
663 651 m 1,31,32
 628 628 l 1,33,34
 645 580 645 580 645 545 c 0,35,36
 645 520 645 520 637 476 c 0,37,38
 613 336 613 336 533 253 c 0,39,40
 446 162 446 162 310 162 c 0,41,42
 199 162 199 162 136 239 c 0,43,44
 79 310 79 310 79 424 c 0,45,46
 79 448 79 448 81 476 c 0,47,48
 96 598 96 598 188 686 c 0,49,50
 282 775 282 775 403 775 c 0,51,52
 587 775 587 775 663 651 c 1,31,32
EndSplineSet
Validated: 1
EndChar

StartChar: otilde
Encoding: 245 245 183
Width: 552
Flags: W
HStem: 162 120<256.704 408.269> 640 135<299.699 468.008> 804 106<479.766 616.161> 851 109<319.525 461.783>
VStem: 79 118<347.616 430 461 527.748> 506 139<413.293 578.849>
LayerCount: 2
Fore
SplineSet
636 847 m 1,0,1
 603 804 603 804 560 804 c 1,2,3
 499 812 499 812 471 825 c 0,4,5
 414 851 414 851 377 851 c 0,6,7
 326 851 326 851 269 799 c 1,8,9
 290 873 290 873 304 923 c 1,10,11
 335 956 335 956 368 960 c 1,12,13
 412 960 412 960 480 932 c 0,14,15
 507 918 507 918 571 910 c 1,16,17
 613 910 613 910 672 952 c 1,18,19
 655 896 655 896 636 847 c 1,0,1
503 461 m 1,20,21
 506 478 506 478 506 489 c 0,22,23
 506 535 506 535 478 560 c 1,24,-1
 503 574 l 1,25,26
 471 640 471 640 393 640 c 0,27,28
 314 640 314 640 261 590 c 0,29,30
 212 541 212 541 200 461 c 0,31,32
 197 443 197 443 197 430 c 0,33,34
 197 370 197 370 232 327 c 0,35,36
 269 282 269 282 328 282 c 0,37,38
 399 282 399 282 447 338 c 0,39,40
 490 387 490 387 503 461 c 1,20,21
663 651 m 1,41,42
 628 628 l 1,43,44
 645 580 645 580 645 545 c 0,45,46
 645 520 645 520 637 476 c 0,47,48
 613 336 613 336 533 253 c 0,49,50
 446 162 446 162 310 162 c 0,51,52
 199 162 199 162 136 239 c 0,53,54
 79 310 79 310 79 424 c 0,55,56
 79 448 79 448 81 476 c 0,57,58
 96 598 96 598 188 686 c 0,59,60
 282 775 282 775 403 775 c 0,61,62
 587 775 587 775 663 651 c 1,41,42
EndSplineSet
Validated: 1
EndChar

StartChar: odieresis
Encoding: 246 246 184
Width: 551
Flags: W
HStem: 162 120<256.704 408.269> 640 135<299.699 468.008> 815 137<301.129 360.742 528.129 587.742>
VStem: 79 118<347.616 430 461 527.748> 506 139<413.293 578.849>
LayerCount: 2
Fore
SplineSet
303 952 m 1,0,1
 448 970 l 1,2,3
 437 934 437 934 416 850 c 1,4,-1
 407 831 l 1,5,6
 359 831 359 831 265 815 c 1,7,8
 283 887 283 887 303 952 c 1,0,1
530 952 m 1,9,-1
 675 970 l 1,10,11
 664 934 664 934 643 850 c 1,12,-1
 634 831 l 1,13,14
 587 831 587 831 492 815 c 1,15,16
 510 887 510 887 530 952 c 1,9,-1
503 461 m 1,17,18
 506 478 506 478 506 489 c 0,19,20
 506 535 506 535 478 560 c 1,21,-1
 503 574 l 1,22,23
 471 640 471 640 393 640 c 0,24,25
 314 640 314 640 261 590 c 0,26,27
 212 541 212 541 200 461 c 0,28,29
 197 443 197 443 197 430 c 0,30,31
 197 370 197 370 232 327 c 0,32,33
 269 282 269 282 328 282 c 0,34,35
 399 282 399 282 447 338 c 0,36,37
 490 387 490 387 503 461 c 1,17,18
663 651 m 1,38,-1
 628 628 l 1,39,40
 645 580 645 580 645 545 c 0,41,42
 645 520 645 520 637 476 c 0,43,44
 613 336 613 336 533 253 c 0,45,46
 446 162 446 162 310 162 c 0,47,48
 199 162 199 162 136 239 c 0,49,50
 79 310 79 310 79 424 c 0,51,52
 79 448 79 448 81 476 c 0,53,54
 96 598 96 598 188 686 c 0,55,56
 282 775 282 775 403 775 c 0,57,58
 587 775 587 775 663 651 c 1,38,-1
EndSplineSet
Validated: 1
EndChar

StartChar: divide
Encoding: 247 247 185
Width: 525
Flags: W
HStem: 363 110<149 290.368> 378 110<349.499 494>
LayerCount: 2
Fore
SplineSet
219 296 m 1,0,1
 400 319 l 1,2,3
 387 274 387 274 361 169 c 1,4,-1
 349 145 l 1,5,6
 290 145 290 145 171 125 c 1,7,8
 194 215 194 215 219 296 c 1,0,1
298 696 m 1,9,-1
 479 719 l 1,10,11
 466 674 466 674 440 569 c 1,12,-1
 428 545 l 1,13,14
 369 545 369 545 250 525 c 1,15,16
 273 615 273 615 298 696 c 1,9,-1
149 473 m 1,17,-1
 533 488 l 1,18,-1
 494 378 l 1,19,-1
 104 363 l 1,20,-1
 149 473 l 1,17,-1
EndSplineSet
Validated: 1
EndChar

StartChar: oslash
Encoding: 248 248 186
Width: 536
Flags: W
HStem: 162 120<237.866 389.416> 640 135<281.537 394.187>
VStem: 60 118<402.578 527.442> 488 138<410.302 571.384>
LayerCount: 2
Fore
SplineSet
587 716 m 1,0,1
 621 689 621 689 644 651 c 1,2,-1
 610 628 l 1,3,4
 626 580 626 580 626 545 c 0,5,6
 626 520 626 520 619 476 c 0,7,8
 595 336 595 336 515 253 c 0,9,10
 427 162 427 162 291 162 c 0,11,12
 205 162 205 162 148 209 c 1,13,-1
 137 197 l 1,14,-1
 -14 160 l 1,15,16
 36 227 36 227 86 289 c 1,17,18
 60 347 60 347 60 424 c 0,19,20
 60 448 60 448 63 476 c 0,21,22
 77 598 77 598 169 686 c 0,23,24
 264 775 264 775 385 775 c 0,25,26
 455 775 455 775 509 757 c 1,27,28
 513 761 513 761 517 765 c 2,29,-1
 534 766 l 2,30,31
 579 772 579 772 638 775 c 1,32,33
 618 751 618 751 587 716 c 1,0,1
180 402 m 1,34,35
 211 437 211 437 240 471 c 2,36,-1
 359 600 l 2,37,38
 376 619 376 619 395 639 c 1,39,40
 385 640 385 640 374 640 c 0,41,42
 296 640 296 640 243 590 c 0,43,44
 193 541 193 541 181 461 c 0,45,46
 178 443 178 443 178 430 c 0,47,48
 178 416 178 416 180 402 c 1,34,35
234 307 m 1,49,50
 266 282 266 282 310 282 c 0,51,52
 380 282 380 282 428 338 c 0,53,54
 471 387 471 387 484 461 c 0,55,56
 488 478 488 478 488 489 c 0,57,58
 488 535 488 535 460 560 c 1,59,-1
 484 574 l 1,60,61
 481 582 481 582 476 589 c 1,62,-1
 384 482 l 1,63,-1
 260 337 l 1,64,-1
 234 307 l 1,49,50
EndSplineSet
Validated: 1
EndChar

StartChar: ugrave
Encoding: 249 249 187
Width: 508
Flags: W
HStem: 162 128<234.922 334.927>
VStem: 87 132<305.254 473.162>
LayerCount: 2
Fore
SplineSet
568 795 m 1,0,1
 515 806 l 2,2,3
 376 838 376 838 306 842 c 1,4,5
 334 935 334 935 352 998 c 1,6,-1
 373 1004 l 1,7,8
 393 1004 393 1004 464 967 c 0,9,10
 595 897 595 897 607 892 c 1,11,12
 590 844 590 844 568 795 c 1,0,1
657 775 m 1,13,14
 641 738 641 738 603 616 c 256,15,16
 565 494 565 494 545 436 c 0,17,18
 488 276 488 276 415 214 c 0,19,20
 354 162 354 162 255 162 c 0,21,22
 206 162 206 162 157 197 c 0,23,24
 87 248 87 248 87 347 c 0,25,26
 87 388 87 388 99 436 c 0,27,28
 137 585 137 585 219 760 c 1,29,-1
 350 775 l 1,30,31
 306 670 306 670 293 638 c 0,32,33
 245 515 245 515 225 436 c 0,34,35
 219 406 219 406 219 378 c 0,36,37
 219 290 219 290 282 290 c 0,38,39
 354 290 354 290 408 436 c 2,40,-1
 534 775 l 1,41,-1
 657 775 l 1,13,14
EndSplineSet
Validated: 1
EndChar

StartChar: uacute
Encoding: 250 250 188
Width: 508
Flags: W
HStem: 162 128<234.922 334.927>
VStem: 87 132<305.254 473.162>
LayerCount: 2
Fore
SplineSet
333 900 m 1,0,1
 502 967 502 967 632 999 c 1,2,-1
 642 987 l 1,3,4
 618 902 618 902 600 850 c 1,5,6
 466 835 466 835 312 804 c 1,7,-1
 294 803 l 1,8,9
 311 852 311 852 333 900 c 1,0,1
657 775 m 1,10,11
 641 738 641 738 603 616 c 256,12,13
 565 494 565 494 545 436 c 0,14,15
 488 276 488 276 415 214 c 0,16,17
 354 162 354 162 255 162 c 0,18,19
 206 162 206 162 157 197 c 0,20,21
 87 248 87 248 87 347 c 0,22,23
 87 388 87 388 99 436 c 0,24,25
 137 585 137 585 219 760 c 1,26,-1
 350 775 l 1,27,28
 306 670 306 670 293 638 c 0,29,30
 245 515 245 515 225 436 c 0,31,32
 219 406 219 406 219 378 c 0,33,34
 219 290 219 290 282 290 c 0,35,36
 354 290 354 290 408 436 c 2,37,-1
 534 775 l 1,38,-1
 657 775 l 1,10,11
EndSplineSet
Validated: 1
EndChar

StartChar: ucircumflex
Encoding: 251 251 189
Width: 507
Flags: W
HStem: 162 128<234.922 334.927>
VStem: 87 132<305.254 473.162>
LayerCount: 2
Fore
SplineSet
290 792 m 1,0,1
 326 871 326 871 351 924 c 1,2,3
 436 969 436 969 505 1014 c 1,4,-1
 659 907 l 1,5,6
 642 850 642 850 626 795 c 1,7,-1
 488 896 l 1,8,9
 409 848 409 848 290 792 c 1,0,1
657 775 m 1,10,11
 641 738 641 738 603 616 c 256,12,13
 565 494 565 494 545 436 c 0,14,15
 488 276 488 276 415 214 c 0,16,17
 354 162 354 162 255 162 c 0,18,19
 206 162 206 162 157 197 c 0,20,21
 87 248 87 248 87 347 c 0,22,23
 87 388 87 388 99 436 c 0,24,25
 137 585 137 585 219 760 c 1,26,-1
 350 775 l 1,27,28
 306 670 306 670 293 638 c 0,29,30
 245 515 245 515 225 436 c 0,31,32
 219 406 219 406 219 378 c 0,33,34
 219 290 219 290 282 290 c 0,35,36
 354 290 354 290 408 436 c 2,37,-1
 534 775 l 1,38,-1
 657 775 l 1,10,11
EndSplineSet
Validated: 1
EndChar

StartChar: udieresis
Encoding: 252 252 190
Width: 503
Flags: W
HStem: 162 128<234.922 334.927> 815 137<303.129 362.742 530.129 589.742>
VStem: 87 132<305.254 473.162>
LayerCount: 2
Fore
SplineSet
305 952 m 1,0,1
 450 970 l 1,2,3
 439 934 439 934 418 850 c 1,4,-1
 409 831 l 1,5,6
 361 831 361 831 267 815 c 1,7,8
 285 887 285 887 305 952 c 1,0,1
532 952 m 1,9,-1
 677 970 l 1,10,11
 666 934 666 934 645 850 c 1,12,-1
 636 831 l 1,13,14
 589 831 589 831 494 815 c 1,15,16
 512 887 512 887 532 952 c 1,9,-1
657 775 m 1,17,18
 641 738 641 738 603 616 c 256,19,20
 565 494 565 494 545 436 c 0,21,22
 488 276 488 276 415 214 c 0,23,24
 354 162 354 162 255 162 c 0,25,26
 206 162 206 162 157 197 c 0,27,28
 87 248 87 248 87 347 c 0,29,30
 87 388 87 388 99 436 c 0,31,32
 137 585 137 585 219 760 c 1,33,-1
 350 775 l 1,34,35
 306 670 306 670 293 638 c 0,36,37
 245 515 245 515 225 436 c 0,38,39
 219 406 219 406 219 378 c 0,40,41
 219 290 219 290 282 290 c 0,42,43
 354 290 354 290 408 436 c 2,44,-1
 534 775 l 1,45,-1
 657 775 l 1,17,18
EndSplineSet
Validated: 1
EndChar

StartChar: yacute
Encoding: 253 253 191
Width: 437
Flags: W
LayerCount: 2
Fore
SplineSet
278 900 m 1,0,1
 447 967 447 967 577 999 c 1,2,-1
 587 987 l 1,3,4
 563 902 563 902 545 850 c 1,5,6
 411 835 411 835 257 804 c 1,7,-1
 239 803 l 1,8,9
 256 852 256 852 278 900 c 1,0,1
368 443 m 1,10,11
 352 389 352 389 304 197 c 1,12,-1
 300 196 l 2,13,14
 246 186 246 186 152 160 c 1,15,16
 158 182 158 182 201 313 c 2,17,-1
 243 443 l 1,18,19
 230 485 230 485 216 562 c 0,20,21
 198 665 198 665 194 683 c 0,22,23
 184 732 184 732 170 758 c 1,24,-1
 294 758 l 1,25,26
 302 733 302 733 310 674 c 2,27,-1
 330 548 l 1,28,29
 343 570 343 570 408 676 c 0,30,31
 447 738 447 738 472 760 c 1,32,-1
 605 778 l 1,33,34
 561 737 561 737 443 557 c 0,35,36
 394 484 394 484 368 443 c 1,10,11
EndSplineSet
Validated: 1
EndChar

StartChar: thorn
Encoding: 254 254 192
Width: 470
Flags: W
HStem: 315 100<227 362.96>
VStem: 405 126<449.95 532.865>
LayerCount: 2
Fore
SplineSet
323 660 m 1,0,1
 370 657 370 657 377 655 c 0,2,3
 409 650 409 650 447 634 c 0,4,5
 531 599 531 599 531 514 c 0,6,7
 531 502 531 502 527 483 c 0,8,9
 508 382 508 382 371 338 c 0,10,11
 297 315 297 315 194 315 c 1,12,-1
 161 198 l 1,13,-1
 157 197 l 2,14,15
 93 185 93 185 9 162 c 1,16,17
 70 346 70 346 121 458 c 0,18,19
 132 481 132 481 147 519 c 1,20,21
 135 514 135 514 122 511 c 1,22,-1
 93 648 l 1,23,24
 154 657 154 657 205 661 c 1,25,-1
 238 751 l 1,26,-1
 362 771 l 1,27,-1
 323 660 l 1,0,1
405 496 m 1,28,29
 405 528 405 528 363 544 c 0,30,31
 350 549 350 549 322 549 c 2,32,-1
 312 549 l 2,33,34
 287 548 287 548 273 521 c 0,35,36
 259 496 259 496 243 458 c 0,37,38
 242 456 242 456 227 415 c 1,39,-1
 262 416 l 2,40,41
 315 418 315 418 352 432 c 0,42,43
 405 453 405 453 405 496 c 1,28,29
EndSplineSet
Validated: 1
EndChar

StartChar: ydieresis
Encoding: 255 255 193
Width: 436
Flags: W
HStem: 815 137<236.129 295.742 463.129 522.742>
LayerCount: 2
Fore
SplineSet
238 952 m 1,0,1
 383 970 l 1,2,3
 372 934 372 934 351 850 c 1,4,-1
 342 831 l 1,5,6
 294 831 294 831 200 815 c 1,7,8
 218 887 218 887 238 952 c 1,0,1
465 952 m 1,9,-1
 610 970 l 1,10,11
 599 934 599 934 578 850 c 1,12,-1
 569 831 l 1,13,14
 522 831 522 831 427 815 c 1,15,16
 445 887 445 887 465 952 c 1,9,-1
368 443 m 1,17,18
 352 389 352 389 304 197 c 1,19,-1
 300 196 l 2,20,21
 246 186 246 186 152 160 c 1,22,23
 158 182 158 182 201 313 c 2,24,-1
 243 443 l 1,25,26
 230 485 230 485 216 562 c 0,27,28
 198 665 198 665 194 683 c 0,29,30
 184 732 184 732 170 758 c 1,31,-1
 294 758 l 1,32,33
 302 733 302 733 310 674 c 2,34,-1
 330 548 l 1,35,36
 343 570 343 570 408 676 c 0,37,38
 447 738 447 738 472 760 c 1,39,-1
 605 778 l 1,40,41
 561 737 561 737 443 557 c 0,42,43
 394 484 394 484 368 443 c 1,17,18
EndSplineSet
Validated: 1
EndChar

StartChar: dotlessi
Encoding: 305 305 194
Width: 337
Flags: W
HStem: 173 115<260.411 329> 633 120<172 267.614> 657 118<348.36 468>
LayerCount: 2
Fore
SplineSet
119 275 m 1,0,1
 133 320 l 2,2,3
 137 336 137 336 153 384 c 0,4,5
 177 456 177 456 229 569 c 0,6,7
 241 599 241 599 269 653 c 1,8,9
 225 646 225 646 137 633 c 1,10,-1
 172 753 l 1,11,12
 235 759 235 759 330 766 c 0,13,14
 429 774 429 774 505 775 c 1,15,-1
 468 659 l 1,16,17
 391 659 391 659 346 657 c 1,18,-1
 381 638 l 1,19,20
 369 615 369 615 351 569 c 0,21,22
 328 513 328 513 287 384 c 0,23,24
 273 336 273 336 260 285 c 1,25,26
 273 286 273 286 304 288 c 2,27,-1
 366 290 l 1,28,-1
 329 173 l 1,29,30
 236 173 236 173 207 172 c 0,31,32
 161 168 161 168 -2 147 c 1,33,-1
 33 268 l 1,34,-1
 73 272 l 2,35,36
 91 273 91 273 119 275 c 1,0,1
EndSplineSet
Validated: 1
EndChar

StartChar: circumflex
Encoding: 710 710 195
Width: 450
Flags: W
LayerCount: 2
Fore
SplineSet
290 797 m 1,0,1
 335 895 335 895 367 962 c 1,2,3
 473 1018 473 1018 559 1073 c 1,4,-1
 752 940 l 1,5,6
 730 868 730 868 710 800 c 1,7,-1
 538 927 l 1,8,9
 439 867 439 867 290 797 c 1,0,1
EndSplineSet
Validated: 1
EndChar

StartChar: caron
Encoding: 711 711 196
Width: 450
Flags: W
LayerCount: 2
Fore
SplineSet
752 1073 m 1,0,1
 707 975 707 975 675 908 c 1,2,3
 569 853 569 853 483 797 c 1,4,-1
 290 930 l 1,5,6
 312 1002 312 1002 332 1070 c 1,7,-1
 505 943 l 1,8,9
 604 1003 604 1003 752 1073 c 1,0,1
EndSplineSet
Validated: 1
EndChar

StartChar: uni02C9
Encoding: 713 713 197
Width: 512
Flags: W
HStem: 597 63
VStem: 127 258
LayerCount: 2
Fore
SplineSet
127 597 m 1,0,-1
 127 660 l 1,1,-1
 385 660 l 1,2,-1
 385 597 l 1,3,-1
 127 597 l 1,0,-1
EndSplineSet
Validated: 1
EndChar

StartChar: breve
Encoding: 728 728 198
Width: 512
Flags: W
HStem: 539 65<173.967 339.182>
LayerCount: 2
Fore
SplineSet
110 674 m 1,0,1
 135 674 l 1,2,3
 144 638 144 638 173 621 c 256,4,5
 202 604 202 604 256 604 c 0,6,7
 311 604 311 604 339 620 c 0,8,9
 368 637 368 637 376 674 c 1,10,-1
 402 674 l 1,11,12
 392 608 392 608 355 573 c 0,13,14
 318 539 318 539 256 539 c 0,15,16
 195 539 195 539 158 574 c 0,17,18
 120 608 120 608 110 674 c 1,0,1
EndSplineSet
Validated: 1
EndChar

StartChar: dotaccent
Encoding: 729 729 199
Width: 600
Flags: W
LayerCount: 2
Fore
SplineSet
448 1002 m 1,0,1
 629 1025 l 1,2,3
 616 980 616 980 590 875 c 1,4,-1
 578 851 l 1,5,6
 519 851 519 851 400 831 c 1,7,8
 423 921 423 921 448 1002 c 1,0,1
EndSplineSet
Validated: 1
EndChar

StartChar: ring
Encoding: 730 730 200
Width: 600
Flags: W
LayerCount: 2
Fore
SplineSet
448 1002 m 1,0,1
 629 1025 l 1,2,3
 616 980 616 980 590 875 c 1,4,-1
 578 851 l 1,5,6
 519 851 519 851 400 831 c 1,7,8
 423 921 423 921 448 1002 c 1,0,1
EndSplineSet
Validated: 1
EndChar

StartChar: ogonek
Encoding: 731 731 201
Width: 750
Flags: W
LayerCount: 2
Fore
SplineSet
242 -101 m 1,0,1
 171 -10 171 -10 171 58 c 0,2,3
 171 75 171 75 175 88 c 1,4,5
 213 76 213 76 324 49 c 2,6,-1
 388 35 l 1,7,8
 388 -12 388 -12 434 -86 c 2,9,-1
 475 -150 l 1,10,11
 406 -138 406 -138 321 -122 c 0,12,13
 279 -114 279 -114 242 -101 c 1,0,1
EndSplineSet
Validated: 1
EndChar

StartChar: tilde
Encoding: 732 732 202
Width: 600
Flags: W
HStem: 812 131<543.307 694.186> 870 136<337.978 495.633>
LayerCount: 2
Fore
SplineSet
725 865 m 1,0,1
 684 812 684 812 630 812 c 1,2,3
 555 822 555 822 520 838 c 0,4,5
 448 870 448 870 402 870 c 0,6,7
 338 870 338 870 267 805 c 1,8,9
 293 897 293 897 311 960 c 1,10,11
 349 1001 349 1001 391 1006 c 1,12,13
 446 1006 446 1006 531 971 c 1,14,15
 564 953 564 953 645 943 c 1,16,17
 697 943 697 943 770 997 c 1,18,19
 749 926 749 926 725 865 c 1,0,1
EndSplineSet
Validated: 1
EndChar

StartChar: hungarumlaut
Encoding: 733 733 203
Width: 512
Flags: W
HStem: 539 178
LayerCount: 2
Fore
SplineSet
251 539 m 1,0,-1
 323 676 l 2,1,2
 335 698 335 698 346 707 c 0,3,4
 357 717 357 717 369 717 c 0,5,6
 383 717 383 717 393 707 c 256,7,8
 403 697 403 697 403 683 c 0,9,10
 403 675 403 675 398 666 c 0,11,12
 393 656 393 656 383 645 c 2,13,-1
 280 539 l 1,14,-1
 251 539 l 1,0,-1
109 539 m 1,15,-1
 181 676 l 2,16,17
 193 698 193 698 204 707 c 0,18,19
 214 717 214 717 227 717 c 0,20,21
 241 717 241 717 251 707 c 256,22,23
 261 697 261 697 261 683 c 0,24,25
 261 675 261 675 256 666 c 0,26,27
 250 656 250 656 240 645 c 2,28,-1
 138 539 l 1,29,-1
 109 539 l 1,15,-1
EndSplineSet
Validated: 1
EndChar

StartChar: uni037E
Encoding: 894 894 204
Width: 250
Flags: W
LayerCount: 2
Fore
SplineSet
57 180 m 1,0,1
 238 203 l 1,2,3
 225 159 225 159 145 -50 c 1,4,-1
 135 -70 l 1,5,6
 90 -120 90 -120 -25 -150 c 1,7,8
 32 100 32 100 57 180 c 1,0,1
130 490 m 1,9,-1
 312 513 l 1,10,11
 300 473 300 473 272 364 c 1,12,-1
 261 340 l 1,13,14
 201 340 201 340 83 319 c 1,15,16
 106 409 106 409 130 490 c 1,9,-1
EndSplineSet
Validated: 1
EndChar

StartChar: uni0394
Encoding: 916 916 205
Width: 825
Flags: W
HStem: 0 12<61.9375 100 650 688.965> 737 13<61.0352 100 650 690.541>
VStem: 0 13<59.459 100 650 688.965> 738 12<61.5 100 650 688.062>
LayerCount: 2
Fore
SplineSet
651 12 m 1,0,1
 738 12 738 12 738 100 c 2,2,-1
 738 650 l 2,3,4
 738 737 738 737 650 737 c 2,5,-1
 100 737 l 2,6,7
 13 737 13 737 13 650 c 2,8,-1
 13 100 l 2,9,10
 13 12 13 12 100 12 c 2,11,-1
 651 12 l 1,0,1
100 0 m 1,12,13
 0 0 0 0 0 100 c 2,14,-1
 0 650 l 2,15,16
 0 750 0 750 100 750 c 2,17,-1
 650 750 l 2,18,19
 750 750 750 750 750 650 c 2,20,-1
 750 100 l 2,21,22
 750 0 750 0 650 0 c 2,23,-1
 100 0 l 1,12,13
EndSplineSet
Validated: 1
EndChar

StartChar: uni03BC
Encoding: 956 956 206
Width: 825
Flags: W
HStem: 0 12<61.9375 100 650 688.965> 737 13<61.0352 100 650 690.541>
VStem: 0 13<59.459 100 650 688.965> 738 12<61.5 100 650 688.062>
LayerCount: 2
Fore
SplineSet
651 12 m 1,0,1
 738 12 738 12 738 100 c 2,2,-1
 738 650 l 2,3,4
 738 737 738 737 650 737 c 2,5,-1
 100 737 l 2,6,7
 13 737 13 737 13 650 c 2,8,-1
 13 100 l 2,9,10
 13 12 13 12 100 12 c 2,11,-1
 651 12 l 1,0,1
100 0 m 1,12,13
 0 0 0 0 0 100 c 2,14,-1
 0 650 l 2,15,16
 0 750 0 750 100 750 c 2,17,-1
 650 750 l 2,18,19
 750 750 750 750 750 650 c 2,20,-1
 750 100 l 2,21,22
 750 0 750 0 650 0 c 2,23,-1
 100 0 l 1,12,13
EndSplineSet
Validated: 1
EndChar

StartChar: endash
Encoding: 8211 8211 207
Width: 450
Flags: W
HStem: 363 110<129 270.368> 378 110<329.499 474>
LayerCount: 2
Fore
SplineSet
129 473 m 1,0,-1
 513 488 l 1,1,-1
 474 378 l 1,2,-1
 84 363 l 1,3,-1
 129 473 l 1,0,-1
EndSplineSet
Validated: 1
EndChar

StartChar: emdash
Encoding: 8212 8212 208
Width: 500
Flags: W
HStem: 363 110<129 296.651> 378 110<358.217 529>
LayerCount: 2
Fore
SplineSet
129 473 m 1,0,-1
 568 488 l 1,1,-1
 529 378 l 1,2,-1
 84 363 l 1,3,-1
 129 473 l 1,0,-1
EndSplineSet
Validated: 1
EndChar

StartChar: quoteleft
Encoding: 8216 8216 209
Width: 250
Flags: W
LayerCount: 2
Fore
SplineSet
332 538 m 1,0,1
 224 470 224 470 159 470 c 0,2,3
 147 470 147 470 137 474 c 1,4,5
 169 582 169 582 190 651 c 1,6,7
 294 711 294 711 390 775 c 1,8,9
 359 643 359 643 332 538 c 1,0,1
EndSplineSet
Validated: 1
EndChar

StartChar: quoteright
Encoding: 8217 8217 210
Width: 250
Flags: W
LayerCount: 2
Fore
SplineSet
195 706 m 1,0,1
 303 775 303 775 368 775 c 0,2,3
 380 775 380 775 390 770 c 1,4,5
 358 663 358 663 337 593 c 1,6,7
 233 533 233 533 137 470 c 1,8,9
 168 602 168 602 195 706 c 1,0,1
EndSplineSet
Validated: 1
EndChar

StartChar: quotesinglbase
Encoding: 8218 8218 211
Width: 250
Flags: W
LayerCount: 2
Fore
SplineSet
33 111 m 1,0,1
 142 180 142 180 207 180 c 0,2,3
 219 180 219 180 229 175 c 1,4,5
 197 68 197 68 176 -2 c 1,6,7
 72 -62 72 -62 -25 -125 c 1,8,9
 7 7 7 7 33 111 c 1,0,1
EndSplineSet
Validated: 1
EndChar

StartChar: quotedblleft
Encoding: 8220 8220 212
Width: 475
Flags: W
LayerCount: 2
Fore
SplineSet
332 538 m 1,0,1
 224 470 224 470 159 470 c 0,2,3
 147 470 147 470 137 474 c 1,4,5
 169 582 169 582 190 651 c 1,6,7
 294 711 294 711 390 775 c 1,8,9
 359 643 359 643 332 538 c 1,0,1
552 538 m 1,10,11
 444 470 444 470 379 470 c 0,12,13
 367 470 367 470 357 474 c 1,14,15
 389 582 389 582 410 651 c 1,16,17
 514 711 514 711 610 775 c 1,18,19
 579 643 579 643 552 538 c 1,10,11
EndSplineSet
Validated: 1
EndChar

StartChar: quotedblright
Encoding: 8221 8221 213
Width: 475
Flags: W
LayerCount: 2
Fore
SplineSet
415 706 m 1,0,1
 523 775 523 775 588 775 c 0,2,3
 600 775 600 775 610 770 c 1,4,5
 578 663 578 663 557 593 c 1,6,7
 453 533 453 533 357 470 c 1,8,9
 388 602 388 602 415 706 c 1,0,1
195 706 m 1,10,11
 303 775 303 775 368 775 c 0,12,13
 380 775 380 775 390 770 c 1,14,15
 358 663 358 663 337 593 c 1,16,17
 233 533 233 533 137 470 c 1,18,19
 168 602 168 602 195 706 c 1,10,11
EndSplineSet
Validated: 1
EndChar

StartChar: quotedblbase
Encoding: 8222 8222 214
Width: 475
Flags: W
LayerCount: 2
Fore
SplineSet
255 111 m 1,0,1
 363 180 363 180 428 180 c 0,2,3
 440 180 440 180 450 175 c 1,4,5
 418 68 418 68 397 -2 c 1,6,7
 293 -62 293 -62 197 -125 c 1,8,9
 228 7 228 7 255 111 c 1,0,1
35 111 m 1,10,11
 143 180 143 180 208 180 c 0,12,13
 220 180 220 180 230 175 c 1,14,15
 198 68 198 68 177 -2 c 1,16,17
 73 -62 73 -62 -23 -125 c 1,18,19
 8 7 8 7 35 111 c 1,10,11
EndSplineSet
Validated: 1
EndChar

StartChar: dagger
Encoding: 8224 8224 215
Width: 507
Flags: W
HStem: 434 132<51.4402 141.328 365.172 456.529>
VStem: 188 132<611.938 702.56> 245 19<-135 53.9531 438.711 490>
LayerCount: 2
Fore
SplineSet
243 511 m 1,0,1
 239 559 239 559 216 600 c 0,2,3
 188 650 188 650 188 664 c 0,4,5
 188 689 188 689 206 703 c 0,6,7
 224 718 224 718 254 718 c 0,8,9
 282 718 282 718 301 704 c 0,10,11
 320 691 320 691 320 669 c 0,12,13
 320 653 320 653 292 600 c 0,14,15
 269 558 269 558 265 511 c 1,16,17
 313 515 313 515 353 538 c 0,18,19
 404 566 404 566 418 566 c 0,20,21
 442 566 442 566 457 548 c 256,22,23
 472 530 472 530 472 500 c 0,24,25
 472 472 472 472 459 453 c 0,26,27
 445 434 445 434 422 434 c 0,28,29
 406 434 406 434 354 462 c 0,30,31
 312 485 312 485 265 490 c 1,32,33
 269 402 269 402 320 352 c 1,34,35
 267 122 267 122 264 -135 c 1,36,-1
 245 -135 l 1,37,38
 242 122 242 122 188 352 c 1,39,40
 239 402 239 402 243 490 c 1,41,42
 195 485 195 485 154 463 c 0,43,44
 104 434 104 434 90 434 c 0,45,46
 65 434 65 434 51 452 c 0,47,48
 36 470 36 470 36 500 c 0,49,50
 36 529 36 529 50 547 c 0,51,52
 63 566 63 566 85 566 c 0,53,54
 101 566 101 566 154 538 c 0,55,56
 196 515 196 515 243 511 c 1,0,1
EndSplineSet
Validated: 1
EndChar

StartChar: daggerdbl
Encoding: 8225 8225 216
Width: 507
Flags: W
HStem: 17 132<50.4709 141.828 364.944 456.529> 434 132<50.4709 141.828 364.944 456.529>
VStem: 187 132<-120.529 -29.6719 612.672 702.56> 243 21<93 173.953 409.188 490>
LayerCount: 2
Fore
SplineSet
264 93 m 1,0,1
 311 98 311 98 354 121 c 0,2,3
 406 149 406 149 422 149 c 0,4,5
 444 149 444 149 458 130 c 256,6,7
 472 111 472 111 472 83 c 0,8,9
 472 53 472 53 457 35 c 256,10,11
 442 17 442 17 417 17 c 0,12,13
 403 17 403 17 353 45 c 0,14,15
 312 68 312 68 264 72 c 1,16,17
 269 25 269 25 292 -17 c 0,18,19
 319 -70 319 -70 319 -86 c 0,20,21
 319 -108 319 -108 301 -122 c 0,22,23
 282 -135 282 -135 253 -135 c 0,24,25
 223 -135 223 -135 205 -121 c 0,26,27
 187 -106 187 -106 187 -81 c 0,28,29
 187 -67 187 -67 216 -17 c 0,30,31
 239 24 239 24 243 72 c 1,32,33
 196 68 196 68 153 45 c 0,34,35
 101 17 101 17 85 17 c 0,36,37
 63 17 63 17 49 35 c 0,38,39
 35 54 35 54 35 83 c 0,40,41
 35 113 35 113 50 131 c 256,42,43
 65 149 65 149 89 149 c 0,44,45
 103 149 103 149 154 120 c 0,46,47
 195 98 195 98 243 93 c 1,48,49
 238 206 238 206 187 292 c 1,50,51
 238 377 238 377 243 490 c 1,52,53
 195 485 195 485 154 463 c 0,54,55
 103 434 103 434 89 434 c 0,56,57
 65 434 65 434 50 452 c 256,58,59
 35 470 35 470 35 500 c 0,60,61
 35 529 35 529 49 547 c 0,62,63
 63 566 63 566 85 566 c 0,64,65
 101 566 101 566 153 538 c 0,66,67
 196 515 196 515 243 511 c 1,68,69
 239 559 239 559 216 600 c 0,70,71
 187 650 187 650 187 664 c 0,72,73
 187 689 187 689 205 703 c 0,74,75
 223 718 223 718 253 718 c 0,76,77
 282 718 282 718 301 704 c 0,78,79
 319 691 319 691 319 669 c 0,80,81
 319 653 319 653 292 600 c 0,82,83
 269 558 269 558 264 511 c 1,84,85
 312 515 312 515 353 538 c 0,86,87
 403 566 403 566 417 566 c 0,88,89
 442 566 442 566 457 548 c 256,90,91
 472 530 472 530 472 500 c 0,92,93
 472 472 472 472 458 453 c 256,94,95
 444 434 444 434 422 434 c 0,96,97
 406 434 406 434 354 462 c 0,98,99
 311 485 311 485 264 490 c 1,100,101
 268 377 268 377 319 292 c 1,102,103
 268 206 268 206 264 93 c 1,0,1
EndSplineSet
Validated: 1
EndChar

StartChar: bullet
Encoding: 8226 8226 217
Width: 512
Flags: W
HStem: 210 296<178.206 333.377>
VStem: 108 296<280.095 435.882>
LayerCount: 2
Fore
SplineSet
108 359 m 1,0,1
 108 420 108 420 152 463 c 0,2,3
 195 506 195 506 257 506 c 0,4,5
 318 506 318 506 361 463 c 256,6,7
 404 420 404 420 404 359 c 256,8,9
 404 298 404 298 361 254 c 0,10,11
 317 210 317 210 256 210 c 0,12,13
 194 210 194 210 151 254 c 0,14,15
 108 297 108 297 108 359 c 1,0,1
EndSplineSet
Validated: 1
EndChar

StartChar: ellipsis
Encoding: 8230 8230 218
Width: 700
Flags: W
HStem: 9 171<55.4395 113.409 276.439 329.896 492.439 548.059>
LayerCount: 2
Fore
SplineSet
494 181 m 1,0,1
 675 204 l 1,2,3
 662 159 662 159 636 54 c 1,4,-1
 624 30 l 1,5,6
 565 30 565 30 446 10 c 1,7,8
 469 100 469 100 494 181 c 1,0,1
278 182 m 1,9,-1
 459 205 l 1,10,11
 446 160 446 160 420 55 c 1,12,-1
 408 31 l 1,13,14
 349 31 349 31 230 11 c 1,15,16
 253 101 253 101 278 182 c 1,9,-1
57 180 m 1,17,-1
 238 203 l 1,18,19
 225 159 225 159 199 54 c 1,20,-1
 187 30 l 1,21,22
 128 30 128 30 9 9 c 1,23,24
 32 100 32 100 57 180 c 1,17,-1
EndSplineSet
Validated: 1
EndChar

StartChar: guilsinglleft
Encoding: 8249 8249 219
Width: 600
Flags: W
LayerCount: 2
Fore
SplineSet
146 321 m 1,0,-1
 144 320 l 1,1,-1
 189 431 l 1,2,-1
 588 596 l 1,3,-1
 549 486 l 1,4,-1
 281 376 l 1,5,-1
 473 272 l 1,6,-1
 434 162 l 1,7,-1
 144 317 l 1,8,-1
 146 321 l 1,0,-1
EndSplineSet
Validated: 1
EndChar

StartChar: guilsinglright
Encoding: 8250 8250 220
Width: 600
Flags: W
LayerCount: 2
Fore
SplineSet
587 437 m 1,0,-1
 588 438 l 1,1,-1
 544 327 l 1,2,-1
 144 162 l 1,3,-1
 184 272 l 1,4,-1
 451 382 l 1,5,-1
 259 486 l 1,6,-1
 299 596 l 1,7,-1
 588 441 l 1,8,-1
 587 437 l 1,0,-1
EndSplineSet
Validated: 1
EndChar

StartChar: fraction
Encoding: 8260 8260 221
Width: 625
Flags: W
LayerCount: 2
Fore
SplineSet
452 557 m 1,0,1
 530 641 530 641 650 762 c 1,2,-1
 671 764 l 2,3,4
 727 771 727 771 801 775 c 1,5,6
 770 738 770 738 718 679 c 2,7,8
 484 409 l 1,9,-1
 329 228 l 1,10,-1
 175 53 l 1,11,-1
 -14 6 l 1,12,13
 147 220 147 220 304 395 c 2,14,-1
 452 557 l 1,0,1
EndSplineSet
Validated: 1
EndChar

StartChar: franc
Encoding: 8355 8355 222
Width: 600
Flags: W
HStem: 345 130<312 459.952> 353 130<334.464 482> 630 145<378.625 647>
LayerCount: 2
Fore
SplineSet
211 153 m 1,0,1
 196 92 196 92 188 33 c 1,2,3
 105 24 105 24 0 6 c 1,4,-1
 0 8 l 2,5,6
 0 15 0 15 27 109 c 0,7,8
 32 128 32 128 38 146 c 1,9,-1
 -46 143 l 1,10,-1
 -1 253 l 1,11,-1
 72 256 l 1,12,13
 77 272 77 272 82 286 c 0,14,15
 123 401 123 401 176 518 c 0,16,17
 196 562 196 562 221 609 c 1,18,19
 168 603 168 603 122 598 c 1,20,-1
 166 748 l 1,21,22
 270 756 270 756 414 764 c 0,23,24
 500 769 500 769 693 775 c 1,25,-1
 647 630 l 1,26,-1
 589 630 l 2,27,28
 427 630 427 630 336 622 c 1,29,-1
 367 604 l 1,30,31
 360 588 360 588 330 518 c 0,32,33
 322 500 322 500 312 475 c 1,34,-1
 528 483 l 1,35,-1
 482 353 l 1,36,-1
 270 345 l 1,37,38
 258 309 258 309 251 288 c 0,39,40
 247 275 247 275 243 262 c 1,41,-1
 383 268 l 1,42,-1
 344 158 l 1,43,-1
 211 153 l 1,0,1
EndSplineSet
Validated: 1
EndChar

StartChar: lira
Encoding: 8356 8356 223
Width: 675
Flags: W
HStem: 41 144<331.74 541> 41 131<330.528 541> 622 169<505.473 637.838>
LayerCount: 2
Fore
SplineSet
391 374 m 1,0,-1
 355 259 l 2,1,2
 338 205 338 205 329 172 c 1,3,4
 416 177 416 177 589 185 c 1,5,-1
 541 41 l 1,6,7
 496 41 496 41 463 41 c 2,8,-1
 434 41 l 2,9,10
 324 41 324 41 25 5 c 1,11,-1
 70 153 l 1,12,13
 135 155 135 155 152 184 c 0,14,15
 168 218 168 218 192 286 c 0,16,17
 207 327 207 327 223 367 c 1,18,-1
 104 363 l 1,19,-1
 149 473 l 1,20,-1
 268 477 l 1,21,22
 308 600 308 600 382 689 c 1,23,24
 475 791 475 791 586 791 c 0,25,26
 770 791 770 791 865 635 c 1,27,-1
 691 559 l 1,28,29
 625 622 625 622 573 622 c 0,30,31
 515 622 515 622 474 569 c 1,32,33
 450 527 450 527 431 484 c 1,34,-1
 533 488 l 1,35,-1
 494 378 l 1,36,-1
 391 374 l 1,0,-1
EndSplineSet
Validated: 1
EndChar

StartChar: peseta
Encoding: 8359 8359 224
Width: 675
Flags: W
HStem: 340 127<320 478.046> 632 143<343.795 519.407>
VStem: 542 157<514.402 608.976>
LayerCount: 2
Fore
SplineSet
82 257 m 1,0,1
 87 272 87 272 93 288 c 0,2,3
 123 378 123 378 187 519 c 0,4,5
 200 547 200 547 225 595 c 1,6,7
 204 589 204 589 188 585 c 1,8,-1
 152 756 l 1,9,10
 280 775 280 775 374 775 c 0,11,12
 395 775 395 775 422 773 c 0,13,14
 496 767 496 767 507 765 c 0,15,16
 546 759 546 759 594 738 c 0,17,18
 699 695 699 695 699 589 c 0,19,20
 699 573 699 573 695 550 c 0,21,22
 670 423 670 423 499 368 c 0,23,24
 407 340 407 340 278 340 c 1,25,-1
 261 288 l 2,26,27
 258 278 258 278 254 263 c 1,28,-1
 368 268 l 1,29,-1
 329 158 l 1,30,-1
 224 154 l 1,31,32
 213 110 213 110 199 54 c 1,33,-1
 193 53 l 2,34,35
 113 37 113 37 9 9 c 1,36,37
 27 77 27 77 48 147 c 1,38,-1
 23 146 l 1,39,-1
 -61 143 l 1,40,-1
 -16 253 l 1,41,-1
 57 256 l 1,42,-1
 82 257 l 1,0,1
542 567 m 1,43,44
 542 607 542 607 489 626 c 0,45,46
 473 632 473 632 438 632 c 2,47,-1
 425 632 l 2,48,49
 394 631 394 631 341 616 c 1,50,-1
 377 598 l 1,51,52
 359 566 359 566 340 519 c 0,53,54
 338 516 338 516 320 465 c 1,55,-1
 363 467 l 2,56,57
 430 468 430 468 476 486 c 0,58,59
 542 512 542 512 542 567 c 1,43,44
EndSplineSet
Validated: 1
EndChar

StartChar: Euro
Encoding: 8364 8364 225
Width: 850
Flags: W
HStem: 9 150<394.772 563.695> 262 110<333.28 469> 607 168<452.836 640.084>
LayerCount: 2
Fore
SplineSet
205 534 m 1,0,1
 239 605 239 605 300 663 c 0,2,3
 418 775 418 775 570 775 c 0,4,5
 799 775 799 775 894 620 c 1,6,-1
 694 524 l 1,7,8
 654 607 654 607 557 607 c 0,9,10
 458 607 458 607 392 543 c 0,11,12
 391 542 391 542 390 541 c 2,13,-1
 508 546 l 1,14,-1
 469 436 l 1,15,-1
 326 430 l 1,16,17
 319 408 319 408 315 383 c 0,18,19
 314 373 314 373 313 364 c 1,20,-1
 508 372 l 1,21,-1
 469 262 l 1,22,-1
 330 257 l 1,23,24
 340 235 340 235 356 215 c 0,25,26
 402 159 402 159 476 159 c 0,27,28
 555 159 555 159 616 220 c 1,29,-1
 735 126 l 1,30,31
 625 9 625 9 453 9 c 0,32,33
 314 9 314 9 236 105 c 0,34,35
 187 166 187 166 171 250 c 1,36,-1
 79 247 l 1,37,-1
 124 357 l 1,38,-1
 164 358 l 1,39,40
 165 379 165 379 167 401 c 0,41,42
 169 413 169 413 171 424 c 1,43,-1
 79 420 l 1,44,-1
 124 531 l 1,45,-1
 205 534 l 1,0,1
EndSplineSet
Validated: 1
EndChar

StartChar: uni2116
Encoding: 8470 8470 226
Width: 675
Flags: W
HStem: 388 75<523.897 640.145> 687 84<549.322 675.055>
VStem: 106 95<410 464.031> 422 74<491.498 572.81> 690 86<518.964 654.069>
LayerCount: 2
Fore
SplineSet
423 573 m 1,0,1
 414 546 414 546 404 511 c 0,2,3
 397 488 397 488 376 419 c 1,4,-1
 282 396 l 1,5,6
 283 401 283 401 283 412 c 0,7,8
 283 466 283 466 269 555 c 0,9,10
 264 590 264 590 261 590 c 2,11,-1
 228 511 l 2,12,13
 205 457 205 457 201 410 c 1,14,-1
 106 387 l 1,15,16
 122 448 122 448 143 511 c 0,17,18
 159 559 159 559 190 627 c 0,19,20
 204 657 204 657 228 702 c 0,21,22
 230 706 230 706 230 709 c 0,23,24
 230 717 230 717 223 735 c 0,25,26
 215 758 215 758 214 762 c 1,27,-1
 306 782 l 1,28,29
 333 674 333 674 345 579 c 0,30,31
 347 579 347 579 357 602 c 2,32,-1
 367 627 l 2,33,34
 383 665 383 665 438 765 c 1,35,-1
 448 766 l 2,36,37
 477 769 477 769 513 771 c 1,38,39
 496 740 496 740 478 702 c 1,40,41
 484 709 484 709 491 715 c 0,42,43
 550 771 550 771 625 771 c 0,44,45
 740 771 740 771 787 694 c 1,46,-1
 766 679 l 1,47,48
 776 649 776 649 776 628 c 0,49,50
 776 612 776 612 772 584 c 0,51,52
 757 497 757 497 707 445 c 0,53,54
 652 388 652 388 567 388 c 0,55,56
 497 388 497 388 458 436 c 0,57,58
 422 481 422 481 422 552 c 0,59,60
 422 562 422 562 423 573 c 1,0,1
688 575 m 1,61,62
 690 586 690 586 690 592 c 0,63,64
 690 621 690 621 672 637 c 1,65,-1
 688 646 l 1,66,67
 667 687 667 687 619 687 c 0,68,69
 570 687 570 687 537 655 c 0,70,71
 506 625 506 625 498 575 c 0,72,73
 496 564 496 564 496 556 c 0,74,75
 496 518 496 518 518 491 c 0,76,77
 542 463 542 463 578 463 c 0,78,79
 623 463 623 463 653 498 c 0,80,81
 679 529 679 529 688 575 c 1,61,62
EndSplineSet
Validated: 1
EndChar

StartChar: trademark
Encoding: 8482 8482 227
Width: 725
Flags: W
HStem: 688 73<346.344 442>
VStem: 322 94<400 453.031>
LayerCount: 2
Fore
SplineSet
442 688 m 1,0,1
 421 688 l 2,2,3
 377 688 377 688 345 687 c 1,4,-1
 367 675 l 1,5,6
 343 629 343 629 308 516 c 0,7,8
 296 473 296 473 277 400 c 1,9,-1
 274 399 l 1,10,11
 241 393 241 393 182 376 c 1,12,13
 201 446 201 446 224 516 c 0,14,15
 239 560 239 560 272 632 c 0,16,17
 280 650 280 650 297 684 c 1,18,19
 250 680 250 680 189 672 c 1,20,-1
 211 747 l 1,21,22
 265 751 265 751 335 755 c 0,23,24
 377 758 377 758 473 761 c 1,25,-1
 522 772 l 1,26,27
 538 717 538 717 551 670 c 0,28,29
 569 603 569 603 570 556 c 1,30,31
 619 657 619 657 696 722 c 0,32,33
 729 754 729 754 776 774 c 1,34,-1
 850 776 l 1,35,-1
 811 613 l 2,36,37
 809 607 809 607 798 558 c 2,38,-1
 781 485 l 2,39,40
 771 442 771 442 763 400 c 1,41,-1
 649 368 l 1,42,43
 661 414 661 414 686 492 c 0,44,45
 694 516 694 516 712 575 c 0,46,47
 720 603 720 603 737 648 c 1,48,49
 705 637 705 637 640 527 c 0,50,51
 615 486 615 486 592 408 c 1,52,-1
 497 385 l 1,53,54
 498 391 498 391 498 402 c 0,55,56
 498 455 498 455 485 544 c 0,57,58
 480 579 480 579 476 579 c 2,59,-1
 443 500 l 2,60,61
 421 447 421 447 416 400 c 1,62,-1
 322 376 l 1,63,64
 338 437 338 437 359 500 c 0,65,66
 375 548 375 548 406 616 c 0,67,68
 419 645 419 645 442 688 c 1,0,1
EndSplineSet
Validated: 1
EndChar

StartChar: partialdiff
Encoding: 8706 8706 228
Width: 825
Flags: W
HStem: 0 12<61.9375 100 650 688.965> 737 13<61.0352 100 650 690.541>
VStem: 0 13<59.459 100 650 688.965> 738 12<61.5 100 650 688.062>
LayerCount: 2
Fore
SplineSet
651 12 m 1,0,1
 738 12 738 12 738 100 c 2,2,-1
 738 650 l 2,3,4
 738 737 738 737 650 737 c 2,5,-1
 100 737 l 2,6,7
 13 737 13 737 13 650 c 2,8,-1
 13 100 l 2,9,10
 13 12 13 12 100 12 c 2,11,-1
 651 12 l 1,0,1
100 0 m 1,12,13
 0 0 0 0 0 100 c 2,14,-1
 0 650 l 2,15,16
 0 750 0 750 100 750 c 2,17,-1
 650 750 l 2,18,19
 750 750 750 750 750 650 c 2,20,-1
 750 100 l 2,21,22
 750 0 750 0 650 0 c 2,23,-1
 100 0 l 1,12,13
EndSplineSet
Validated: 1
EndChar

StartChar: product
Encoding: 8719 8719 229
Width: 825
Flags: W
HStem: 0 12<61.9375 100 650 688.965> 737 13<61.0352 100 650 690.541>
VStem: 0 13<59.459 100 650 688.965> 738 12<61.5 100 650 688.062>
LayerCount: 2
Fore
SplineSet
651 12 m 1,0,1
 738 12 738 12 738 100 c 2,2,-1
 738 650 l 2,3,4
 738 737 738 737 650 737 c 2,5,-1
 100 737 l 2,6,7
 13 737 13 737 13 650 c 2,8,-1
 13 100 l 2,9,10
 13 12 13 12 100 12 c 2,11,-1
 651 12 l 1,0,1
100 0 m 1,12,13
 0 0 0 0 0 100 c 2,14,-1
 0 650 l 2,15,16
 0 750 0 750 100 750 c 2,17,-1
 650 750 l 2,18,19
 750 750 750 750 750 650 c 2,20,-1
 750 100 l 2,21,22
 750 0 750 0 650 0 c 2,23,-1
 100 0 l 1,12,13
EndSplineSet
Validated: 1
EndChar

StartChar: summation
Encoding: 8721 8721 230
Width: 825
Flags: W
HStem: 0 12<61.9375 100 650 688.965> 737 13<61.0352 100 650 690.541>
VStem: 0 13<59.459 100 650 688.965> 738 12<61.5 100 650 688.062>
LayerCount: 2
Fore
SplineSet
651 12 m 1,0,1
 738 12 738 12 738 100 c 2,2,-1
 738 650 l 2,3,4
 738 737 738 737 650 737 c 2,5,-1
 100 737 l 2,6,7
 13 737 13 737 13 650 c 2,8,-1
 13 100 l 2,9,10
 13 12 13 12 100 12 c 2,11,-1
 651 12 l 1,0,1
100 0 m 1,12,13
 0 0 0 0 0 100 c 2,14,-1
 0 650 l 2,15,16
 0 750 0 750 100 750 c 2,17,-1
 650 750 l 2,18,19
 750 750 750 750 750 650 c 2,20,-1
 750 100 l 2,21,22
 750 0 750 0 650 0 c 2,23,-1
 100 0 l 1,12,13
EndSplineSet
Validated: 1
EndChar

StartChar: uni2215
Encoding: 8725 8725 231
Width: 625
Flags: W
LayerCount: 2
Fore
SplineSet
452 557 m 1,0,1
 530 641 530 641 650 762 c 1,2,-1
 671 764 l 2,3,4
 727 771 727 771 801 775 c 1,5,6
 770 738 770 738 718 679 c 2,7,8
 484 409 l 1,9,-1
 329 228 l 1,10,-1
 175 53 l 1,11,-1
 -14 6 l 1,12,13
 147 220 147 220 304 395 c 2,14,-1
 452 557 l 1,0,1
EndSplineSet
Validated: 1
EndChar

StartChar: radical
Encoding: 8730 8730 232
Width: 825
Flags: W
HStem: 0 12<61.9375 100 650 688.965> 737 13<61.0352 100 650 690.541>
VStem: 0 13<59.459 100 650 688.965> 738 12<61.5 100 650 688.062>
LayerCount: 2
Fore
SplineSet
651 12 m 1,0,1
 738 12 738 12 738 100 c 2,2,-1
 738 650 l 2,3,4
 738 737 738 737 650 737 c 2,5,-1
 100 737 l 2,6,7
 13 737 13 737 13 650 c 2,8,-1
 13 100 l 2,9,10
 13 12 13 12 100 12 c 2,11,-1
 651 12 l 1,0,1
100 0 m 1,12,13
 0 0 0 0 0 100 c 2,14,-1
 0 650 l 2,15,16
 0 750 0 750 100 750 c 2,17,-1
 650 750 l 2,18,19
 750 750 750 750 750 650 c 2,20,-1
 750 100 l 2,21,22
 750 0 750 0 650 0 c 2,23,-1
 100 0 l 1,12,13
EndSplineSet
Validated: 1
EndChar

StartChar: infinity
Encoding: 8734 8734 233
Width: 825
Flags: W
HStem: 0 12<61.9375 100 650 688.965> 737 13<61.0352 100 650 690.541>
VStem: 0 13<59.459 100 650 688.965> 738 12<61.5 100 650 688.062>
LayerCount: 2
Fore
SplineSet
651 12 m 1,0,1
 738 12 738 12 738 100 c 2,2,-1
 738 650 l 2,3,4
 738 737 738 737 650 737 c 2,5,-1
 100 737 l 2,6,7
 13 737 13 737 13 650 c 2,8,-1
 13 100 l 2,9,10
 13 12 13 12 100 12 c 2,11,-1
 651 12 l 1,0,1
100 0 m 1,12,13
 0 0 0 0 0 100 c 2,14,-1
 0 650 l 2,15,16
 0 750 0 750 100 750 c 2,17,-1
 650 750 l 2,18,19
 750 750 750 750 750 650 c 2,20,-1
 750 100 l 2,21,22
 750 0 750 0 650 0 c 2,23,-1
 100 0 l 1,12,13
EndSplineSet
Validated: 1
EndChar

StartChar: integral
Encoding: 8747 8747 234
Width: 825
Flags: W
HStem: 0 12<61.9375 100 650 688.965> 737 13<61.0352 100 650 690.541>
VStem: 0 13<59.459 100 650 688.965> 738 12<61.5 100 650 688.062>
LayerCount: 2
Fore
SplineSet
651 12 m 1,0,1
 738 12 738 12 738 100 c 2,2,-1
 738 650 l 2,3,4
 738 737 738 737 650 737 c 2,5,-1
 100 737 l 2,6,7
 13 737 13 737 13 650 c 2,8,-1
 13 100 l 2,9,10
 13 12 13 12 100 12 c 2,11,-1
 651 12 l 1,0,1
100 0 m 1,12,13
 0 0 0 0 0 100 c 2,14,-1
 0 650 l 2,15,16
 0 750 0 750 100 750 c 2,17,-1
 650 750 l 2,18,19
 750 750 750 750 750 650 c 2,20,-1
 750 100 l 2,21,22
 750 0 750 0 650 0 c 2,23,-1
 100 0 l 1,12,13
EndSplineSet
Validated: 1
EndChar

StartChar: lessequal
Encoding: 8804 8804 235
Width: 825
Flags: W
HStem: 0 12<61.9375 100 650 688.965> 737 13<61.0352 100 650 690.541>
VStem: 0 13<59.459 100 650 688.965> 738 12<61.5 100 650 688.062>
LayerCount: 2
Fore
SplineSet
651 12 m 1,0,1
 738 12 738 12 738 100 c 2,2,-1
 738 650 l 2,3,4
 738 737 738 737 650 737 c 2,5,-1
 100 737 l 2,6,7
 13 737 13 737 13 650 c 2,8,-1
 13 100 l 2,9,10
 13 12 13 12 100 12 c 2,11,-1
 651 12 l 1,0,1
100 0 m 1,12,13
 0 0 0 0 0 100 c 2,14,-1
 0 650 l 2,15,16
 0 750 0 750 100 750 c 2,17,-1
 650 750 l 2,18,19
 750 750 750 750 750 650 c 2,20,-1
 750 100 l 2,21,22
 750 0 750 0 650 0 c 2,23,-1
 100 0 l 1,12,13
EndSplineSet
Validated: 1
EndChar

StartChar: greaterequal
Encoding: 8805 8805 236
Width: 825
Flags: W
HStem: 0 12<61.9375 100 650 688.965> 737 13<61.0352 100 650 690.541>
VStem: 0 13<59.459 100 650 688.965> 738 12<61.5 100 650 688.062>
LayerCount: 2
Fore
SplineSet
651 12 m 1,0,1
 738 12 738 12 738 100 c 2,2,-1
 738 650 l 2,3,4
 738 737 738 737 650 737 c 2,5,-1
 100 737 l 2,6,7
 13 737 13 737 13 650 c 2,8,-1
 13 100 l 2,9,10
 13 12 13 12 100 12 c 2,11,-1
 651 12 l 1,0,1
100 0 m 1,12,13
 0 0 0 0 0 100 c 2,14,-1
 0 650 l 2,15,16
 0 750 0 750 100 750 c 2,17,-1
 650 750 l 2,18,19
 750 750 750 750 750 650 c 2,20,-1
 750 100 l 2,21,22
 750 0 750 0 650 0 c 2,23,-1
 100 0 l 1,12,13
EndSplineSet
Validated: 1
EndChar
